Berangeen-Thin.ufo
<glyph name=".notdef" format="2">
  <advance width="512"/>
  <unicode hex="0000"/>
  <outline>
    <contour>
      <point x="258.415" y="160.111" type="curve" smooth="yes"/>
      <point x="258.415" y="166.505"/>
      <point x="263.606" y="171.696"/>
      <point x="270" y="171.696" type="curve" smooth="yes"/>
      <point x="276.394" y="171.696"/>
      <point x="281.585" y="166.505"/>
      <point x="281.585" y="160.111" type="curve" smooth="yes"/>
      <point x="281.585" y="140.037"/>
      <point x="281.585" y="119.963"/>
      <point x="281.585" y="99.8887" type="curve" smooth="yes"/>
      <point x="281.585" y="93.4951"/>
      <point x="276.394" y="88.3037"/>
      <point x="270" y="88.3037" type="curve" smooth="yes"/>
      <point x="263.606" y="88.3037"/>
      <point x="258.415" y="93.4951"/>
      <point x="258.415" y="99.8887" type="curve" smooth="yes"/>
      <point x="258.415" y="119.963"/>
      <point x="258.415" y="140.037"/>
    </contour>
    <contour>
      <point x="203.585" y="561.889" type="line" smooth="yes"/>
      <point x="203.585" y="555.495"/>
      <point x="198.394" y="550.304"/>
      <point x="192" y="550.304" type="curve" smooth="yes"/>
      <point x="185.606" y="550.304"/>
      <point x="180.415" y="555.495"/>
      <point x="180.415" y="561.889" type="curve" smooth="yes"/>
      <point x="180.415" y="578.63"/>
      <point x="180.415" y="595.37"/>
      <point x="180.415" y="612.111" type="curve"/>
      <point x="203.293" y="629.789"/>
      <point x="225.765" y="640.572"/>
      <point x="247.83" y="644.464" type="curve" smooth="yes"/>
      <point x="259.837" y="646.58"/>
      <point x="272.569" y="649.584"/>
      <point x="286.112" y="649.584" type="curve" smooth="yes"/>
      <point x="314.112" y="649.584"/>
      <point x="341.445" y="638.251"/>
      <point x="368.111" y="615.585" type="curve"/>
      <point x="386.491" y="593.078"/>
      <point x="399.419" y="568.851"/>
      <point x="404.147" y="542.034" type="curve" smooth="yes"/>
      <point x="406.509" y="528.643"/>
      <point x="409.604" y="514.887"/>
      <point x="409.604" y="499.557" type="curve" smooth="yes"/>
      <point x="409.604" y="467.669"/>
      <point x="398.24" y="432.193"/>
      <point x="371.585" y="391.889" type="curve" smooth="yes"/>
      <point x="370.238" y="389.853"/>
      <point x="362.111" y="388.42"/>
      <point x="351.913" y="388.42" type="curve" smooth="yes"/>
      <point x="327.137" y="388.42"/>
      <point x="302.36" y="388.416"/>
      <point x="277.585" y="388.416" type="curve"/>
      <point x="277.585" y="203.889" type="line" smooth="yes"/>
      <point x="277.585" y="197.495"/>
      <point x="272.394" y="192.304"/>
      <point x="266" y="192.304" type="curve" smooth="yes"/>
      <point x="259.606" y="192.304"/>
      <point x="254.415" y="197.495"/>
      <point x="254.415" y="203.889" type="curve" smooth="yes"/>
      <point x="254.415" y="408.111" type="line" smooth="yes"/>
      <point x="254.415" y="410.028"/>
      <point x="263.241" y="411.585"/>
      <point x="274.111" y="411.585" type="curve" smooth="yes"/>
      <point x="350.683" y="411.585" type="line"/>
      <point x="375.717" y="450.458"/>
      <point x="386.435" y="484.812"/>
      <point x="386.435" y="515.779" type="curve" smooth="yes"/>
      <point x="386.435" y="520.141"/>
      <point x="386.223" y="524.434"/>
      <point x="385.808" y="528.664" type="curve" smooth="yes"/>
      <point x="379.926" y="551.628"/>
      <point x="368.002" y="572.683"/>
      <point x="351.889" y="592.415" type="curve"/>
      <point x="325.223" y="615.081"/>
      <point x="297.89" y="626.414"/>
      <point x="269.89" y="626.414" type="curve" smooth="yes"/>
      <point x="266.975" y="626.414"/>
      <point x="264.054" y="626.292"/>
      <point x="261.125" y="626.046" type="curve" smooth="yes"/>
      <point x="242.238" y="620.988"/>
      <point x="223.059" y="610.936"/>
      <point x="203.585" y="595.889" type="curve"/>
    </contour>
    <contour>
      <point x="498.415" y="788.415" type="line"/>
      <point x="53.585" y="788.415" type="line"/>
      <point x="53.585" y="11.585" type="line"/>
      <point x="498.415" y="11.585" type="line"/>
    </contour>
    <contour>
      <point x="50.1113" y="811.585" type="curve" smooth="yes"/>
      <point x="518.111" y="811.585" type="line" smooth="yes"/>
      <point x="520.028" y="811.585"/>
      <point x="521.585" y="802.759"/>
      <point x="521.585" y="791.889" type="curve" smooth="yes"/>
      <point x="521.585" y="-8.11133" type="line" smooth="yes"/>
      <point x="521.585" y="-10.0283"/>
      <point x="512.759" y="-11.585"/>
      <point x="501.889" y="-11.585" type="curve" smooth="yes"/>
      <point x="33.8887" y="-11.585" type="line" smooth="yes"/>
      <point x="31.9717" y="-11.585"/>
      <point x="30.415" y="-2.75879"/>
      <point x="30.415" y="8.11133" type="curve" smooth="yes"/>
      <point x="30.415" y="808.111" type="line" smooth="yes"/>
      <point x="30.415" y="810.028"/>
      <point x="39.2412" y="811.585"/>
    </contour>
  </outline>
</glyph>
<glyph name="exclam" format="2">
  <advance width="119"/>
  <unicode hex="0021"/>
  <outline>
    <contour>
      <point x="55.0" y="817.0" type="curve" smooth="yes"/>
      <point x="57.73828125" y="817.0"/>
      <point x="59.9658203125" y="814.79296875"/>
      <point x="60.0" y="812.0625" type="curve" smooth="yes"/>
      <point x="66.0" y="323.0" type="line" smooth="yes"/>
      <point x="66.0" y="320.240234375"/>
      <point x="63.759765625" y="318.0"/>
      <point x="61.0" y="318.0" type="curve" smooth="yes"/>
      <point x="58.26171875" y="318.0"/>
      <point x="56.0341796875" y="320.20703125"/>
      <point x="56.0" y="322.9375" type="curve" smooth="yes"/>
      <point x="56.0" y="322.9375"/>
      <point x="50.0" y="811.9375"/>
      <point x="50.0" y="812.0" type="curve" smooth="yes"/>
      <point x="50.0" y="814.759765625"/>
      <point x="52.240234375" y="817.0"/>
    </contour>
    <contour>
      <point x="59.0" y="203.0" type="line" smooth="yes"/>
      <point x="59.0" y="205.759765625"/>
      <point x="61.240234375" y="208.0"/>
      <point x="64.0" y="208.0" type="curve" smooth="yes"/>
      <point x="66.759765625" y="208.0"/>
      <point x="69.0" y="205.759765625"/>
      <point x="69.0" y="203.0" type="curve" smooth="yes"/>
      <point x="69.0" y="137.0" type="line" smooth="yes"/>
      <point x="69.0" y="134.240234375"/>
      <point x="66.759765625" y="132.0"/>
      <point x="64.0" y="132.0" type="curve" smooth="yes"/>
      <point x="61.240234375" y="132.0"/>
      <point x="59.0" y="134.240234375"/>
      <point x="59.0" y="137.0" type="curve" smooth="yes"/>
    </contour>
  </outline>
</glyph>
<glyph name="quotedbl" format="2">
  <advance width="203"/>
  <unicode hex="0022"/>
  <outline>
    <contour>
      <point x="50" y="737" type="curve" smooth="yes"/>
      <point x="50" y="739.76"/>
      <point x="52.2402" y="742"/>
      <point x="55" y="742" type="curve" smooth="yes"/>
      <point x="57.6826" y="742"/>
      <point x="59.874" y="739.883"/>
      <point x="59.9951" y="737.23" type="curve" smooth="yes"/>
      <point x="62.9951" y="671.23" type="line" smooth="yes"/>
      <point x="62.998" y="671.154"/>
      <point x="63" y="671.077"/>
      <point x="63" y="671" type="curve" smooth="yes"/>
      <point x="63" y="668.24"/>
      <point x="60.7598" y="666"/>
      <point x="58" y="666" type="curve" smooth="yes"/>
      <point x="55.3174" y="666"/>
      <point x="53.126" y="668.117"/>
      <point x="53.0049" y="670.77" type="curve" smooth="yes"/>
      <point x="50.0049" y="736.77" type="line" smooth="yes"/>
      <point x="50.002" y="736.846"/>
      <point x="50" y="736.923"/>
    </contour>
    <contour>
      <point x="140" y="740" type="curve" smooth="yes"/>
      <point x="140" y="742.76"/>
      <point x="142.24" y="745"/>
      <point x="145" y="745" type="curve" smooth="yes"/>
      <point x="147.683" y="745"/>
      <point x="149.874" y="742.883"/>
      <point x="149.995" y="740.23" type="curve" smooth="yes"/>
      <point x="152.995" y="674.23" type="line" smooth="yes"/>
      <point x="152.998" y="674.154"/>
      <point x="153" y="674.077"/>
      <point x="153" y="674" type="curve" smooth="yes"/>
      <point x="153" y="671.24"/>
      <point x="150.76" y="669"/>
      <point x="148" y="669" type="curve" smooth="yes"/>
      <point x="145.317" y="669"/>
      <point x="143.126" y="671.117"/>
      <point x="143.005" y="673.77" type="curve" smooth="yes"/>
      <point x="140.005" y="739.77" type="line" smooth="yes"/>
      <point x="140.002" y="739.846"/>
      <point x="140" y="739.923"/>
    </contour>
  </outline>
</glyph>
<glyph name="numbersign" format="2">
  <advance width="521"/>
  <unicode hex="0023"/>
  <outline>
    <contour>
      <point x="55.0" y="249.999023438" type="line" smooth="yes"/>
      <point x="52.240234375" y="249.999023438"/>
      <point x="50.0" y="252.240234375"/>
      <point x="50.0" y="255.0" type="curve" smooth="yes"/>
      <point x="50.0" y="257.72265625"/>
      <point x="52.1806640625" y="259.939453125"/>
      <point x="54.888671875" y="259.999023438" type="curve" smooth="yes"/>
      <point x="466.0" y="269.000976562" type="line" smooth="yes"/>
      <point x="468.759765625" y="269.000976562"/>
      <point x="471.0" y="266.759765625"/>
      <point x="471.0" y="264.0" type="curve" smooth="yes"/>
      <point x="471.0" y="261.27734375"/>
      <point x="468.819335938" y="259.060546875"/>
      <point x="466.111328125" y="259.000976562" type="curve" smooth="yes"/>
    </contour>
    <contour>
      <point x="55.0" y="449.999023438" type="line" smooth="yes"/>
      <point x="52.240234375" y="449.999023438"/>
      <point x="50.0" y="452.240234375"/>
      <point x="50.0" y="455.0" type="curve" smooth="yes"/>
      <point x="50.0" y="457.72265625"/>
      <point x="52.1806640625" y="459.939453125"/>
      <point x="54.888671875" y="459.999023438" type="curve" smooth="yes"/>
      <point x="466.0" y="469.000976562" type="line" smooth="yes"/>
      <point x="468.759765625" y="469.000976562"/>
      <point x="471.0" y="466.759765625"/>
      <point x="471.0" y="464.0" type="curve" smooth="yes"/>
      <point x="471.0" y="461.27734375"/>
      <point x="468.819335938" y="459.060546875"/>
      <point x="466.111328125" y="459.000976562" type="curve" smooth="yes"/>
    </contour>
    <contour>
      <point x="379.0" y="547.0" type="curve" smooth="yes"/>
      <point x="381.759765625" y="547.0"/>
      <point x="384.0" y="544.759765625"/>
      <point x="384.0" y="542.0" type="curve" smooth="yes"/>
      <point x="384.0" y="541.740234375"/>
      <point x="383.98046875" y="541.484375"/>
      <point x="383.94140625" y="541.234375" type="curve" smooth="yes"/>
      <point x="329.94140625" y="190.234375" type="line" smooth="yes"/>
      <point x="329.573242188" y="187.837890625"/>
      <point x="327.499023438" y="186.0"/>
      <point x="325.0" y="186.0" type="curve" smooth="yes"/>
      <point x="322.240234375" y="186.0"/>
      <point x="320.0" y="188.240234375"/>
      <point x="320.0" y="191.0" type="curve" smooth="yes"/>
      <point x="320.0" y="191.259765625"/>
      <point x="320.01953125" y="191.515625"/>
      <point x="320.05859375" y="191.765625" type="curve" smooth="yes"/>
      <point x="374.05859375" y="542.765625" type="line" smooth="yes"/>
      <point x="374.426757812" y="545.162109375"/>
      <point x="376.500976562" y="547.0"/>
    </contour>
    <contour>
      <point x="178.0" y="547.0" type="curve" smooth="yes"/>
      <point x="180.759765625" y="547.0"/>
      <point x="183.0" y="544.759765625"/>
      <point x="183.0" y="542.0" type="curve" smooth="yes"/>
      <point x="183.0" y="541.740234375"/>
      <point x="182.98046875" y="541.484375"/>
      <point x="182.94140625" y="541.234375" type="curve" smooth="yes"/>
      <point x="128.94140625" y="190.234375" type="line" smooth="yes"/>
      <point x="128.573242188" y="187.837890625"/>
      <point x="126.499023438" y="186.0"/>
      <point x="124.0" y="186.0" type="curve" smooth="yes"/>
      <point x="121.240234375" y="186.0"/>
      <point x="119.0" y="188.240234375"/>
      <point x="119.0" y="191.0" type="curve" smooth="yes"/>
      <point x="119.0" y="191.259765625"/>
      <point x="119.01953125" y="191.515625"/>
      <point x="119.05859375" y="191.765625" type="curve" smooth="yes"/>
      <point x="173.05859375" y="542.765625" type="line" smooth="yes"/>
      <point x="173.426757812" y="545.162109375"/>
      <point x="175.500976562" y="547.0"/>
    </contour>
  </outline>
</glyph>
<glyph name="dollar" format="2">
  <advance width="311"/>
  <unicode hex="0024"/>
  <outline>
    <contour>
      <point x="131" y="203" type="line" smooth="yes"/>
      <point x="131" y="205.76"/>
      <point x="133.24" y="208"/>
      <point x="136" y="208" type="curve" smooth="yes"/>
      <point x="138.76" y="208"/>
      <point x="141" y="205.76"/>
      <point x="141" y="203" type="curve" smooth="yes"/>
      <point x="141" y="-1" type="line" smooth="yes"/>
      <point x="141" y="-3.75977"/>
      <point x="138.76" y="-6"/>
      <point x="136" y="-6" type="curve" smooth="yes"/>
      <point x="133.24" y="-6"/>
      <point x="131" y="-3.75977"/>
      <point x="131" y="-1" type="curve" smooth="yes"/>
    </contour>
    <contour>
      <point x="164" y="803" type="line" smooth="yes"/>
      <point x="164" y="805.76"/>
      <point x="166.24" y="808"/>
      <point x="169" y="808" type="curve" smooth="yes"/>
      <point x="171.76" y="808"/>
      <point x="174" y="805.76"/>
      <point x="174" y="803" type="curve" smooth="yes"/>
      <point x="174" y="611" type="line" smooth="yes"/>
      <point x="174" y="608.24"/>
      <point x="171.76" y="606"/>
      <point x="169" y="606" type="curve" smooth="yes"/>
      <point x="166.24" y="606"/>
      <point x="164" y="608.24"/>
      <point x="164" y="611" type="curve" smooth="yes"/>
    </contour>
    <contour>
      <point x="231" y="635" type="curve" smooth="yes"/>
      <point x="231" y="632.24"/>
      <point x="228.76" y="630"/>
      <point x="226" y="630" type="curve" smooth="yes"/>
      <point x="225.125" y="630"/>
      <point x="224.302" y="630.226"/>
      <point x="223.585" y="630.621" type="curve" smooth="yes"/>
      <point x="211.479" y="637.316"/>
      <point x="201.139" y="647.916"/>
      <point x="191.647" y="657.531" type="curve" smooth="yes"/>
      <point x="183.144" y="666.145"/>
      <point x="175.283" y="673.886"/>
      <point x="168.433" y="677.673" type="curve"/>
      <point x="111.513" y="661.987"/>
      <point x="75.5273" y="604.155"/>
      <point x="75.5273" y="546.955" type="curve" smooth="yes"/>
      <point x="75.5273" y="531.779"/>
      <point x="78.0674" y="516.698"/>
      <point x="83.3848" y="502.542" type="curve"/>
      <point x="140.087" y="434.118"/>
      <point x="261.628" y="375.078"/>
      <point x="261.628" y="265.567" type="curve" smooth="yes"/>
      <point x="261.559" y="262.963"/>
      <point x="258.134" y="229.023"/>
      <point x="251.993" y="211.138" type="curve"/>
      <point x="251.346" y="160.971"/>
      <point x="206.947" y="136.621"/>
      <point x="166.93" y="129.086" type="curve" smooth="yes"/>
      <point x="157.548" y="127.32"/>
      <point x="149.417" y="126.476"/>
      <point x="142.15" y="126.476" type="curve" smooth="yes"/>
      <point x="114.804" y="126.476"/>
      <point x="100.864" y="138.94"/>
      <point x="83.1904" y="154.874" type="curve" smooth="yes"/>
      <point x="78.2393" y="159.338"/>
      <point x="72.9297" y="164.124"/>
      <point x="66.8291" y="169.135" type="curve" smooth="yes"/>
      <point x="66.0459" y="169.778"/>
      <point x="65.4609" y="170.656"/>
      <point x="65.1816" y="171.66" type="curve" smooth="yes"/>
      <point x="50.1816" y="225.66" type="line" smooth="yes"/>
      <point x="50.0635" y="226.087"/>
      <point x="50" y="226.536"/>
      <point x="50" y="227" type="curve" smooth="yes"/>
      <point x="50" y="229.76"/>
      <point x="52.2402" y="232"/>
      <point x="55" y="232" type="curve" smooth="yes"/>
      <point x="57.2959" y="232"/>
      <point x="59.2324" y="230.449"/>
      <point x="59.8184" y="228.34" type="curve" smooth="yes"/>
      <point x="74.3984" y="175.852" type="line"/>
      <point x="80.1953" y="171.037"/>
      <point x="85.2549" y="166.475"/>
      <point x="89.8828" y="162.303" type="curve" smooth="yes"/>
      <point x="107.77" y="146.176"/>
      <point x="118.415" y="136.476"/>
      <point x="142.15" y="136.476" type="curve" smooth="yes"/>
      <point x="148.623" y="136.476"/>
      <point x="156.149" y="137.234"/>
      <point x="165.07" y="138.914" type="curve" smooth="yes"/>
      <point x="203.782" y="146.202"/>
      <point x="241.867" y="168.583"/>
      <point x="242" y="212.016" type="curve" smooth="yes"/>
      <point x="242.002" y="212.585"/>
      <point x="242.099" y="213.132"/>
      <point x="242.276" y="213.642" type="curve" smooth="yes"/>
      <point x="248.771" y="232.313"/>
      <point x="251.628" y="249.534"/>
      <point x="251.628" y="265.567" type="curve" smooth="yes"/>
      <point x="251.628" y="368.508"/>
      <point x="130.541" y="429.426"/>
      <point x="75.1357" y="496.828" type="curve" smooth="yes"/>
      <point x="74.7979" y="497.24"/>
      <point x="74.5234" y="497.706"/>
      <point x="74.3291" y="498.212" type="curve" smooth="yes"/>
      <point x="68.3496" y="513.808"/>
      <point x="65.5273" y="530.357"/>
      <point x="65.5273" y="546.955" type="curve" smooth="yes"/>
      <point x="65.5273" y="608.557"/>
      <point x="104.504" y="671.538"/>
      <point x="167.75" y="687.842" type="curve" smooth="yes"/>
      <point x="168.149" y="687.945"/>
      <point x="168.568" y="688"/>
      <point x="169" y="688" type="curve" smooth="yes"/>
      <point x="169.762" y="688"/>
      <point x="170.484" y="687.829"/>
      <point x="171.131" y="687.524" type="curve" smooth="yes"/>
      <point x="180.889" y="682.916"/>
      <point x="189.646" y="673.79"/>
      <point x="198.763" y="664.555" type="curve" smooth="yes"/>
      <point x="208.267" y="654.928"/>
      <point x="218.117" y="645.074"/>
      <point x="228.415" y="639.379" type="curve" smooth="yes"/>
      <point x="229.956" y="638.526"/>
      <point x="231" y="636.884"/>
    </contour>
  </outline>
</glyph>
<glyph name="percent" format="2">
  <advance width="512"/>
  <unicode hex="0025"/>
  <outline>
    <contour>
      <point x="350" y="317" type="curve" smooth="yes"/>
      <point x="350" y="353.871"/>
      <point x="374.365" y="385"/>
      <point x="406" y="385" type="curve" smooth="yes"/>
      <point x="437.635" y="385"/>
      <point x="462" y="353.871"/>
      <point x="462" y="317" type="curve" smooth="yes"/>
      <point x="462" y="280.129"/>
      <point x="437.635" y="249"/>
      <point x="406" y="249" type="curve" smooth="yes"/>
      <point x="374.365" y="249"/>
      <point x="350" y="280.129"/>
    </contour>
    <contour>
      <point x="360" y="317" type="curve" smooth="yes"/>
      <point x="360" y="283.871"/>
      <point x="381.635" y="259"/>
      <point x="406" y="259" type="curve" smooth="yes"/>
      <point x="430.365" y="259"/>
      <point x="452" y="283.871"/>
      <point x="452" y="317" type="curve" smooth="yes"/>
      <point x="452" y="350.129"/>
      <point x="430.365" y="375"/>
      <point x="406" y="375" type="curve" smooth="yes"/>
      <point x="381.635" y="375"/>
      <point x="360" y="350.129"/>
    </contour>
    <contour>
      <point x="50" y="617" type="curve" smooth="yes"/>
      <point x="50" y="653.871"/>
      <point x="74.3652" y="685"/>
      <point x="106" y="685" type="curve" smooth="yes"/>
      <point x="137.635" y="685"/>
      <point x="162" y="653.871"/>
      <point x="162" y="617" type="curve" smooth="yes"/>
      <point x="162" y="580.129"/>
      <point x="137.635" y="549"/>
      <point x="106" y="549" type="curve" smooth="yes"/>
      <point x="74.3652" y="549"/>
      <point x="50" y="580.129"/>
    </contour>
    <contour>
      <point x="60" y="617" type="curve" smooth="yes"/>
      <point x="60" y="583.871"/>
      <point x="81.6348" y="559"/>
      <point x="106" y="559" type="curve" smooth="yes"/>
      <point x="130.365" y="559"/>
      <point x="152" y="583.871"/>
      <point x="152" y="617" type="curve" smooth="yes"/>
      <point x="152" y="650.129"/>
      <point x="130.365" y="675"/>
      <point x="106" y="675" type="curve" smooth="yes"/>
      <point x="81.6348" y="675"/>
      <point x="60" y="650.129"/>
    </contour>
    <contour>
      <point x="397" y="652" type="curve" smooth="yes"/>
      <point x="399.76" y="652"/>
      <point x="402" y="649.76"/>
      <point x="402" y="647" type="curve" smooth="yes"/>
      <point x="402" y="645.924"/>
      <point x="401.659" y="644.927"/>
      <point x="401.08" y="644.111" type="curve" smooth="yes"/>
      <point x="71.0801" y="179.111" type="line" smooth="yes"/>
      <point x="70.1738" y="177.834"/>
      <point x="68.6836" y="177"/>
      <point x="67" y="177" type="curve" smooth="yes"/>
      <point x="64.2402" y="177"/>
      <point x="62" y="179.24"/>
      <point x="62" y="182" type="curve" smooth="yes"/>
      <point x="62" y="183.076"/>
      <point x="62.3408" y="184.073"/>
      <point x="62.9199" y="184.889" type="curve" smooth="yes"/>
      <point x="392.92" y="649.889" type="line" smooth="yes"/>
      <point x="393.826" y="651.166"/>
      <point x="395.316" y="652"/>
    </contour>
  </outline>
</glyph>
<glyph name="ampersand" format="2">
  <advance width="389"/>
  <unicode hex="0026"/>
  <outline>
    <contour>
      <point x="258.817" y="546.604" type="curve" smooth="yes"/>
      <point x="258.817" y="468.355"/>
      <point x="202.294" y="420.681"/>
      <point x="151.897" y="374.041" type="curve"/>
      <point x="174.095" y="324.354"/>
      <point x="193.282" y="261.856"/>
      <point x="221.141" y="220.803" type="curve" smooth="yes"/>
      <point x="274.834" y="141.675" type="line"/>
      <point x="278.699" y="146.608"/>
      <point x="282.46" y="151.888"/>
      <point x="286.081" y="157.438" type="curve" smooth="yes"/>
      <point x="311.604" y="196.551"/>
      <point x="329" y="247.002"/>
      <point x="329" y="272" type="curve" smooth="yes"/>
      <point x="329" y="274.76"/>
      <point x="331.24" y="277"/>
      <point x="334" y="277" type="curve" smooth="yes"/>
      <point x="336.76" y="277"/>
      <point x="339" y="274.76"/>
      <point x="339" y="272" type="curve" smooth="yes"/>
      <point x="339" y="243.506"/>
      <point x="320.896" y="192.493"/>
      <point x="294.462" y="151.982" type="curve" smooth="yes"/>
      <point x="290.138" y="145.355"/>
      <point x="285.557" y="138.95"/>
      <point x="280.749" y="132.959" type="curve"/>
      <point x="323.492" y="69.9697" type="line" smooth="yes"/>
      <point x="324.034" y="69.1699"/>
      <point x="324.352" y="68.2051"/>
      <point x="324.352" y="67.167" type="curve" smooth="yes"/>
      <point x="324.352" y="64.4072"/>
      <point x="322.111" y="62.167"/>
      <point x="319.352" y="62.167" type="curve" smooth="yes"/>
      <point x="317.63" y="62.167"/>
      <point x="316.111" y="63.0391"/>
      <point x="315.211" y="64.3643" type="curve" smooth="yes"/>
      <point x="274.037" y="125.042" type="line"/>
      <point x="257.071" y="106.151"/>
      <point x="237.665" y="93"/>
      <point x="217" y="93" type="curve" smooth="yes"/>
      <point x="174.413" y="93"/>
      <point x="137.079" y="95.6855"/>
      <point x="108.182" y="108.341" type="curve" smooth="yes"/>
      <point x="71.582" y="124.369"/>
      <point x="50" y="156.534"/>
      <point x="50" y="215" type="curve" smooth="yes"/>
      <point x="50" y="287.355"/>
      <point x="93.9893" y="333.777"/>
      <point x="139.8" y="376.459" type="curve"/>
      <point x="136.18" y="384.266"/>
      <point x="132.474" y="391.683"/>
      <point x="128.631" y="398.568" type="curve" smooth="yes"/>
      <point x="112.634" y="427.231"/>
      <point x="117.692" y="459.315"/>
      <point x="104.434" y="488.963" type="curve" smooth="yes"/>
      <point x="104.155" y="489.585"/>
      <point x="104" y="490.274"/>
      <point x="104" y="491" type="curve" smooth="yes"/>
      <point x="104" y="644" type="line" smooth="yes"/>
      <point x="104" y="644.642"/>
      <point x="104.121" y="645.256"/>
      <point x="104.342" y="645.819" type="curve" smooth="yes"/>
      <point x="131.342" y="714.819" type="line" smooth="yes"/>
      <point x="131.76" y="715.887"/>
      <point x="132.534" y="716.776"/>
      <point x="133.518" y="717.341" type="curve" smooth="yes"/>
      <point x="141.374" y="721.846"/>
      <point x="146.562" y="727.423"/>
      <point x="152.038" y="733.35" type="curve" smooth="yes"/>
      <point x="162.714" y="744.906"/>
      <point x="174.537" y="757"/>
      <point x="205" y="757" type="curve" smooth="yes"/>
      <point x="229.475" y="757"/>
      <point x="241.688" y="732.857"/>
      <point x="248.202" y="705.404" type="curve" smooth="yes"/>
      <point x="256.556" y="670.2"/>
      <point x="256.894" y="624.354"/>
      <point x="257.173" y="592.942" type="curve" smooth="yes"/>
      <point x="257.288" y="579.936"/>
      <point x="257.401" y="569.345"/>
      <point x="257.976" y="563.493" type="curve" smooth="yes"/>
      <point x="258.543" y="557.715"/>
      <point x="258.817" y="552.088"/>
    </contour>
    <contour>
      <point x="205" y="747" type="curve" smooth="yes"/>
      <point x="177.609" y="747"/>
      <point x="169.76" y="737.8"/>
      <point x="159.384" y="726.567" type="curve" smooth="yes"/>
      <point x="154.241" y="721.001"/>
      <point x="148.511" y="714.765"/>
      <point x="140.03" y="709.577" type="curve"/>
      <point x="114" y="643.055" type="line"/>
      <point x="114" y="492.055" type="line"/>
      <point x="126.771" y="462.631"/>
      <point x="122.445" y="430.172"/>
      <point x="137.369" y="403.432" type="curve" smooth="yes"/>
      <point x="140.87" y="397.158"/>
      <point x="144.236" y="390.518"/>
      <point x="147.508" y="383.601" type="curve"/>
      <point x="197.707" y="429.916"/>
      <point x="248.817" y="474.848"/>
      <point x="248.817" y="546.604" type="curve" smooth="yes"/>
      <point x="248.817" y="551.747"/>
      <point x="248.561" y="557.044"/>
      <point x="248.024" y="562.507" type="curve" smooth="yes"/>
      <point x="247.363" y="569.242"/>
      <point x="247.289" y="579.8"/>
      <point x="247.173" y="592.852" type="curve" smooth="yes"/>
      <point x="246.895" y="624.198"/>
      <point x="246.421" y="669.591"/>
      <point x="238.472" y="703.091" type="curve" smooth="yes"/>
      <point x="231.943" y="730.602"/>
      <point x="221.199" y="747"/>
    </contour>
    <contour>
      <point x="60" y="215" type="curve" smooth="yes"/>
      <point x="60" y="159.166"/>
      <point x="79.5273" y="131.809"/>
      <point x="112.186" y="117.506" type="curve" smooth="yes"/>
      <point x="138.695" y="105.896"/>
      <point x="174.784" y="103"/>
      <point x="217" y="103" type="curve" smooth="yes"/>
      <point x="233.922" y="103"/>
      <point x="251.785" y="115.01"/>
      <point x="268.188" y="133.66" type="curve"/>
      <point x="212.859" y="215.197" type="line" smooth="yes"/>
      <point x="184.418" y="257.111"/>
      <point x="166.064" y="316.942"/>
      <point x="144.145" y="366.824" type="curve"/>
      <point x="99.5479" y="325.005"/>
      <point x="60" y="281.57"/>
    </contour>
  </outline>
</glyph>
<glyph name="quotesingle" format="2">
  <advance width="113"/>
  <unicode hex="0027"/>
  <outline>
    <contour>
      <point x="58.0039" y="733" type="curve" smooth="yes"/>
      <point x="60.7627" y="733"/>
      <point x="63.0801" y="730.759"/>
      <point x="63.0059" y="728" type="curve" smooth="yes"/>
      <point x="60.002" y="616.862" type="line" smooth="yes"/>
      <point x="59.9287" y="614.166"/>
      <point x="57.7168" y="612"/>
      <point x="55.0039" y="612" type="curve" smooth="yes"/>
      <point x="52.2441" y="612"/>
      <point x="49.9268" y="614.241"/>
      <point x="50.002" y="617" type="curve" smooth="yes"/>
      <point x="53.0059" y="728.138" type="line" smooth="yes"/>
      <point x="53.0781" y="730.834"/>
      <point x="55.29" y="733"/>
    </contour>
  </outline>
</glyph>
<glyph name="parenleft" format="2">
  <advance width="164"/>
  <unicode hex="0028"/>
  <outline>
    <contour>
      <point x="109.0" y="-44.0" type="curve" smooth="yes"/>
      <point x="111.759765625" y="-44.0"/>
      <point x="114.0" y="-46.240234375"/>
      <point x="114.0" y="-49.0" type="curve" smooth="yes"/>
      <point x="114.0" y="-51.759765625"/>
      <point x="111.759765625" y="-54.0"/>
      <point x="109.0" y="-54.0" type="curve" smooth="yes"/>
      <point x="98.1728515625" y="-54.0"/>
      <point x="92.373046875" y="-40.7392578125"/>
      <point x="87.298828125" y="-24.8447265625" type="curve" smooth="yes"/>
      <point x="80.4697265625" y="-3.4501953125"/>
      <point x="74.4072265625" y="29.494140625"/>
      <point x="69.173828125" y="71.7294921875" type="curve" smooth="yes"/>
      <point x="57.404296875" y="166.708984375"/>
      <point x="50.0" y="308.499023438"/>
      <point x="50.0" y="467.0" type="curve" smooth="yes"/>
      <point x="50.0" y="625.500976562"/>
      <point x="57.404296875" y="767.291015625"/>
      <point x="69.173828125" y="862.270507812" type="curve" smooth="yes"/>
      <point x="74.4072265625" y="904.505859375"/>
      <point x="80.4697265625" y="937.450195312"/>
      <point x="87.298828125" y="958.844726562" type="curve" smooth="yes"/>
      <point x="92.373046875" y="974.739257812"/>
      <point x="98.1728515625" y="988.0"/>
      <point x="109.0" y="988.0" type="curve" smooth="yes"/>
      <point x="111.759765625" y="988.0"/>
      <point x="114.0" y="985.759765625"/>
      <point x="114.0" y="983.0" type="curve" smooth="yes"/>
      <point x="114.0" y="980.240234375"/>
      <point x="111.759765625" y="978.0"/>
      <point x="109.0" y="978.0" type="curve" smooth="yes"/>
      <point x="107.975585938" y="978.0"/>
      <point x="102.391601562" y="973.234375"/>
      <point x="96.8271484375" y="955.8046875" type="curve" smooth="yes"/>
      <point x="90.359375" y="935.541992188"/>
      <point x="84.2890625" y="902.928710938"/>
      <point x="79.09765625" y="861.030273438" type="curve" smooth="yes"/>
      <point x="67.41015625" y="766.708984375"/>
      <point x="60.0" y="625.166015625"/>
      <point x="60.0" y="467.0" type="curve" smooth="yes"/>
      <point x="60.0" y="308.833984375"/>
      <point x="67.41015625" y="167.291015625"/>
      <point x="79.09765625" y="72.9697265625" type="curve" smooth="yes"/>
      <point x="84.2890625" y="31.0712890625"/>
      <point x="90.359375" y="-1.5419921875"/>
      <point x="96.8271484375" y="-21.8046875" type="curve" smooth="yes"/>
      <point x="102.391601562" y="-39.234375"/>
      <point x="107.975585938" y="-44.0"/>
    </contour>
  </outline>
</glyph>
<glyph name="parenright" format="2">
  <advance width="164"/>
  <unicode hex="0029"/>
  <outline>
    <contour>
      <point x="55.0" y="-54.0" type="curve" smooth="yes"/>
      <point x="52.240234375" y="-54.0"/>
      <point x="50.0" y="-51.759765625"/>
      <point x="50.0" y="-49.0" type="curve" smooth="yes"/>
      <point x="50.0" y="-46.240234375"/>
      <point x="52.240234375" y="-44.0"/>
      <point x="55.0" y="-44.0" type="curve" smooth="yes"/>
      <point x="56.0244140625" y="-44.0"/>
      <point x="61.6083984375" y="-39.234375"/>
      <point x="67.1728515625" y="-21.8046875" type="curve" smooth="yes"/>
      <point x="73.640625" y="-1.5419921875"/>
      <point x="79.7109375" y="31.0712890625"/>
      <point x="84.90234375" y="72.9697265625" type="curve" smooth="yes"/>
      <point x="96.58984375" y="167.291015625"/>
      <point x="104.0" y="308.833984375"/>
      <point x="104.0" y="467.0" type="curve" smooth="yes"/>
      <point x="104.0" y="625.166015625"/>
      <point x="96.58984375" y="766.708984375"/>
      <point x="84.90234375" y="861.030273438" type="curve" smooth="yes"/>
      <point x="79.7109375" y="902.928710938"/>
      <point x="73.640625" y="935.541992188"/>
      <point x="67.1728515625" y="955.8046875" type="curve" smooth="yes"/>
      <point x="61.6083984375" y="973.234375"/>
      <point x="56.0244140625" y="978.0"/>
      <point x="55.0" y="978.0" type="curve" smooth="yes"/>
      <point x="52.240234375" y="978.0"/>
      <point x="50.0" y="980.240234375"/>
      <point x="50.0" y="983.0" type="curve" smooth="yes"/>
      <point x="50.0" y="985.759765625"/>
      <point x="52.240234375" y="988.0"/>
      <point x="55.0" y="988.0" type="curve" smooth="yes"/>
      <point x="65.8271484375" y="988.0"/>
      <point x="71.626953125" y="974.739257812"/>
      <point x="76.701171875" y="958.844726562" type="curve" smooth="yes"/>
      <point x="83.5302734375" y="937.450195312"/>
      <point x="89.5927734375" y="904.505859375"/>
      <point x="94.826171875" y="862.270507812" type="curve" smooth="yes"/>
      <point x="106.595703125" y="767.291015625"/>
      <point x="114.0" y="625.500976562"/>
      <point x="114.0" y="467.0" type="curve" smooth="yes"/>
      <point x="114.0" y="308.499023438"/>
      <point x="106.595703125" y="166.708984375"/>
      <point x="94.826171875" y="71.7294921875" type="curve" smooth="yes"/>
      <point x="89.5927734375" y="29.494140625"/>
      <point x="83.5302734375" y="-3.4501953125"/>
      <point x="76.701171875" y="-24.8447265625" type="curve" smooth="yes"/>
      <point x="71.626953125" y="-40.7392578125"/>
      <point x="65.8271484375" y="-54.0"/>
    </contour>
  </outline>
</glyph>
<glyph name="asterisk" format="2">
  <advance width="341"/>
  <unicode hex="002A"/>
  <outline>
    <contour>
      <point x="284" y="573" type="curve" smooth="yes"/>
      <point x="286.76" y="573"/>
      <point x="289" y="570.76"/>
      <point x="289" y="568" type="curve" smooth="yes"/>
      <point x="289" y="566.64"/>
      <point x="288.456" y="565.406"/>
      <point x="287.573" y="564.504" type="curve" smooth="yes"/>
      <point x="60.5732" y="332.504" type="line" smooth="yes"/>
      <point x="59.665" y="331.576"/>
      <point x="58.3994" y="331"/>
      <point x="57" y="331" type="curve" smooth="yes"/>
      <point x="54.2402" y="331"/>
      <point x="52" y="333.24"/>
      <point x="52" y="336" type="curve" smooth="yes"/>
      <point x="52" y="337.36"/>
      <point x="52.5439" y="338.594"/>
      <point x="53.4268" y="339.496" type="curve" smooth="yes"/>
      <point x="280.427" y="571.496" type="line" smooth="yes"/>
      <point x="281.335" y="572.424"/>
      <point x="282.601" y="573"/>
    </contour>
    <contour>
      <point x="50" y="565" type="curve" smooth="yes"/>
      <point x="50" y="567.76"/>
      <point x="52.2402" y="570"/>
      <point x="55" y="570" type="curve" smooth="yes"/>
      <point x="56.3604" y="570"/>
      <point x="57.5938" y="569.456"/>
      <point x="58.4961" y="568.573" type="curve" smooth="yes"/>
      <point x="289.496" y="342.573" type="line" smooth="yes"/>
      <point x="290.424" y="341.666"/>
      <point x="291" y="340.399"/>
      <point x="291" y="339" type="curve" smooth="yes"/>
      <point x="291" y="336.24"/>
      <point x="288.76" y="334"/>
      <point x="286" y="334" type="curve" smooth="yes"/>
      <point x="284.64" y="334"/>
      <point x="283.406" y="334.544"/>
      <point x="282.504" y="335.427" type="curve" smooth="yes"/>
      <point x="51.5039" y="561.427" type="line" smooth="yes"/>
      <point x="50.5762" y="562.334"/>
      <point x="50" y="563.601"/>
    </contour>
    <contour>
      <point x="169" y="619" type="curve" smooth="yes"/>
      <point x="171.744" y="619"/>
      <point x="173.975" y="616.785"/>
      <point x="174" y="614.047" type="curve" smooth="yes"/>
      <point x="177" y="290" type="line" smooth="yes"/>
      <point x="177" y="287.24"/>
      <point x="174.76" y="285"/>
      <point x="172" y="285" type="curve" smooth="yes"/>
      <point x="169.256" y="285"/>
      <point x="167.025" y="287.215"/>
      <point x="167" y="289.953" type="curve" smooth="yes"/>
      <point x="164" y="613.953" type="line" smooth="yes"/>
      <point x="164" y="616.76"/>
      <point x="166.24" y="619"/>
    </contour>
  </outline>
</glyph>
<glyph name="plus" format="2">
  <advance width="389"/>
  <unicode hex="002B"/>
  <outline>
    <contour>
      <point x="181" y="554" type="line" smooth="yes"/>
      <point x="181" y="556.76"/>
      <point x="183.24" y="559"/>
      <point x="186" y="559" type="curve" smooth="yes"/>
      <point x="188.76" y="559"/>
      <point x="191" y="556.76"/>
      <point x="191" y="554" type="curve" smooth="yes"/>
      <point x="191" y="273" type="line" smooth="yes"/>
      <point x="191" y="270.24"/>
      <point x="188.76" y="268"/>
      <point x="186" y="268" type="curve" smooth="yes"/>
      <point x="183.24" y="268"/>
      <point x="181" y="270.24"/>
      <point x="181" y="273" type="curve" smooth="yes"/>
    </contour>
    <contour>
      <point x="55" y="406" type="line" smooth="yes"/>
      <point x="52.2402" y="406"/>
      <point x="50" y="408.24"/>
      <point x="50" y="411" type="curve" smooth="yes"/>
      <point x="50" y="413.76"/>
      <point x="52.2402" y="416"/>
      <point x="55" y="416" type="curve" smooth="yes"/>
      <point x="334" y="416" type="line" smooth="yes"/>
      <point x="336.76" y="416"/>
      <point x="339" y="413.76"/>
      <point x="339" y="411" type="curve" smooth="yes"/>
      <point x="339" y="408.24"/>
      <point x="336.76" y="406"/>
      <point x="334" y="406" type="curve" smooth="yes"/>
    </contour>
  </outline>
</glyph>
<glyph name="comma" format="2">
  <advance width="146"/>
  <unicode hex="002C"/>
  <outline>
    <contour>
      <point x="86.0" y="-7.0" type="curve" smooth="yes"/>
      <point x="86.0" y="6.46484375"/>
      <point x="77.0" y="23.486328125"/>
      <point x="77.0" y="26.0" type="curve" smooth="yes"/>
      <point x="77.0" y="28.759765625"/>
      <point x="79.240234375" y="31.0"/>
      <point x="82.0" y="31.0" type="curve" smooth="yes"/>
      <point x="84.0302734375" y="31.0"/>
      <point x="85.779296875" y="29.787109375"/>
      <point x="86.5625" y="28.0478515625" type="curve" smooth="yes"/>
      <point x="86.6474609375" y="27.859375"/>
      <point x="96.0" y="7.853515625"/>
      <point x="96.0" y="-7.0" type="curve" smooth="yes"/>
      <point x="96.0" y="-20.53125"/>
      <point x="88.09765625" y="-33.8232421875"/>
      <point x="79.966796875" y="-44.4951171875" type="curve" smooth="yes"/>
      <point x="69.7236328125" y="-57.939453125"/>
      <point x="58.41015625" y="-67.6611328125"/>
      <point x="58.259765625" y="-67.7900390625" type="curve" smooth="yes"/>
      <point x="57.384765625" y="-68.5439453125"/>
      <point x="56.2451171875" y="-69.0"/>
      <point x="55.0" y="-69.0" type="curve" smooth="yes"/>
      <point x="52.240234375" y="-69.0"/>
      <point x="50.0" y="-66.759765625"/>
      <point x="50.0" y="-64.0" type="curve" smooth="yes"/>
      <point x="50.0" y="-62.4853515625"/>
      <point x="50.6748046875" y="-61.126953125"/>
      <point x="51.740234375" y="-60.2099609375" type="curve" smooth="yes"/>
      <point x="51.89453125" y="-60.0771484375"/>
      <point x="86.0" y="-29.4111328125"/>
    </contour>
  </outline>
</glyph>
<glyph name="hyphen" format="2">
  <advance width="458"/>
  <unicode hex="002D"/>
  <outline>
    <contour>
      <point x="55" y="406" type="line" smooth="yes"/>
      <point x="52.2402" y="406"/>
      <point x="50" y="408.24"/>
      <point x="50" y="411" type="curve" smooth="yes"/>
      <point x="50" y="413.76"/>
      <point x="52.2402" y="416"/>
      <point x="55" y="416" type="curve" smooth="yes"/>
      <point x="403" y="416" type="line" smooth="yes"/>
      <point x="405.76" y="416"/>
      <point x="408" y="413.76"/>
      <point x="408" y="411" type="curve" smooth="yes"/>
      <point x="408" y="408.24"/>
      <point x="405.76" y="406"/>
      <point x="403" y="406" type="curve" smooth="yes"/>
    </contour>
  </outline>
</glyph>
<glyph name="period" format="2">
  <advance width="110"/>
  <unicode hex="002E"/>
  <outline>
    <contour>
      <point x="50" y="29" type="curve" smooth="yes"/>
      <point x="50" y="31.7598"/>
      <point x="52.2402" y="34"/>
      <point x="55" y="34" type="curve" smooth="yes"/>
      <point x="57.7598" y="34"/>
      <point x="60" y="31.7598"/>
      <point x="60" y="29" type="curve" smooth="yes"/>
      <point x="60" y="26.2402"/>
      <point x="57.7598" y="24"/>
      <point x="55" y="24" type="curve" smooth="yes"/>
      <point x="52.2402" y="24"/>
      <point x="50" y="26.2402"/>
    </contour>
  </outline>
</glyph>
<glyph name="zero" format="2">
  <advance width="254"/>
  <unicode hex="0030"/>
  <outline>
    <contour>
      <point x="50" y="205" type="curve" smooth="yes"/>
      <point x="50" y="279.611"/>
      <point x="64.1377" y="344.936"/>
      <point x="86.2871" y="381.158" type="curve" smooth="yes"/>
      <point x="97.2861" y="399.147"/>
      <point x="110.962" y="411"/>
      <point x="127" y="411" type="curve" smooth="yes"/>
      <point x="143.038" y="411"/>
      <point x="156.714" y="399.147"/>
      <point x="167.713" y="381.158" type="curve" smooth="yes"/>
      <point x="189.862" y="344.936"/>
      <point x="204" y="279.611"/>
      <point x="204" y="205" type="curve" smooth="yes"/>
      <point x="204" y="130.389"/>
      <point x="189.862" y="65.0645"/>
      <point x="167.713" y="28.8418" type="curve" smooth="yes"/>
      <point x="156.714" y="10.8525"/>
      <point x="143.038" y="-1"/>
      <point x="127" y="-1" type="curve" smooth="yes"/>
      <point x="110.962" y="-1"/>
      <point x="97.2861" y="10.8525"/>
      <point x="86.2871" y="28.8418" type="curve" smooth="yes"/>
      <point x="64.1377" y="65.0645"/>
      <point x="50" y="130.389"/>
    </contour>
    <contour>
      <point x="60" y="205" type="curve" smooth="yes"/>
      <point x="60" y="143.872"/>
      <point x="69.8623" y="89.2002"/>
      <point x="85.1201" y="53.2246" type="curve" smooth="yes"/>
      <point x="97.5283" y="23.9658"/>
      <point x="112.798" y="9"/>
      <point x="127" y="9" type="curve" smooth="yes"/>
      <point x="141.202" y="9"/>
      <point x="156.472" y="23.9658"/>
      <point x="168.88" y="53.2246" type="curve" smooth="yes"/>
      <point x="184.138" y="89.2002"/>
      <point x="194" y="143.872"/>
      <point x="194" y="205" type="curve" smooth="yes"/>
      <point x="194" y="266.128"/>
      <point x="184.138" y="320.8"/>
      <point x="168.88" y="356.775" type="curve" smooth="yes"/>
      <point x="156.472" y="386.034"/>
      <point x="141.202" y="401"/>
      <point x="127" y="401" type="curve" smooth="yes"/>
      <point x="112.798" y="401"/>
      <point x="97.5283" y="386.034"/>
      <point x="85.1201" y="356.775" type="curve" smooth="yes"/>
      <point x="69.8623" y="320.8"/>
      <point x="60" y="266.128"/>
    </contour>
  </outline>
</glyph>
<glyph name="one" format="2">
  <advance width="269"/>
  <unicode hex="0031"/>
  <outline>
    <contour>
      <point x="72" y="344" type="curve" smooth="yes"/>
      <point x="73.3652" y="344"/>
      <point x="74.6035" y="344.549"/>
      <point x="75.5059" y="345.437" type="curve" smooth="yes"/>
      <point x="130" y="399.065" type="line"/>
      <point x="130" y="0" type="line" smooth="yes"/>
      <point x="130" y="-2.75977"/>
      <point x="132.24" y="-5"/>
      <point x="135" y="-5" type="curve" smooth="yes"/>
      <point x="137.76" y="-5"/>
      <point x="140" y="-2.75977"/>
      <point x="140" y="0" type="curve" smooth="yes"/>
      <point x="140" y="411" type="line" smooth="yes"/>
      <point x="140" y="413.76"/>
      <point x="137.76" y="416"/>
      <point x="135" y="416" type="curve" smooth="yes"/>
      <point x="133.635" y="416"/>
      <point x="132.396" y="415.451"/>
      <point x="131.494" y="414.563" type="curve" smooth="yes"/>
      <point x="68.4941" y="352.563" type="line" smooth="yes"/>
      <point x="67.5723" y="351.656"/>
      <point x="67" y="350.395"/>
      <point x="67" y="349" type="curve" smooth="yes"/>
      <point x="67" y="346.24"/>
      <point x="69.2402" y="344"/>
    </contour>
    <contour>
      <point x="55" y="-5" type="line" smooth="yes"/>
      <point x="52.2402" y="-5"/>
      <point x="50" y="-2.75977"/>
      <point x="50" y="0" type="curve" smooth="yes"/>
      <point x="50" y="2.75977"/>
      <point x="52.2402" y="5"/>
      <point x="55" y="5" type="curve" smooth="yes"/>
      <point x="214" y="5" type="line" smooth="yes"/>
      <point x="216.76" y="5"/>
      <point x="219" y="2.75977"/>
      <point x="219" y="0" type="curve" smooth="yes"/>
      <point x="219" y="-2.75977"/>
      <point x="216.76" y="-5"/>
      <point x="214" y="-5" type="curve" smooth="yes"/>
    </contour>
  </outline>
</glyph>
<glyph name="two" format="2">
  <advance width="365"/>
  <unicode hex="0032"/>
  <outline>
    <contour>
      <point x="315.0" y="0.0" type="curve" smooth="yes"/>
      <point x="315.0" y="-2.759765625"/>
      <point x="312.759765625" y="-5.0"/>
      <point x="310.0" y="-5.0" type="curve" smooth="yes"/>
      <point x="55.0" y="-5.0" type="line" smooth="yes"/>
      <point x="52.240234375" y="-5.0"/>
      <point x="50.0" y="-2.759765625"/>
      <point x="50.0" y="0.0" type="curve" smooth="yes"/>
      <point x="50.0" y="1.4990234375"/>
      <point x="50.6611328125" y="2.8447265625"/>
      <point x="51.70703125" y="3.7607421875" type="curve" smooth="yes"/>
      <point x="83.4296875" y="31.5634765625"/>
      <point x="112.858398438" y="52.53125"/>
      <point x="140.516601562" y="72.2412109375" type="curve" smooth="yes"/>
      <point x="191.024414062" y="108.235351562"/>
      <point x="235.493164062" y="139.942382812"/>
      <point x="278.934570312" y="201.91015625" type="curve" smooth="yes"/>
      <point x="297.500976562" y="227.790039062"/>
      <point x="305.466796875" y="252.940429688"/>
      <point x="305.466796875" y="279.548828125" type="curve" smooth="yes"/>
      <point x="305.466796875" y="298.97265625"/>
      <point x="301.181640625" y="319.306640625"/>
      <point x="293.302734375" y="341.284179688" type="curve" smooth="yes"/>
      <point x="279.247070312" y="379.703125"/>
      <point x="251.372070312" y="406.09765625"/>
      <point x="212.259765625" y="406.09765625" type="curve" smooth="yes"/>
      <point x="167.810546875" y="406.09765625"/>
      <point x="142.372070312" y="387.080078125"/>
      <point x="112.163085938" y="364.8515625" type="curve" smooth="yes"/>
      <point x="96.1396484375" y="353.061523438"/>
      <point x="78.8955078125" y="340.357421875"/>
      <point x="57.2314453125" y="329.525390625" type="curve" smooth="yes"/>
      <point x="56.5595703125" y="329.189453125"/>
      <point x="55.8017578125" y="329.0"/>
      <point x="55.0" y="329.0" type="curve" smooth="yes"/>
      <point x="52.240234375" y="329.0"/>
      <point x="50.0" y="331.240234375"/>
      <point x="50.0" y="334.0" type="curve" smooth="yes"/>
      <point x="50.0" y="335.958007812"/>
      <point x="51.1279296875" y="337.654296875"/>
      <point x="52.7685546875" y="338.474609375" type="curve" smooth="yes"/>
      <point x="73.53125" y="348.856445312"/>
      <point x="90.2138671875" y="361.115234375"/>
      <point x="106.24609375" y="372.911132812" type="curve" smooth="yes"/>
      <point x="136.333007812" y="395.05078125"/>
      <point x="164.569335938" y="416.09765625"/>
      <point x="212.259765625" y="416.09765625" type="curve" smooth="yes"/>
      <point x="256.634765625" y="416.09765625"/>
      <point x="287.73046875" y="385.625"/>
      <point x="302.697265625" y="344.715820312" type="curve" smooth="yes"/>
      <point x="310.841796875" y="321.998046875"/>
      <point x="315.466796875" y="300.48046875"/>
      <point x="315.466796875" y="279.548828125" type="curve" smooth="yes"/>
      <point x="315.466796875" y="250.8046875"/>
      <point x="306.669921875" y="223.416992188"/>
      <point x="287.065429688" y="196.08984375" type="curve" smooth="yes"/>
      <point x="242.6484375" y="132.731445312"/>
      <point x="196.755859375" y="100.041992188"/>
      <point x="146.310546875" y="64.091796875" type="curve" smooth="yes"/>
      <point x="121.673828125" y="46.53515625"/>
      <point x="95.919921875" y="28.177734375"/>
      <point x="68.4765625" y="5.0" type="curve"/>
      <point x="310.0" y="5.0" type="line" smooth="yes"/>
      <point x="312.759765625" y="5.0"/>
      <point x="315.0" y="2.759765625"/>
    </contour>
  </outline>
</glyph>
<glyph name="three" format="2">
  <advance width="438"/>
  <unicode hex="0033"/>
  <outline>
    <contour>
      <point x="388.369" y="-78.7285" type="curve" smooth="yes"/>
      <point x="388.369" y="-95.8584"/>
      <point x="384.979" y="-113.52"/>
      <point x="377.645" y="-131.854" type="curve" smooth="yes"/>
      <point x="356.155" y="-185.577"/>
      <point x="299.413" y="-195.021"/>
      <point x="243.647" y="-195.021" type="curve" smooth="yes"/>
      <point x="193.969" y="-195.021"/>
      <point x="159.563" y="-180.887"/>
      <point x="122.296" y="-165.584" type="curve" smooth="yes"/>
      <point x="101.514" y="-157.051"/>
      <point x="79.7725" y="-148.13"/>
      <point x="53.6504" y="-140.815" type="curve" smooth="yes"/>
      <point x="51.5459" y="-140.227"/>
      <point x="50" y="-138.292"/>
      <point x="50" y="-136" type="curve" smooth="yes"/>
      <point x="50" y="-133.24"/>
      <point x="52.2402" y="-131"/>
      <point x="55" y="-131" type="curve" smooth="yes"/>
      <point x="55.4678" y="-131"/>
      <point x="55.9199" y="-131.064"/>
      <point x="56.3496" y="-131.185" type="curve" smooth="yes"/>
      <point x="83.1143" y="-138.679"/>
      <point x="105.311" y="-147.798"/>
      <point x="126.088" y="-156.329" type="curve" smooth="yes"/>
      <point x="163.435" y="-171.664"/>
      <point x="195.986" y="-185.021"/>
      <point x="243.647" y="-185.021" type="curve" smooth="yes"/>
      <point x="299.214" y="-185.021"/>
      <point x="349.477" y="-175.345"/>
      <point x="368.355" y="-128.146" type="curve" smooth="yes"/>
      <point x="375.266" y="-110.872"/>
      <point x="378.369" y="-94.5088"/>
      <point x="378.369" y="-78.7285" type="curve" smooth="yes"/>
      <point x="378.369" y="-41.374"/>
      <point x="360.881" y="-6.54883"/>
      <point x="333.063" y="28.918" type="curve" smooth="yes"/>
      <point x="293.135" y="79.1514"/>
      <point x="252.249" y="101.393"/>
      <point x="205.155" y="127.03" type="curve" smooth="yes"/>
      <point x="180.29" y="140.566"/>
      <point x="153.765" y="155.002"/>
      <point x="125.151" y="174.892" type="curve" smooth="yes"/>
      <point x="123.852" y="175.795"/>
      <point x="123" y="177.299"/>
      <point x="123" y="179" type="curve" smooth="yes"/>
      <point x="123" y="180.315"/>
      <point x="123.509" y="181.513"/>
      <point x="124.34" y="182.405" type="curve" smooth="yes"/>
      <point x="332.515" y="406" type="line"/>
      <point x="56" y="406" type="line" smooth="yes"/>
      <point x="53.2402" y="406"/>
      <point x="51" y="408.24"/>
      <point x="51" y="411" type="curve" smooth="yes"/>
      <point x="51" y="413.76"/>
      <point x="53.2402" y="416"/>
      <point x="56" y="416" type="curve" smooth="yes"/>
      <point x="344" y="416" type="line" smooth="yes"/>
      <point x="346.76" y="416"/>
      <point x="349" y="413.76"/>
      <point x="349" y="411" type="curve" smooth="yes"/>
      <point x="349" y="409.685"/>
      <point x="348.491" y="408.487"/>
      <point x="347.66" y="407.595" type="curve" smooth="yes"/>
      <point x="135.609" y="179.837" type="line"/>
      <point x="212.48" y="127.595"/>
      <point x="278.91" y="113.115"/>
      <point x="340.937" y="35.082" type="curve" smooth="yes"/>
      <point x="369.38" y="-1.18359"/>
      <point x="388.369" y="-38.0898"/>
    </contour>
  </outline>
</glyph>
<glyph name="four" format="2">
  <advance width="430"/>
  <unicode hex="0034"/>
  <outline>
    <contour>
      <point x="271.0" y="416.0" type="curve" smooth="yes"/>
      <point x="273.759765625" y="416.0"/>
      <point x="276.0" y="413.759765625"/>
      <point x="276.0" y="411.0" type="curve" smooth="yes"/>
      <point x="276.0" y="410.162109375"/>
      <point x="275.793945312" y="409.373046875"/>
      <point x="275.428710938" y="408.678710938" type="curve" smooth="yes"/>
      <point x="63.2763671875" y="5.0" type="line"/>
      <point x="375.0" y="5.0" type="line" smooth="yes"/>
      <point x="377.759765625" y="5.0"/>
      <point x="380.0" y="2.759765625"/>
      <point x="380.0" y="0.0" type="curve" smooth="yes"/>
      <point x="380.0" y="-2.759765625"/>
      <point x="377.759765625" y="-5.0"/>
      <point x="375.0" y="-5.0" type="curve" smooth="yes"/>
      <point x="55.0" y="-5.0" type="line" smooth="yes"/>
      <point x="52.240234375" y="-5.0"/>
      <point x="50.0" y="-2.759765625"/>
      <point x="50.0" y="0.0" type="curve" smooth="yes"/>
      <point x="50.0" y="0.837890625"/>
      <point x="50.2060546875" y="1.626953125"/>
      <point x="50.5712890625" y="2.3212890625" type="curve" smooth="yes"/>
      <point x="266.571289062" y="413.321289062" type="line" smooth="yes"/>
      <point x="267.408203125" y="414.913085938"/>
      <point x="269.078125" y="416.0"/>
    </contour>
    <contour>
      <point x="276.0" y="-205.0" type="line" smooth="yes"/>
      <point x="276.0" y="-207.759765625"/>
      <point x="273.759765625" y="-210.0"/>
      <point x="271.0" y="-210.0" type="curve" smooth="yes"/>
      <point x="268.240234375" y="-210.0"/>
      <point x="266.0" y="-207.759765625"/>
      <point x="266.0" y="-205.0" type="curve" smooth="yes"/>
      <point x="266.0" y="411.0" type="line" smooth="yes"/>
      <point x="266.0" y="413.759765625"/>
      <point x="268.240234375" y="416.0"/>
      <point x="271.0" y="416.0" type="curve" smooth="yes"/>
      <point x="273.759765625" y="416.0"/>
      <point x="276.0" y="413.759765625"/>
      <point x="276.0" y="411.0" type="curve" smooth="yes"/>
    </contour>
    <contour>
      <point x="314.0" y="-199.0" type="curve" smooth="yes"/>
      <point x="314.0" y="-196.240234375"/>
      <point x="316.240234375" y="-194.0"/>
      <point x="319.0" y="-194.0" type="curve" smooth="yes"/>
      <point x="321.759765625" y="-194.0"/>
      <point x="324.0" y="-196.240234375"/>
      <point x="324.0" y="-199.0" type="curve" smooth="yes"/>
      <point x="324.0" y="-201.759765625"/>
      <point x="321.759765625" y="-204.0"/>
      <point x="319.0" y="-204.0" type="curve" smooth="yes"/>
      <point x="316.240234375" y="-204.0"/>
      <point x="314.0" y="-201.759765625"/>
    </contour>
  </outline>
</glyph>
<glyph name="five" format="2">
  <advance width="470"/>
  <unicode hex="0035"/>
  <outline>
    <contour>
      <point x="415.0" y="416.0" type="line" smooth="yes"/>
      <point x="417.759765625" y="416.0"/>
      <point x="420.0" y="413.759765625"/>
      <point x="420.0" y="411.0" type="curve" smooth="yes"/>
      <point x="420.0" y="408.240234375"/>
      <point x="417.759765625" y="406.0"/>
      <point x="415.0" y="406.0" type="curve" smooth="yes"/>
      <point x="90.134765625" y="406.0" type="line"/>
      <point x="95.861328125" y="190.309570312" type="line"/>
      <point x="119.967773438" y="192.028320312"/>
      <point x="141.624023438" y="196.822265625"/>
      <point x="162.473632812" y="201.44921875" type="curve" smooth="yes"/>
      <point x="185.465820312" y="206.552734375"/>
      <point x="207.5078125" y="211.484375"/>
      <point x="230.642578125" y="211.484375" type="curve" smooth="yes"/>
      <point x="249.821289062" y="211.484375"/>
      <point x="269.646484375" y="208.040039062"/>
      <point x="291.012695312" y="198.578125" type="curve" smooth="yes"/>
      <point x="352.317382812" y="171.5625"/>
      <point x="367.916015625" y="119.076171875"/>
      <point x="386.796875" y="57.416015625" type="curve" smooth="yes"/>
      <point x="396.05078125" y="26.052734375"/>
      <point x="402.008789062" y="-0.9091796875"/>
      <point x="402.008789062" y="-27.86328125" type="curve" smooth="yes"/>
      <point x="402.008789062" y="-53.634765625"/>
      <point x="396.500976562" y="-79.18359375"/>
      <point x="383.563476562" y="-108.043945312" type="curve" smooth="yes"/>
      <point x="360.768554688" y="-158.815429688"/>
      <point x="322.87890625" y="-176.634765625"/>
      <point x="272.94140625" y="-197.608398438" type="curve" smooth="yes"/>
      <point x="244.23046875" y="-209.731445312"/>
      <point x="219.897460938" y="-215.168945312"/>
      <point x="193.665039062" y="-215.168945312" type="curve" smooth="yes"/>
      <point x="178.17578125" y="-215.168945312"/>
      <point x="162.041992188" y="-213.283203125"/>
      <point x="144.015625" y="-209.903320312" type="curve" smooth="yes"/>
      <point x="116.853515625" y="-204.470703125"/>
      <point x="100.439453125" y="-191.321289062"/>
      <point x="83.28125" y="-177.583984375" type="curve" smooth="yes"/>
      <point x="73.9775390625" y="-170.134765625"/>
      <point x="64.3759765625" y="-162.45703125"/>
      <point x="52.4326171875" y="-155.291015625" type="curve" smooth="yes"/>
      <point x="50.9755859375" y="-154.416015625"/>
      <point x="50.0" y="-152.821289062"/>
      <point x="50.0" y="-151.0" type="curve" smooth="yes"/>
      <point x="50.0" y="-148.240234375"/>
      <point x="52.240234375" y="-146.0"/>
      <point x="55.0" y="-146.0" type="curve" smooth="yes"/>
      <point x="55.9384765625" y="-146.0"/>
      <point x="56.81640625" y="-146.258789062"/>
      <point x="57.5673828125" y="-146.708984375" type="curve" smooth="yes"/>
      <point x="70.1884765625" y="-154.282226562"/>
      <point x="80.2255859375" y="-162.328125"/>
      <point x="89.5244140625" y="-169.7734375" type="curve" smooth="yes"/>
      <point x="106.7734375" y="-183.583984375"/>
      <point x="121.220703125" y="-195.14453125"/>
      <point x="145.984375" y="-200.096679688" type="curve" smooth="yes"/>
      <point x="163.618164062" y="-203.403320312"/>
      <point x="179.004882812" y="-205.168945312"/>
      <point x="193.665039062" y="-205.168945312" type="curve" smooth="yes"/>
      <point x="218.447265625" y="-205.168945312"/>
      <point x="241.201171875" y="-200.153320312"/>
      <point x="269.05859375" y="-188.391601562" type="curve" smooth="yes"/>
      <point x="319.12109375" y="-167.365234375"/>
      <point x="353.231445312" y="-151.184570312"/>
      <point x="374.436523438" y="-103.956054688" type="curve" smooth="yes"/>
      <point x="386.911132812" y="-76.1279296875"/>
      <point x="392.008789062" y="-52.154296875"/>
      <point x="392.008789062" y="-27.86328125" type="curve" smooth="yes"/>
      <point x="392.008789062" y="-2.349609375"/>
      <point x="386.3203125" y="24.857421875"/>
      <point x="376.862304688" y="55.6962890625" type="curve" smooth="yes"/>
      <point x="357.940429688" y="117.450195312"/>
      <point x="343.336914062" y="164.58984375"/>
      <point x="286.987304688" y="189.421875" type="curve" smooth="yes"/>
      <point x="266.895507812" y="198.3203125"/>
      <point x="248.59375" y="201.484375"/>
      <point x="230.642578125" y="201.484375" type="curve" smooth="yes"/>
      <point x="208.974609375" y="201.484375"/>
      <point x="187.6640625" y="196.794921875"/>
      <point x="164.646484375" y="191.686523438" type="curve" smooth="yes"/>
      <point x="142.336914062" y="186.735351562"/>
      <point x="118.452148438" y="181.418945312"/>
      <point x="91.2626953125" y="180.006835938" type="curve" smooth="yes"/>
      <point x="91.17578125" y="180.001953125"/>
      <point x="91.087890625" y="180.0"/>
      <point x="91.0" y="180.0" type="curve" smooth="yes"/>
      <point x="88.28515625" y="180.0"/>
      <point x="86.0732421875" y="182.16796875"/>
      <point x="86.001953125" y="184.865234375" type="curve" smooth="yes"/>
      <point x="79.998046875" y="411.0" type="line" smooth="yes"/>
      <point x="79.998046875" y="413.759765625"/>
      <point x="82.240234375" y="416.0"/>
      <point x="85.0" y="416.0" type="curve" smooth="yes"/>
    </contour>
  </outline>
</glyph>
<glyph name="six" format="2">
  <advance width="285"/>
  <unicode hex="0036"/>
  <outline>
    <contour>
      <point x="123.721" y="330" type="curve" smooth="yes"/>
      <point x="123.721" y="332.76"/>
      <point x="125.961" y="335"/>
      <point x="128.721" y="335" type="curve" smooth="yes"/>
      <point x="129.164" y="335"/>
      <point x="129.595" y="334.942"/>
      <point x="130.004" y="334.833" type="curve" smooth="yes"/>
      <point x="151.126" y="329.229"/>
      <point x="174.343" y="321.411"/>
      <point x="190.276" y="295.983" type="curve" smooth="yes"/>
      <point x="202.939" y="275.774"/>
      <point x="210.721" y="245.206"/>
      <point x="210.721" y="197" type="curve" smooth="yes"/>
      <point x="210.721" y="120.366"/>
      <point x="195.683" y="53.0332"/>
      <point x="172.645" y="15.7119" type="curve" smooth="yes"/>
      <point x="161.205" y="-2.81934"/>
      <point x="147.101" y="-15"/>
      <point x="130.721" y="-15" type="curve" smooth="yes"/>
      <point x="108.791" y="-15"/>
      <point x="92.4346" y="6.43945"/>
      <point x="80.2158" y="37.0068" type="curve" smooth="yes"/>
      <point x="64.6699" y="75.8975"/>
      <point x="54.6133" y="133.124"/>
      <point x="50.7295" y="196.691" type="curve" smooth="yes"/>
      <point x="50.2383" y="204.743"/>
      <point x="50" y="212.746"/>
      <point x="50" y="220.7" type="curve" smooth="yes"/>
      <point x="50" y="343.718"/>
      <point x="106.759" y="454.619"/>
      <point x="160.33" y="559.635" type="curve" smooth="yes"/>
      <point x="184.677" y="607.362"/>
      <point x="208.409" y="653.909"/>
      <point x="226.052" y="699.792" type="curve" smooth="yes"/>
      <point x="226.772" y="701.668"/>
      <point x="228.592" y="703"/>
      <point x="230.721" y="703" type="curve" smooth="yes"/>
      <point x="233.48" y="703"/>
      <point x="235.721" y="700.76"/>
      <point x="235.721" y="698" type="curve" smooth="yes"/>
      <point x="235.721" y="697.368"/>
      <point x="235.604" y="696.765"/>
      <point x="235.39" y="696.208" type="curve" smooth="yes"/>
      <point x="180.041" y="552.263"/>
      <point x="60" y="395.853"/>
      <point x="60" y="220.7" type="curve" smooth="yes"/>
      <point x="60" y="212.949"/>
      <point x="60.2314" y="205.153"/>
      <point x="60.7109" y="197.309" type="curve" smooth="yes"/>
      <point x="64.5518" y="134.445"/>
      <point x="74.624" y="77.9424"/>
      <point x="89.5059" y="40.7129" type="curve" smooth="yes"/>
      <point x="101.629" y="10.3857"/>
      <point x="116.205" y="-5"/>
      <point x="130.721" y="-5" type="curve" smooth="yes"/>
      <point x="145.365" y="-5"/>
      <point x="161.287" y="10.5762"/>
      <point x="174.273" y="40.7627" type="curve" smooth="yes"/>
      <point x="190.247" y="77.8945"/>
      <point x="200.721" y="134.224"/>
      <point x="200.721" y="197" type="curve" smooth="yes"/>
      <point x="200.721" y="244.197"/>
      <point x="192.992" y="272.816"/>
      <point x="181.796" y="290.684" type="curve" smooth="yes"/>
      <point x="167.905" y="312.852"/>
      <point x="148.252" y="319.644"/>
      <point x="127.437" y="325.167" type="curve" smooth="yes"/>
      <point x="125.298" y="325.734"/>
      <point x="123.721" y="327.685"/>
    </contour>
  </outline>
</glyph>
<glyph name="seven" format="2">
  <advance width="294"/>
  <unicode hex="0037"/>
  <outline>
    <contour>
      <point x="55" y="406" type="line" smooth="yes"/>
      <point x="52.2402" y="406"/>
      <point x="50" y="408.24"/>
      <point x="50" y="411" type="curve" smooth="yes"/>
      <point x="50" y="413.76"/>
      <point x="52.2402" y="416"/>
      <point x="55" y="416" type="curve" smooth="yes"/>
      <point x="239" y="416" type="line" smooth="yes"/>
      <point x="241.76" y="416"/>
      <point x="244" y="413.76"/>
      <point x="244" y="411" type="curve" smooth="yes"/>
      <point x="244" y="410.497"/>
      <point x="243.926" y="410.012"/>
      <point x="243.787" y="409.554" type="curve" smooth="yes"/>
      <point x="59.7871" y="-199.446" type="line" smooth="yes"/>
      <point x="59.166" y="-201.502"/>
      <point x="57.2568" y="-203"/>
      <point x="55" y="-203" type="curve" smooth="yes"/>
      <point x="52.2402" y="-203"/>
      <point x="50" y="-200.76"/>
      <point x="50" y="-198" type="curve" smooth="yes"/>
      <point x="50" y="-197.497"/>
      <point x="50.0742" y="-197.012"/>
      <point x="50.2129" y="-196.554" type="curve" smooth="yes"/>
      <point x="232.265" y="406" type="line"/>
    </contour>
  </outline>
</glyph>
<glyph name="eight" format="2">
  <advance width="226"/>
  <unicode hex="0038"/>
  <outline>
    <contour>
      <point x="50.0" y="582.0" type="curve" smooth="yes"/>
      <point x="50.0" y="522.094726562"/>
      <point x="58.0283203125" y="468.412109375"/>
      <point x="70.9306640625" y="432.004882812" type="curve" smooth="yes"/>
      <point x="80.9755859375" y="403.66015625"/>
      <point x="94.5947265625" y="383.0"/>
      <point x="113.0" y="383.0" type="curve" smooth="yes"/>
      <point x="131.405273438" y="383.0"/>
      <point x="145.024414062" y="403.66015625"/>
      <point x="155.069335938" y="432.004882812" type="curve" smooth="yes"/>
      <point x="167.971679688" y="468.412109375"/>
      <point x="176.0" y="522.094726562"/>
      <point x="176.0" y="582.0" type="curve" smooth="yes"/>
      <point x="176.0" y="641.905273438"/>
      <point x="167.971679688" y="695.587890625"/>
      <point x="155.069335938" y="731.995117188" type="curve" smooth="yes"/>
      <point x="145.024414062" y="760.33984375"/>
      <point x="131.405273438" y="781.0"/>
      <point x="113.0" y="781.0" type="curve" smooth="yes"/>
      <point x="94.5947265625" y="781.0"/>
      <point x="80.9755859375" y="760.33984375"/>
      <point x="70.9306640625" y="731.995117188" type="curve" smooth="yes"/>
      <point x="58.0283203125" y="695.587890625"/>
      <point x="50.0" y="641.905273438"/>
    </contour>
    <contour>
      <point x="60.0" y="582.0" type="curve" smooth="yes"/>
      <point x="60.0" y="640.983398438"/>
      <point x="68.021484375" y="693.84375"/>
      <point x="80.359375" y="728.658203125" type="curve" smooth="yes"/>
      <point x="90.505859375" y="757.290039062"/>
      <point x="102.9609375" y="771.0"/>
      <point x="113.0" y="771.0" type="curve" smooth="yes"/>
      <point x="123.0390625" y="771.0"/>
      <point x="135.494140625" y="757.290039062"/>
      <point x="145.640625" y="728.658203125" type="curve" smooth="yes"/>
      <point x="157.978515625" y="693.84375"/>
      <point x="166.0" y="640.983398438"/>
      <point x="166.0" y="582.0" type="curve" smooth="yes"/>
      <point x="166.0" y="523.016601562"/>
      <point x="157.978515625" y="470.15625"/>
      <point x="145.640625" y="435.341796875" type="curve" smooth="yes"/>
      <point x="135.494140625" y="406.709960938"/>
      <point x="123.0390625" y="393.0"/>
      <point x="113.0" y="393.0" type="curve" smooth="yes"/>
      <point x="102.9609375" y="393.0"/>
      <point x="90.505859375" y="406.709960938"/>
      <point x="80.359375" y="435.341796875" type="curve" smooth="yes"/>
      <point x="68.021484375" y="470.15625"/>
      <point x="60.0" y="523.016601562"/>
    </contour>
    <contour>
      <point x="50.0" y="194.0" type="curve" smooth="yes"/>
      <point x="50.0" y="253.905273438"/>
      <point x="58.0283203125" y="307.587890625"/>
      <point x="70.9306640625" y="343.995117188" type="curve" smooth="yes"/>
      <point x="80.9755859375" y="372.33984375"/>
      <point x="94.5947265625" y="393.0"/>
      <point x="113.0" y="393.0" type="curve" smooth="yes"/>
      <point x="131.405273438" y="393.0"/>
      <point x="145.024414062" y="372.33984375"/>
      <point x="155.069335938" y="343.995117188" type="curve" smooth="yes"/>
      <point x="167.971679688" y="307.587890625"/>
      <point x="176.0" y="253.905273438"/>
      <point x="176.0" y="194.0" type="curve" smooth="yes"/>
      <point x="176.0" y="134.094726562"/>
      <point x="167.971679688" y="80.412109375"/>
      <point x="155.069335938" y="44.0048828125" type="curve" smooth="yes"/>
      <point x="145.024414062" y="15.66015625"/>
      <point x="131.405273438" y="-5.0"/>
      <point x="113.0" y="-5.0" type="curve" smooth="yes"/>
      <point x="94.5947265625" y="-5.0"/>
      <point x="80.9755859375" y="15.66015625"/>
      <point x="70.9306640625" y="44.0048828125" type="curve" smooth="yes"/>
      <point x="58.0283203125" y="80.412109375"/>
      <point x="50.0" y="134.094726562"/>
    </contour>
    <contour>
      <point x="60.0" y="194.0" type="curve" smooth="yes"/>
      <point x="60.0" y="135.016601562"/>
      <point x="68.021484375" y="82.15625"/>
      <point x="80.359375" y="47.341796875" type="curve" smooth="yes"/>
      <point x="90.505859375" y="18.7099609375"/>
      <point x="102.9609375" y="5.0"/>
      <point x="113.0" y="5.0" type="curve" smooth="yes"/>
      <point x="123.0390625" y="5.0"/>
      <point x="135.494140625" y="18.7099609375"/>
      <point x="145.640625" y="47.341796875" type="curve" smooth="yes"/>
      <point x="157.978515625" y="82.15625"/>
      <point x="166.0" y="135.016601562"/>
      <point x="166.0" y="194.0" type="curve" smooth="yes"/>
      <point x="166.0" y="252.983398438"/>
      <point x="157.978515625" y="305.84375"/>
      <point x="145.640625" y="340.658203125" type="curve" smooth="yes"/>
      <point x="135.494140625" y="369.290039062"/>
      <point x="123.0390625" y="383.0"/>
      <point x="113.0" y="383.0" type="curve" smooth="yes"/>
      <point x="102.9609375" y="383.0"/>
      <point x="90.505859375" y="369.290039062"/>
      <point x="80.359375" y="340.658203125" type="curve" smooth="yes"/>
      <point x="68.021484375" y="305.84375"/>
      <point x="60.0" y="252.983398438"/>
    </contour>
  </outline>
</glyph>
<glyph name="nine" format="2">
  <advance width="267"/>
  <unicode hex="0039"/>
  <outline>
    <contour>
      <point x="191.0" y="108.0" type="curve" smooth="yes"/>
      <point x="191.0" y="105.240234375"/>
      <point x="188.759765625" y="103.0"/>
      <point x="186.0" y="103.0" type="curve" smooth="yes"/>
      <point x="185.556640625" y="103.0"/>
      <point x="185.125976562" y="103.057617188"/>
      <point x="184.715820312" y="103.166992188" type="curve" smooth="yes"/>
      <point x="177.234375" y="105.15234375"/>
      <point x="166.389648438" y="105.61328125"/>
      <point x="154.211914062" y="106.046875" type="curve" smooth="yes"/>
      <point x="135.188476562" y="106.723632812"/>
      <point x="112.787109375" y="107.391601562"/>
      <point x="93.3134765625" y="115.897460938" type="curve" smooth="yes"/>
      <point x="68.51171875" y="126.73046875"/>
      <point x="50.0" y="150.342773438"/>
      <point x="50.0" y="198.151367188" type="curve" smooth="yes"/>
      <point x="50.0" y="274.78515625"/>
      <point x="65.0380859375" y="342.118164062"/>
      <point x="88.0751953125" y="379.439453125" type="curve" smooth="yes"/>
      <point x="99.5146484375" y="397.970703125"/>
      <point x="113.620117188" y="410.151367188"/>
      <point x="130.0" y="410.151367188" type="curve" smooth="yes"/>
      <point x="151.979492188" y="410.151367188"/>
      <point x="169.016601562" y="387.911132812"/>
      <point x="182.232421875" y="356.506835938" type="curve" smooth="yes"/>
      <point x="199.055664062" y="316.53125"/>
      <point x="210.842773438" y="258.060546875"/>
      <point x="215.983398438" y="194.559570312" type="curve" smooth="yes"/>
      <point x="216.854492188" y="183.793945312"/>
      <point x="217.270507812" y="173.314453125"/>
      <point x="217.270507812" y="163.095703125" type="curve" smooth="yes"/>
      <point x="217.270507812" y="62.14453125"/>
      <point x="176.72265625" y="-12.83984375"/>
      <point x="136.827148438" y="-86.7734375" type="curve" smooth="yes"/>
      <point x="116.627929688" y="-124.205078125"/>
      <point x="96.5625" y="-161.420898438"/>
      <point x="81.6923828125" y="-201.728515625" type="curve" smooth="yes"/>
      <point x="80.98828125" y="-203.637695312"/>
      <point x="79.15234375" y="-205.0"/>
      <point x="77.0" y="-205.0" type="curve" smooth="yes"/>
      <point x="74.240234375" y="-205.0"/>
      <point x="72.0" y="-202.759765625"/>
      <point x="72.0" y="-200.0" type="curve" smooth="yes"/>
      <point x="72.0" y="-199.392578125"/>
      <point x="72.1083984375" y="-198.810546875"/>
      <point x="72.3076171875" y="-198.271484375" type="curve" smooth="yes"/>
      <point x="87.494140625" y="-157.104492188"/>
      <point x="107.82421875" y="-119.4609375"/>
      <point x="128.020507812" y="-82.0341796875" type="curve" smooth="yes"/>
      <point x="167.970703125" y="-7.9990234375"/>
      <point x="207.270507812" y="64.9853515625"/>
      <point x="207.270507812" y="163.095703125" type="curve" smooth="yes"/>
      <point x="207.270507812" y="173.038085938"/>
      <point x="206.866210938" y="183.245117188"/>
      <point x="206.016601562" y="193.743164062" type="curve" smooth="yes"/>
      <point x="200.936523438" y="256.495117188"/>
      <point x="189.16796875" y="314.243164062"/>
      <point x="173.010742188" y="352.634765625" type="curve" smooth="yes"/>
      <point x="159.84375" y="383.923828125"/>
      <point x="144.46484375" y="400.151367188"/>
      <point x="130.0" y="400.151367188" type="curve" smooth="yes"/>
      <point x="115.354492188" y="400.151367188"/>
      <point x="99.43359375" y="384.575195312"/>
      <point x="86.447265625" y="354.388671875" type="curve" smooth="yes"/>
      <point x="70.4736328125" y="317.256835938"/>
      <point x="60.0" y="260.927734375"/>
      <point x="60.0" y="198.151367188" type="curve" smooth="yes"/>
      <point x="60.0" y="153.100585938"/>
      <point x="76.3916015625" y="134.202148438"/>
      <point x="97.30859375" y="125.06640625" type="curve" smooth="yes"/>
      <point x="114.41015625" y="117.596679688"/>
      <point x="135.5078125" y="116.71875"/>
      <point x="154.572265625" y="116.040039062" type="curve" smooth="yes"/>
      <point x="166.754882812" y="115.607421875"/>
      <point x="178.057617188" y="115.28125"/>
      <point x="187.284179688" y="112.833007812" type="curve" smooth="yes"/>
      <point x="189.421875" y="112.265625"/>
      <point x="191.0" y="110.315429688"/>
    </contour>
  </outline>
</glyph>
<glyph name="colon" format="2">
  <advance width="110"/>
  <unicode hex="003A"/>
  <outline>
    <contour>
      <point x="50" y="439" type="curve" smooth="yes"/>
      <point x="50" y="441.76"/>
      <point x="52.2402" y="444"/>
      <point x="55" y="444" type="curve" smooth="yes"/>
      <point x="57.7598" y="444"/>
      <point x="60" y="441.76"/>
      <point x="60" y="439" type="curve" smooth="yes"/>
      <point x="60" y="436.24"/>
      <point x="57.7598" y="434"/>
      <point x="55" y="434" type="curve" smooth="yes"/>
      <point x="52.2402" y="434"/>
      <point x="50" y="436.24"/>
    </contour>
    <contour>
      <point x="50" y="29" type="curve" smooth="yes"/>
      <point x="50" y="31.7598"/>
      <point x="52.2402" y="34"/>
      <point x="55" y="34" type="curve" smooth="yes"/>
      <point x="57.7598" y="34"/>
      <point x="60" y="31.7598"/>
      <point x="60" y="29" type="curve" smooth="yes"/>
      <point x="60" y="26.2402"/>
      <point x="57.7598" y="24"/>
      <point x="55" y="24" type="curve" smooth="yes"/>
      <point x="52.2402" y="24"/>
      <point x="50" y="26.2402"/>
    </contour>
  </outline>
</glyph>
<glyph name="semicolon" format="2">
  <advance width="146"/>
  <unicode hex="003B"/>
  <outline>
    <contour>
      <point x="86.0" y="-7.0" type="curve" smooth="yes"/>
      <point x="86.0" y="6.46484375"/>
      <point x="77.0" y="23.486328125"/>
      <point x="77.0" y="26.0" type="curve" smooth="yes"/>
      <point x="77.0" y="28.759765625"/>
      <point x="79.240234375" y="31.0"/>
      <point x="82.0" y="31.0" type="curve" smooth="yes"/>
      <point x="84.0302734375" y="31.0"/>
      <point x="85.779296875" y="29.787109375"/>
      <point x="86.5625" y="28.0478515625" type="curve" smooth="yes"/>
      <point x="86.6474609375" y="27.859375"/>
      <point x="96.0" y="7.853515625"/>
      <point x="96.0" y="-7.0" type="curve" smooth="yes"/>
      <point x="96.0" y="-20.53125"/>
      <point x="88.09765625" y="-33.8232421875"/>
      <point x="79.966796875" y="-44.4951171875" type="curve" smooth="yes"/>
      <point x="69.7236328125" y="-57.939453125"/>
      <point x="58.41015625" y="-67.6611328125"/>
      <point x="58.259765625" y="-67.7900390625" type="curve" smooth="yes"/>
      <point x="57.384765625" y="-68.5439453125"/>
      <point x="56.2451171875" y="-69.0"/>
      <point x="55.0" y="-69.0" type="curve" smooth="yes"/>
      <point x="52.240234375" y="-69.0"/>
      <point x="50.0" y="-66.759765625"/>
      <point x="50.0" y="-64.0" type="curve" smooth="yes"/>
      <point x="50.0" y="-62.4853515625"/>
      <point x="50.6748046875" y="-61.126953125"/>
      <point x="51.740234375" y="-60.2099609375" type="curve" smooth="yes"/>
      <point x="51.89453125" y="-60.0771484375"/>
      <point x="86.0" y="-29.4111328125"/>
    </contour>
    <contour>
      <point x="51.5" y="388.0" type="curve" smooth="yes"/>
      <point x="51.5" y="390.759765625"/>
      <point x="53.740234375" y="393.0"/>
      <point x="56.5" y="393.0" type="curve" smooth="yes"/>
      <point x="59.259765625" y="393.0"/>
      <point x="61.5" y="390.759765625"/>
      <point x="61.5" y="388.0" type="curve" smooth="yes"/>
      <point x="61.5" y="385.240234375"/>
      <point x="59.259765625" y="383.0"/>
      <point x="56.5" y="383.0" type="curve" smooth="yes"/>
      <point x="53.740234375" y="383.0"/>
      <point x="51.5" y="385.240234375"/>
    </contour>
  </outline>
</glyph>
<glyph name="less" format="2">
  <advance width="344"/>
  <unicode hex="003C"/>
  <outline>
    <contour>
      <point x="289.0" y="640.0" type="curve" smooth="yes"/>
      <point x="291.759765625" y="640.0"/>
      <point x="294.0" y="637.759765625"/>
      <point x="294.0" y="635.0" type="curve" smooth="yes"/>
      <point x="294.0" y="633.581054688"/>
      <point x="293.407226562" y="632.298828125"/>
      <point x="292.456054688" y="631.388671875" type="curve" smooth="yes"/>
      <point x="62.0439453125" y="410.823242188" type="line"/>
      <point x="280.634765625" y="179.431640625" type="line" smooth="yes"/>
      <point x="281.48046875" y="178.536132812"/>
      <point x="282.0" y="177.328125"/>
      <point x="282.0" y="176.0" type="curve" smooth="yes"/>
      <point x="282.0" y="173.240234375"/>
      <point x="279.759765625" y="171.0"/>
      <point x="277.0" y="171.0" type="curve" smooth="yes"/>
      <point x="275.568359375" y="171.0"/>
      <point x="274.27734375" y="171.602539062"/>
      <point x="273.365234375" y="172.568359375" type="curve" smooth="yes"/>
      <point x="51.365234375" y="407.568359375" type="line" smooth="yes"/>
      <point x="50.51953125" y="408.463867188"/>
      <point x="50.0" y="409.671875"/>
      <point x="50.0" y="411.0" type="curve" smooth="yes"/>
      <point x="50.0" y="412.418945312"/>
      <point x="50.5927734375" y="413.701171875"/>
      <point x="51.5439453125" y="414.611328125" type="curve" smooth="yes"/>
      <point x="285.543945312" y="638.611328125" type="line" smooth="yes"/>
      <point x="286.442382812" y="639.471679688"/>
      <point x="287.66015625" y="640.0"/>
    </contour>
  </outline>
</glyph>
<glyph name="equal" format="2">
  <advance width="458"/>
  <unicode hex="003D"/>
  <outline>
    <contour>
      <point x="55" y="367" type="line" smooth="yes"/>
      <point x="52.2402" y="367"/>
      <point x="50" y="369.24"/>
      <point x="50" y="372" type="curve" smooth="yes"/>
      <point x="50" y="374.76"/>
      <point x="52.2402" y="377"/>
      <point x="55" y="377" type="curve" smooth="yes"/>
      <point x="403" y="377" type="line" smooth="yes"/>
      <point x="405.76" y="377"/>
      <point x="408" y="374.76"/>
      <point x="408" y="372" type="curve" smooth="yes"/>
      <point x="408" y="369.24"/>
      <point x="405.76" y="367"/>
      <point x="403" y="367" type="curve" smooth="yes"/>
    </contour>
    <contour>
      <point x="55" y="467" type="line" smooth="yes"/>
      <point x="52.2402" y="467"/>
      <point x="50" y="469.24"/>
      <point x="50" y="472" type="curve" smooth="yes"/>
      <point x="50" y="474.76"/>
      <point x="52.2402" y="477"/>
      <point x="55" y="477" type="curve" smooth="yes"/>
      <point x="403" y="477" type="line" smooth="yes"/>
      <point x="405.76" y="477"/>
      <point x="408" y="474.76"/>
      <point x="408" y="472" type="curve" smooth="yes"/>
      <point x="408" y="469.24"/>
      <point x="405.76" y="467"/>
      <point x="403" y="467" type="curve" smooth="yes"/>
    </contour>
  </outline>
</glyph>
<glyph name="greater" format="2">
  <advance width="344"/>
  <unicode hex="003E"/>
  <outline>
    <contour>
      <point x="50" y="635" type="curve" smooth="yes"/>
      <point x="50" y="637.76"/>
      <point x="52.2402" y="640"/>
      <point x="55" y="640" type="curve" smooth="yes"/>
      <point x="56.3398" y="640"/>
      <point x="57.5576" y="639.472"/>
      <point x="58.4561" y="638.611" type="curve" smooth="yes"/>
      <point x="292.456" y="414.611" type="line" smooth="yes"/>
      <point x="293.407" y="413.701"/>
      <point x="294" y="412.419"/>
      <point x="294" y="411" type="curve" smooth="yes"/>
      <point x="294" y="409.672"/>
      <point x="293.48" y="408.464"/>
      <point x="292.635" y="407.568" type="curve" smooth="yes"/>
      <point x="70.6348" y="172.568" type="line" smooth="yes"/>
      <point x="69.7227" y="171.603"/>
      <point x="68.4316" y="171"/>
      <point x="67" y="171" type="curve" smooth="yes"/>
      <point x="64.2402" y="171"/>
      <point x="62" y="173.24"/>
      <point x="62" y="176" type="curve" smooth="yes"/>
      <point x="62" y="177.328"/>
      <point x="62.5195" y="178.536"/>
      <point x="63.3652" y="179.432" type="curve" smooth="yes"/>
      <point x="281.956" y="410.823" type="line"/>
      <point x="51.5439" y="631.389" type="line" smooth="yes"/>
      <point x="50.5928" y="632.299"/>
      <point x="50" y="633.581"/>
    </contour>
  </outline>
</glyph>
<glyph name="question" format="2">
  <advance height="1000" width="316"/>
  <unicode hex="003F"/>
  <outline>
    <contour>
      <point x="134.0" y="395.0" type="line"/>
      <point x="134.0" y="212.0" type="line" smooth="yes"/>
      <point x="134.0" y="209.240234375"/>
      <point x="131.759765625" y="207.0"/>
      <point x="129.0" y="207.0" type="curve" smooth="yes"/>
      <point x="126.240234375" y="207.0"/>
      <point x="124.0" y="209.240234375"/>
      <point x="124.0" y="212.0" type="curve" smooth="yes"/>
      <point x="124.0" y="400.0" type="line" smooth="yes"/>
      <point x="124.0" y="402.759765625"/>
      <point x="126.240234375" y="405.0"/>
      <point x="129.0" y="405.0" type="curve" smooth="yes"/>
      <point x="220.299804688" y="405.0" type="line"/>
      <point x="245.514648438" y="443.79296875"/>
      <point x="256.01953125" y="477.594726562"/>
      <point x="256.01953125" y="507.66796875" type="curve" smooth="yes"/>
      <point x="256.01953125" y="542.20703125"/>
      <point x="242.202148438" y="572.469726562"/>
      <point x="219.415039062" y="600.485351562" type="curve"/>
      <point x="193.51953125" y="622.393554688"/>
      <point x="167.458984375" y="632.999023438"/>
      <point x="141.000976562" y="632.999023438" type="curve" smooth="yes"/>
      <point x="115.009765625" y="632.999023438"/>
      <point x="88.041015625" y="622.728515625"/>
      <point x="60.0" y="601.529296875" type="curve"/>
      <point x="60.0" y="570.0" type="line" smooth="yes"/>
      <point x="60.0" y="567.240234375"/>
      <point x="57.759765625" y="565.0"/>
      <point x="55.0" y="565.0" type="curve" smooth="yes"/>
      <point x="52.240234375" y="565.0"/>
      <point x="50.0" y="567.240234375"/>
      <point x="50.0" y="570.0" type="curve" smooth="yes"/>
      <point x="50.0" y="604.0" type="line" smooth="yes"/>
      <point x="50.0" y="605.610351562"/>
      <point x="50.7626953125" y="607.043945312"/>
      <point x="51.9462890625" y="607.958984375" type="curve" smooth="yes"/>
      <point x="81.875" y="631.083984375"/>
      <point x="111.59375" y="642.999023438"/>
      <point x="141.000976562" y="642.999023438" type="curve" smooth="yes"/>
      <point x="170.423828125" y="642.999023438"/>
      <point x="198.9140625" y="631.034179688"/>
      <point x="226.235351562" y="607.810546875" type="curve" smooth="yes"/>
      <point x="226.467773438" y="607.61328125"/>
      <point x="226.681640625" y="607.395507812"/>
      <point x="226.874023438" y="607.159179688" type="curve" smooth="yes"/>
      <point x="250.8046875" y="577.85546875"/>
      <point x="266.01953125" y="545.20703125"/>
      <point x="266.01953125" y="507.66796875" type="curve" smooth="yes"/>
      <point x="266.01953125" y="474.545898438"/>
      <point x="254.205078125" y="438.119140625"/>
      <point x="227.173828125" y="397.247070312" type="curve" smooth="yes"/>
      <point x="226.278320312" y="395.893554688"/>
      <point x="224.743164062" y="395.0"/>
      <point x="223.0" y="395.0" type="curve" smooth="yes"/>
    </contour>
    <contour>
      <point x="128.0" y="152.0" type="line" smooth="yes"/>
      <point x="128.0" y="154.759765625"/>
      <point x="130.240234375" y="157.0"/>
      <point x="133.0" y="157.0" type="curve" smooth="yes"/>
      <point x="135.759765625" y="157.0"/>
      <point x="138.0" y="154.759765625"/>
      <point x="138.0" y="152.0" type="curve" smooth="yes"/>
      <point x="138.0" y="108.0" type="line" smooth="yes"/>
      <point x="138.0" y="105.240234375"/>
      <point x="135.759765625" y="103.0"/>
      <point x="133.0" y="103.0" type="curve" smooth="yes"/>
      <point x="130.240234375" y="103.0"/>
      <point x="128.0" y="105.240234375"/>
      <point x="128.0" y="108.0" type="curve" smooth="yes"/>
    </contour>
  </outline>
</glyph>
<glyph name="at" format="2">
  <advance width="728"/>
  <unicode hex="0040"/>
  <outline>
    <contour>
      <point x="170" y="176" type="curve" smooth="yes"/>
      <point x="170" y="182.095"/>
      <point x="169.963" y="188.276"/>
      <point x="169.963" y="194.532" type="curve" smooth="yes"/>
      <point x="169.963" y="256.822"/>
      <point x="172.742" y="355"/>
      <point x="256" y="355" type="curve" smooth="yes"/>
      <point x="287.05" y="355"/>
      <point x="311.66" y="339.722"/>
      <point x="334.369" y="325.799" type="curve" smooth="yes"/>
      <point x="355.665" y="312.741"/>
      <point x="375.23" y="301"/>
      <point x="397" y="301" type="curve" smooth="yes"/>
      <point x="399.76" y="301"/>
      <point x="402" y="298.76"/>
      <point x="402" y="296" type="curve" smooth="yes"/>
      <point x="402" y="293.24"/>
      <point x="399.76" y="291"/>
      <point x="397" y="291" type="curve" smooth="yes"/>
      <point x="371.578" y="291"/>
      <point x="350.242" y="304.337"/>
      <point x="329.152" y="317.267" type="curve" smooth="yes"/>
      <point x="306.288" y="331.285"/>
      <point x="283.612" y="345"/>
      <point x="256" y="345" type="curve" smooth="yes"/>
      <point x="184.35" y="345"/>
      <point x="179.963" y="259.912"/>
      <point x="179.963" y="194.532" type="curve" smooth="yes"/>
      <point x="179.963" y="188.282"/>
      <point x="180" y="182.108"/>
      <point x="180" y="176" type="curve" smooth="yes"/>
      <point x="180" y="56.7344"/>
      <point x="286.414" y="7"/>
      <point x="388" y="7" type="curve" smooth="yes"/>
      <point x="436.871" y="7"/>
      <point x="455" y="59.7734"/>
      <point x="455" y="110" type="curve" smooth="yes"/>
      <point x="455" y="129.943"/>
      <point x="456.355" y="142.041"/>
      <point x="460.313" y="149.227" type="curve" smooth="yes"/>
      <point x="462.354" y="152.932"/>
      <point x="465.842" y="155.83"/>
      <point x="470.268" y="155.83" type="curve" smooth="yes"/>
      <point x="476.839" y="155.83"/>
      <point x="482.062" y="150.775"/>
      <point x="487.321" y="145.019" type="curve" smooth="yes"/>
      <point x="494.192" y="137.497"/>
      <point x="501.864" y="126.759"/>
      <point x="510.341" y="114.94" type="curve" smooth="yes"/>
      <point x="534.211" y="81.6602"/>
      <point x="563.385" y="43"/>
      <point x="589" y="43" type="curve" smooth="yes"/>
      <point x="658.111" y="43"/>
      <point x="668" y="107.239"/>
      <point x="668" y="185" type="curve" smooth="yes"/>
      <point x="668" y="326.124"/>
      <point x="535.678" y="450"/>
      <point x="391" y="450" type="curve" smooth="yes"/>
      <point x="186.799" y="450"/>
      <point x="60" y="371.945"/>
      <point x="60" y="179" type="curve" smooth="yes"/>
      <point x="60" y="10.25"/>
      <point x="171.243" y="-164.001"/>
      <point x="337.09" y="-164.001" type="curve"/>
      <point x="337.09" y="-164.001"/>
      <point x="507.068" y="-167"/>
      <point x="616" y="-167" type="curve" smooth="yes"/>
      <point x="639.641" y="-167"/>
      <point x="659" y="-149.899"/>
      <point x="659" y="-127" type="curve" smooth="yes"/>
      <point x="659" y="-120.893"/>
      <point x="662.631" y="-117.049"/>
      <point x="664.783" y="-114.657" type="curve" smooth="yes"/>
      <point x="667.131" y="-112.049"/>
      <point x="668" y="-110.893"/>
      <point x="668" y="-109" type="curve" smooth="yes"/>
      <point x="668" y="-106.24"/>
      <point x="670.24" y="-104"/>
      <point x="673" y="-104" type="curve" smooth="yes"/>
      <point x="675.76" y="-104"/>
      <point x="678" y="-106.24"/>
      <point x="678" y="-109" type="curve" smooth="yes"/>
      <point x="678" y="-115.107"/>
      <point x="674.369" y="-118.951"/>
      <point x="672.217" y="-121.343" type="curve" smooth="yes"/>
      <point x="669.869" y="-123.951"/>
      <point x="669" y="-125.107"/>
      <point x="669" y="-127" type="curve" smooth="yes"/>
      <point x="669" y="-156.101"/>
      <point x="644.359" y="-177"/>
      <point x="616" y="-177" type="curve" smooth="yes"/>
      <point x="506.921" y="-177"/>
      <point x="336.926" y="-173.999"/>
      <point x="336.91" y="-173.999" type="curve" smooth="yes"/>
      <point x="163.162" y="-173.999"/>
      <point x="50" y="7.1084"/>
      <point x="50" y="179" type="curve" smooth="yes"/>
      <point x="50" y="378.769"/>
      <point x="184.174" y="460"/>
      <point x="391" y="460" type="curve" smooth="yes"/>
      <point x="540.925" y="460"/>
      <point x="678" y="332.25"/>
      <point x="678" y="185" type="curve" smooth="yes"/>
      <point x="678" y="108.883"/>
      <point x="668.363" y="33"/>
      <point x="589" y="33" type="curve" smooth="yes"/>
      <point x="573.726" y="33"/>
      <point x="559.551" y="42.2305"/>
      <point x="546.585" y="54.4922" type="curve" smooth="yes"/>
      <point x="530.268" y="69.9258"/>
      <point x="515.224" y="90.9766"/>
      <point x="502.209" y="109.121" type="curve" smooth="yes"/>
      <point x="493.748" y="120.918"/>
      <point x="486.122" y="131.507"/>
      <point x="479.938" y="138.277" type="curve" smooth="yes"/>
      <point x="474.752" y="143.954"/>
      <point x="470.965" y="145.83"/>
      <point x="470.268" y="145.83" type="curve" smooth="yes"/>
      <point x="470.268" y="145.83"/>
      <point x="465" y="141.724"/>
      <point x="465" y="110" type="curve" smooth="yes"/>
      <point x="465" y="59.4717"/>
      <point x="446.535" y="-3"/>
      <point x="388" y="-3" type="curve" smooth="yes"/>
      <point x="284.165" y="-3"/>
      <point x="170" y="48.7354"/>
    </contour>
  </outline>
</glyph>
<glyph name="A" format="2">
  <advance width="466"/>
  <unicode hex="0041"/>
  <outline>
    <contour>
      <point x="301" y="793" type="curve" smooth="yes"/>
      <point x="308.021" y="793"/>
      <point x="309.379" y="784.979"/>
      <point x="309.379" y="779.174" type="curve" smooth="yes"/>
      <point x="309.379" y="776.555"/>
      <point x="309.17" y="774.238"/>
      <point x="309.046" y="773.097" type="curve" smooth="yes"/>
      <point x="321.485" y="688.763"/>
      <point x="339.603" y="607.424"/>
      <point x="350.957" y="524.686" type="curve" smooth="yes"/>
      <point x="371.953" y="371.685" type="line" smooth="yes"/>
      <point x="371.975" y="371.53"/>
      <point x="371.988" y="371.374"/>
      <point x="371.995" y="371.216" type="curve" smooth="yes"/>
      <point x="377.99" y="230.329" type="line"/>
      <point x="381.693" y="188.095"/>
      <point x="381.81" y="146.362"/>
      <point x="386.912" y="105.021" type="curve" smooth="yes"/>
      <point x="393.571" y="82.3174"/>
      <point x="399.719" y="59.9971"/>
      <point x="404.825" y="36.3467" type="curve" smooth="yes"/>
      <point x="413.468" y="11.2119"/>
      <point x="416.812" y="-1.53418"/>
      <point x="416.812" y="-7.81445" type="curve" smooth="yes"/>
      <point x="416.812" y="-7.86035"/>
      <point x="416.818" y="-7.99023"/>
      <point x="416.818" y="-8.18555" type="curve" smooth="yes"/>
      <point x="416.818" y="-9.66406"/>
      <point x="416.5" y="-14.8574"/>
      <point x="411.024" y="-14.8574" type="curve" smooth="yes"/>
      <point x="408.103" y="-14.8574"/>
      <point x="406.881" y="-13.2617"/>
      <point x="406.199" y="-12.5557" type="curve" smooth="yes"/>
      <point x="405.136" y="-11.4561"/>
      <point x="404.29" y="-10.2188"/>
      <point x="403.36" y="-8.69922" type="curve" smooth="yes"/>
      <point x="401.291" y="-5.31445"/>
      <point x="398.952" y="-0.491211"/>
      <point x="396.518" y="5.42773" type="curve" smooth="yes"/>
      <point x="391.13" y="18.5312"/>
      <point x="385.371" y="36.8828"/>
      <point x="383.13" y="54.6406" type="curve"/>
      <point x="366.159" y="92.7598"/>
      <point x="366.968" y="133.405"/>
      <point x="356.256" y="174.377" type="curve"/>
      <point x="336.441" y="220.887"/>
      <point x="328.3" y="273.357"/>
      <point x="302.753" y="314.361" type="curve" smooth="yes"/>
      <point x="302.657" y="314.515"/>
      <point x="302.57" y="314.674"/>
      <point x="302.491" y="314.838" type="curve" smooth="yes"/>
      <point x="276.325" y="369.242"/>
      <point x="218.802" y="398.04"/>
      <point x="162.194" y="416.566" type="curve"/>
      <point x="166.363" y="372.608"/>
      <point x="173.234" y="328.952"/>
      <point x="178.758" y="285.28" type="curve" smooth="yes"/>
      <point x="182.388" y="256.582"/>
      <point x="186.229" y="226.33"/>
      <point x="186.229" y="196.838" type="curve" smooth="yes"/>
      <point x="186.229" y="182.453"/>
      <point x="185.313" y="168.247"/>
      <point x="182.985" y="154.488" type="curve" smooth="yes"/>
      <point x="180.909" y="95.1055"/>
      <point x="158.845" y="29.7764"/>
      <point x="109.016" y="-7.9873" type="curve" smooth="yes"/>
      <point x="108.178" y="-8.62305"/>
      <point x="107.133" y="-9"/>
      <point x="106" y="-9" type="curve" smooth="yes"/>
      <point x="100" y="-9" type="line" smooth="yes"/>
      <point x="97.2402" y="-9"/>
      <point x="95" y="-6.75977"/>
      <point x="95" y="-4" type="curve" smooth="yes"/>
      <point x="95" y="-1.24023"/>
      <point x="97.2402" y="1"/>
      <point x="100" y="1" type="curve" smooth="yes"/>
      <point x="104.304" y="1" type="line"/>
      <point x="149.921" y="36.4365"/>
      <point x="171.083" y="98.1797"/>
      <point x="173.003" y="155.171" type="curve" smooth="yes"/>
      <point x="173.011" y="155.4"/>
      <point x="173.034" y="155.626"/>
      <point x="173.071" y="155.847" type="curve" smooth="yes"/>
      <point x="175.322" y="169.014"/>
      <point x="176.229" y="182.772"/>
      <point x="176.229" y="196.838" type="curve" smooth="yes"/>
      <point x="176.229" y="230.229"/>
      <point x="171.035" y="265.828"/>
      <point x="167.037" y="298.386" type="curve" smooth="yes"/>
      <point x="162.084" y="338.725"/>
      <point x="155.526" y="378.903"/>
      <point x="151.844" y="419.848" type="curve"/>
      <point x="145.396" y="421.83"/>
      <point x="138.606" y="423.761"/>
      <point x="132.278" y="425.693" type="curve" smooth="yes"/>
      <point x="120.75" y="429.214"/>
      <point x="111.517" y="432"/>
      <point x="100" y="432" type="curve" smooth="yes"/>
      <point x="97.1387" y="432"/>
      <point x="96.3936" y="433.217"/>
      <point x="95.8213" y="433.667" type="curve" smooth="yes"/>
      <point x="93.2686" y="435.68"/>
      <point x="90.3057" y="439.183"/>
      <point x="88.4111" y="441.362" type="curve"/>
      <point x="54.1729" y="447.068" type="line" smooth="yes"/>
      <point x="51.8066" y="447.463"/>
      <point x="50" y="449.522"/>
      <point x="50" y="452" type="curve" smooth="yes"/>
      <point x="50" y="454.76"/>
      <point x="52.2402" y="457"/>
      <point x="55" y="457" type="curve" smooth="yes"/>
      <point x="55.2812" y="457"/>
      <point x="55.5576" y="456.977"/>
      <point x="55.8271" y="456.932" type="curve" smooth="yes"/>
      <point x="91.8271" y="450.932" type="line" smooth="yes"/>
      <point x="93.5371" y="450.646"/>
      <point x="94.5117" y="449.585"/>
      <point x="95.5244" y="448.419" type="curve" smooth="yes"/>
      <point x="96.9775" y="446.745"/>
      <point x="99.958" y="443.406"/>
      <point x="101.477" y="441.986" type="curve" smooth="yes"/>
      <point x="117.036" y="441.701"/>
      <point x="130.056" y="436.661"/>
      <point x="143.39" y="432.804" type="curve" smooth="yes"/>
      <point x="145.896" y="432.079"/>
      <point x="148.416" y="431.337"/>
      <point x="150.949" y="430.576" type="curve"/>
      <point x="149.735" y="446.435"/>
      <point x="149" y="462.493"/>
      <point x="149" y="478.908" type="curve" smooth="yes"/>
      <point x="148.86" y="482.802"/>
      <point x="148.791" y="486.694"/>
      <point x="148.791" y="490.586" type="curve" smooth="yes"/>
      <point x="148.791" y="587.668"/>
      <point x="191.775" y="683.39"/>
      <point x="255.39" y="755.464" type="curve" smooth="yes"/>
      <point x="259.333" y="759.933"/>
      <point x="268.738" y="770.604"/>
      <point x="278.278" y="779.369" type="curve" smooth="yes"/>
      <point x="285.672" y="786.161"/>
      <point x="293.329" y="793"/>
    </contour>
    <contour>
      <point x="299.379" y="779.174" type="curve" smooth="yes"/>
      <point x="299.379" y="780.302"/>
      <point x="299.295" y="781.444"/>
      <point x="299.177" y="782.354" type="curve"/>
      <point x="296.286" y="780.938"/>
      <point x="290.763" y="777.262"/>
      <point x="285.04" y="772.004" type="curve" smooth="yes"/>
      <point x="276.039" y="763.734"/>
      <point x="266.788" y="753.269"/>
      <point x="262.889" y="748.852" type="curve" smooth="yes"/>
      <point x="200.662" y="678.349"/>
      <point x="158.791" y="584.706"/>
      <point x="158.791" y="490.586" type="curve" smooth="yes"/>
      <point x="158.791" y="486.725"/>
      <point x="159" y="482.862"/>
      <point x="159" y="479" type="curve" smooth="yes"/>
      <point x="159" y="461.502"/>
      <point x="159.849" y="444.369"/>
      <point x="161.236" y="427.396" type="curve"/>
      <point x="219.819" y="408.75"/>
      <point x="282.568" y="379.061"/>
      <point x="311.391" y="319.408" type="curve"/>
      <point x="337.897" y="276.72"/>
      <point x="345.435" y="225.135"/>
      <point x="365.6" y="177.962" type="curve" smooth="yes"/>
      <point x="365.694" y="177.74"/>
      <point x="365.773" y="177.511"/>
      <point x="365.836" y="177.275" type="curve" smooth="yes"/>
      <point x="369.457" y="163.522"/>
      <point x="371.746" y="149.385"/>
      <point x="373.916" y="135.258" type="curve"/>
      <point x="371.518" y="166.812"/>
      <point x="370.769" y="198.255"/>
      <point x="368.02" y="229.558" type="curve" smooth="yes"/>
      <point x="368.013" y="229.633"/>
      <point x="368.008" y="229.708"/>
      <point x="368.005" y="229.784" type="curve" smooth="yes"/>
      <point x="362.015" y="370.548" type="line"/>
      <point x="341.06" y="523.221" type="line" smooth="yes"/>
      <point x="329.678" y="606.146"/>
      <point x="311.531" y="687.694"/>
      <point x="299.061" y="772.224" type="curve" smooth="yes"/>
      <point x="299.021" y="772.477"/>
      <point x="299" y="772.735"/>
      <point x="299" y="773" type="curve" smooth="yes"/>
      <point x="299" y="773.949"/>
      <point x="299.379" y="775.431"/>
    </contour>
  </outline>
</glyph>
<glyph name="B" format="2">
  <advance width="503"/>
  <unicode hex="0042"/>
  <outline>
    <contour>
      <point x="185.49" y="778.817" type="curve" smooth="yes"/>
      <point x="205.239" y="778.817"/>
      <point x="232.396" y="769.203"/>
      <point x="249.607" y="769.002" type="curve" smooth="yes"/>
      <point x="251.535" y="769.309"/>
      <point x="253.435" y="769.452"/>
      <point x="255.301" y="769.452" type="curve" smooth="yes"/>
      <point x="276.949" y="769.452"/>
      <point x="292.222" y="751.297"/>
      <point x="310.9" y="747.92" type="curve" smooth="yes"/>
      <point x="392.263" y="733.21"/>
      <point x="444.006" y="658.593"/>
      <point x="444.006" y="578" type="curve" smooth="yes"/>
      <point x="444.006" y="577.539"/>
      <point x="443.944" y="577.093"/>
      <point x="443.827" y="576.669" type="curve" smooth="yes"/>
      <point x="423.062" y="501.403"/>
      <point x="335.955" y="443.346"/>
      <point x="257.878" y="443.346" type="curve" smooth="yes"/>
      <point x="247.046" y="443.346"/>
      <point x="233.487" y="444.919"/>
      <point x="225.301" y="446.438" type="curve"/>
      <point x="225.119" y="444.682"/>
      <point x="225.006" y="443.421"/>
      <point x="225.006" y="443" type="curve" smooth="yes"/>
      <point x="227.333" y="436.214"/>
      <point x="246.939" y="423.576"/>
      <point x="273.795" y="406.701" type="curve" smooth="yes"/>
      <point x="340.49" y="364.793"/>
      <point x="453.006" y="295.072"/>
      <point x="453.006" y="194" type="curve" smooth="yes"/>
      <point x="453.006" y="85.1699"/>
      <point x="389.488" y="27"/>
      <point x="289.006" y="27" type="curve" smooth="yes"/>
      <point x="252.486" y="27"/>
      <point x="220.74" y="52.1426"/>
      <point x="191.237" y="63.3223" type="curve" smooth="yes"/>
      <point x="189.883" y="63.8359"/>
      <point x="188.81" y="64.9199"/>
      <point x="188.311" y="66.2803" type="curve" smooth="yes"/>
      <point x="155.311" y="156.28" type="line" smooth="yes"/>
      <point x="155.138" y="156.751"/>
      <point x="155.034" y="157.255"/>
      <point x="155.011" y="157.779" type="curve" smooth="yes"/>
      <point x="152.002" y="227" type="line" smooth="yes"/>
      <point x="152.002" y="229.76"/>
      <point x="154.247" y="232"/>
      <point x="157.006" y="232" type="curve" smooth="yes"/>
      <point x="159.692" y="232"/>
      <point x="161.886" y="229.878"/>
      <point x="162.002" y="227.221" type="curve" smooth="yes"/>
      <point x="164.968" y="158.995" type="line"/>
      <point x="196.924" y="71.8438" type="line"/>
      <point x="224.38" y="60.9385"/>
      <point x="257.235" y="37"/>
      <point x="289.006" y="37" type="curve" smooth="yes"/>
      <point x="384.647" y="37"/>
      <point x="443.006" y="90.1641"/>
      <point x="443.006" y="194" type="curve" smooth="yes"/>
      <point x="443.006" y="287.587"/>
      <point x="336.229" y="355.661"/>
      <point x="268.485" y="398.228" type="curve" smooth="yes"/>
      <point x="251.967" y="408.607"/>
      <point x="237.969" y="417.378"/>
      <point x="228.462" y="424.851" type="curve" smooth="yes"/>
      <point x="221.264" y="430.509"/>
      <point x="215.006" y="435.873"/>
      <point x="215.006" y="443" type="curve" smooth="yes"/>
      <point x="215.006" y="444.013"/>
      <point x="215.186" y="446.164"/>
      <point x="215.457" y="448.841" type="curve" smooth="yes"/>
      <point x="210.075" y="450.596"/>
      <point x="203.784" y="453.541"/>
      <point x="203.784" y="459.788" type="curve" smooth="yes"/>
      <point x="203.784" y="468.716"/>
      <point x="217.018" y="473.231"/>
      <point x="221.384" y="474.73" type="curve" smooth="yes"/>
      <point x="221.893" y="474.905"/>
      <point x="222.438" y="475"/>
      <point x="223.006" y="475" type="curve" smooth="yes"/>
      <point x="225.766" y="475"/>
      <point x="228.006" y="472.76"/>
      <point x="228.006" y="470" type="curve" smooth="yes"/>
      <point x="228.006" y="469.788"/>
      <point x="227.993" y="469.578"/>
      <point x="227.968" y="469.373" type="curve" smooth="yes"/>
      <point x="227.968" y="469.373"/>
      <point x="227.19" y="463.021"/>
      <point x="226.433" y="456.534" type="curve"/>
      <point x="233.511" y="455.095"/>
      <point x="247.568" y="453.346"/>
      <point x="257.878" y="453.346" type="curve" smooth="yes"/>
      <point x="331.525" y="453.346"/>
      <point x="414.358" y="508.979"/>
      <point x="434.005" y="578.683" type="curve"/>
      <point x="433.715" y="654.973"/>
      <point x="384.784" y="724.398"/>
      <point x="309.112" y="738.08" type="curve" smooth="yes"/>
      <point x="298.898" y="739.927"/>
      <point x="290.238" y="744.916"/>
      <point x="282.25" y="749.428" type="curve" smooth="yes"/>
      <point x="272.614" y="754.87"/>
      <point x="264.103" y="759.452"/>
      <point x="255.301" y="759.452" type="curve" smooth="yes"/>
      <point x="253.586" y="759.452"/>
      <point x="251.784" y="759"/>
      <point x="250.006" y="759" type="curve" smooth="yes"/>
      <point x="235.501" y="759"/>
      <point x="210.56" y="765.684"/>
      <point x="195.235" y="768.06" type="curve" smooth="yes"/>
      <point x="191.92" y="768.573"/>
      <point x="188.67" y="768.817"/>
      <point x="185.49" y="768.817" type="curve" smooth="yes"/>
      <point x="146.979" y="768.817"/>
      <point x="116.198" y="732.215"/>
      <point x="107.996" y="697.379" type="curve" smooth="yes"/>
      <point x="107.756" y="689.814"/>
      <point x="103.686" y="677.701"/>
      <point x="101.879" y="669.872" type="curve" smooth="yes"/>
      <point x="86.9082" y="609.988" type="line"/>
      <point x="68.9883" y="499.484" type="line"/>
      <point x="60.0176" y="293.143" type="line"/>
      <point x="71.9385" y="173.935" type="line"/>
      <point x="87.9082" y="116.957"/>
      <point x="104.248" y="61.8369"/>
      <point x="125.668" y="6.81152" type="curve" smooth="yes"/>
      <point x="125.887" y="6.24902"/>
      <point x="126.006" y="5.63867"/>
      <point x="126.006" y="5" type="curve" smooth="yes"/>
      <point x="126.006" y="2.24023"/>
      <point x="123.766" y="0"/>
      <point x="121.006" y="0" type="curve" smooth="yes"/>
      <point x="118.886" y="0"/>
      <point x="117.071" y="1.32324"/>
      <point x="116.345" y="3.18848" type="curve" smooth="yes"/>
      <point x="94.6777" y="58.8496"/>
      <point x="78.2227" y="114.438"/>
      <point x="62.1914" y="171.649" type="curve" smooth="yes"/>
      <point x="62.1143" y="171.924"/>
      <point x="62.0605" y="172.207"/>
      <point x="62.0312" y="172.497" type="curve" smooth="yes"/>
      <point x="50.0312" y="292.497" type="line" smooth="yes"/>
      <point x="50.0146" y="292.663"/>
      <point x="49.9941" y="292.831"/>
      <point x="50.002" y="293" type="curve" smooth="yes"/>
      <point x="59.0107" y="500.221" type="line" smooth="yes"/>
      <point x="59.0195" y="500.419"/>
      <point x="59.04" y="500.613"/>
      <point x="59.0713" y="500.805" type="curve" smooth="yes"/>
      <point x="77.0713" y="611.805" type="line" smooth="yes"/>
      <point x="77.0938" y="611.943"/>
      <point x="77.1211" y="612.08"/>
      <point x="77.1553" y="612.215" type="curve" smooth="yes"/>
      <point x="82.6328" y="634.125"/>
      <point x="87.8428" y="656.192"/>
      <point x="93.6426" y="677.974" type="curve" smooth="yes"/>
      <point x="95.4629" y="684.81"/>
      <point x="98.0059" y="695.199"/>
      <point x="98.0059" y="698" type="curve" smooth="yes"/>
      <point x="98.0059" y="698.385"/>
      <point x="98.0498" y="698.761"/>
      <point x="98.1328" y="699.121" type="curve" smooth="yes"/>
      <point x="106.815" y="736.979"/>
      <point x="140.213" y="778.817"/>
    </contour>
    <contour>
      <point x="216.928" y="461.712" type="curve"/>
      <point x="216.828" y="460.895"/>
      <point x="216.727" y="460.05"/>
      <point x="216.623" y="459.191" type="curve"/>
      <point x="215.737" y="459.524"/>
      <point x="215.079" y="459.814"/>
      <point x="214.609" y="460.044" type="curve"/>
      <point x="215.182" y="460.516"/>
      <point x="215.982" y="461.117"/>
    </contour>
  </outline>
</glyph>
<glyph name="C" format="2">
  <advance width="446"/>
  <unicode hex="0043"/>
  <outline>
    <contour>
      <point x="378.001953125" y="686.0" type="curve" smooth="yes"/>
      <point x="378.001953125" y="683.240234375"/>
      <point x="375.76171875" y="681.0"/>
      <point x="373.001953125" y="681.0" type="curve" smooth="yes"/>
      <point x="370.447265625" y="681.0"/>
      <point x="368.337890625" y="682.919921875"/>
      <point x="368.038085938" y="685.393554688" type="curve" smooth="yes"/>
      <point x="364.685546875" y="713.0703125"/>
      <point x="352.916992188" y="742.362304688"/>
      <point x="329.594726562" y="749.201171875" type="curve" smooth="yes"/>
      <point x="320.602539062" y="751.837890625"/>
      <point x="311.758789062" y="756.844726562"/>
      <point x="303.1015625" y="761.6796875" type="curve" smooth="yes"/>
      <point x="290.568359375" y="768.680664062"/>
      <point x="278.615234375" y="775.0"/>
      <point x="269.001953125" y="775.0" type="curve" smooth="yes"/>
      <point x="168.774414062" y="775.0"/>
      <point x="144.280273438" y="699.923828125"/>
      <point x="119.064453125" y="622.42578125" type="curve" smooth="yes"/>
      <point x="106.994140625" y="585.326171875"/>
      <point x="95.0302734375" y="548.147460938"/>
      <point x="73.8291015625" y="520.084960938" type="curve"/>
      <point x="60.009765625" y="387.807617188" type="line"/>
      <point x="63.9921875" y="246.4296875" type="line"/>
      <point x="71.9228515625" y="190.913085938" type="line"/>
      <point x="75.8447265625" y="173.642578125"/>
      <point x="79.0791015625" y="157.669921875"/>
      <point x="87.3974609375" y="142.384765625" type="curve" smooth="yes"/>
      <point x="91.482421875" y="134.876953125"/>
      <point x="95.7255859375" y="124.106445312"/>
      <point x="100.580078125" y="111.874023438" type="curve" smooth="yes"/>
      <point x="109.0703125" y="90.4765625"/>
      <point x="119.364257812" y="64.71875"/>
      <point x="131.952148438" y="46.529296875" type="curve" smooth="yes"/>
      <point x="142.142578125" y="31.8056640625"/>
      <point x="153.171875" y="23.0"/>
      <point x="165.001953125" y="23.0" type="curve" smooth="yes"/>
      <point x="179.001953125" y="23.0" type="line" smooth="yes"/>
      <point x="179.697265625" y="23.0"/>
      <point x="180.359375" y="22.857421875"/>
      <point x="180.961914062" y="22.6005859375" type="curve" smooth="yes"/>
      <point x="209.938476562" y="10.2294921875"/>
      <point x="241.23828125" y="2.9169921875"/>
      <point x="274.75" y="2.9169921875" type="curve" smooth="yes"/>
      <point x="316.0390625" y="2.9169921875"/>
      <point x="331.478515625" y="16.115234375"/>
      <point x="355.888671875" y="37.5322265625" type="curve" smooth="yes"/>
      <point x="359.32421875" y="40.5458984375"/>
      <point x="362.923828125" y="43.7041015625"/>
      <point x="366.775390625" y="46.97265625" type="curve"/>
      <point x="384.032226562" y="92.9892578125" type="line"/>
      <point x="386.004882812" y="152.168945312" type="line" smooth="yes"/>
      <point x="386.09375" y="154.850585938"/>
      <point x="388.298828125" y="157.0"/>
      <point x="391.001953125" y="157.0" type="curve" smooth="yes"/>
      <point x="393.76171875" y="157.0"/>
      <point x="396.096679688" y="154.7578125"/>
      <point x="396.004882812" y="152.0" type="curve" smooth="yes"/>
      <point x="393.999023438" y="91.8310546875" type="line" smooth="yes"/>
      <point x="393.98046875" y="91.275390625"/>
      <point x="393.87109375" y="90.7421875"/>
      <point x="393.685546875" y="90.24609375" type="curve" smooth="yes"/>
      <point x="375.685546875" y="42.24609375" type="line" smooth="yes"/>
      <point x="375.381835938" y="41.4365234375"/>
      <point x="374.873046875" y="40.7255859375"/>
      <point x="374.223632812" y="40.1767578125" type="curve" smooth="yes"/>
      <point x="347.198242188" y="17.3779296875"/>
      <point x="327.950195312" y="-5.7568359375"/>
      <point x="281.13671875" y="-6.998046875" type="curve" smooth="yes"/>
      <point x="279.0" y="-7.0546875"/>
      <point x="276.87109375" y="-7.0830078125"/>
      <point x="274.75" y="-7.0830078125" type="curve" smooth="yes"/>
      <point x="240.110351562" y="-7.0830078125"/>
      <point x="207.776367188" y="0.41015625"/>
      <point x="177.982421875" y="13.0" type="curve"/>
      <point x="165.001953125" y="13.0" type="line" smooth="yes"/>
      <point x="147.897460938" y="13.0"/>
      <point x="134.466796875" y="25.3251953125"/>
      <point x="123.723632812" y="40.8486328125" type="curve" smooth="yes"/>
      <point x="110.145507812" y="60.4677734375"/>
      <point x="99.7841796875" y="86.76171875"/>
      <point x="91.2802734375" y="108.19140625" type="curve" smooth="yes"/>
      <point x="86.439453125" y="120.391601562"/>
      <point x="82.1787109375" y="131.052734375"/>
      <point x="78.607421875" y="137.615234375" type="curve" smooth="yes"/>
      <point x="69.3447265625" y="154.63671875"/>
      <point x="66.1201171875" y="171.318359375"/>
      <point x="62.1259765625" y="188.888671875" type="curve" smooth="yes"/>
      <point x="62.0966796875" y="189.01953125"/>
      <point x="62.0712890625" y="189.153320312"/>
      <point x="62.052734375" y="189.288085938" type="curve" smooth="yes"/>
      <point x="54.052734375" y="245.288085938" type="line" smooth="yes"/>
      <point x="54.025390625" y="245.474609375"/>
      <point x="54.009765625" y="245.6640625"/>
      <point x="54.00390625" y="245.856445312" type="curve" smooth="yes"/>
      <point x="50.0" y="388.0" type="line" smooth="yes"/>
      <point x="50.0" y="388.176757812"/>
      <point x="50.01171875" y="388.352539062"/>
      <point x="50.029296875" y="388.524414062" type="curve" smooth="yes"/>
      <point x="64.029296875" y="522.524414062" type="line" smooth="yes"/>
      <point x="64.1279296875" y="523.46875"/>
      <point x="64.490234375" y="524.3359375"/>
      <point x="65.041015625" y="525.049804688" type="curve" smooth="yes"/>
      <point x="85.2548828125" y="551.256835938"/>
      <point x="97.3017578125" y="587.862304688"/>
      <point x="109.552734375" y="625.518554688" type="curve" smooth="yes"/>
      <point x="134.443359375" y="702.017578125"/>
      <point x="161.375" y="785.0"/>
      <point x="269.001953125" y="785.0" type="curve" smooth="yes"/>
      <point x="291.220703125" y="785.0"/>
      <point x="313.498046875" y="764.34375"/>
      <point x="332.409179688" y="758.798828125" type="curve" smooth="yes"/>
      <point x="362.495117188" y="749.977539062"/>
      <point x="374.529296875" y="714.970703125"/>
      <point x="377.965820312" y="686.606445312" type="curve" smooth="yes"/>
      <point x="377.965820312" y="686.407226562"/>
      <point x="378.001953125" y="686.205078125"/>
    </contour>
  </outline>
</glyph>
<glyph name="D" format="2">
  <advance width="463"/>
  <unicode hex="0044"/>
  <outline>
    <contour>
      <point x="149.333" y="84.1768" type="curve"/>
      <point x="176.644" y="83.3877"/>
      <point x="208.12" y="79"/>
      <point x="235" y="79" type="curve" smooth="yes"/>
      <point x="312.298" y="79"/>
      <point x="342.989" y="160.107"/>
      <point x="371.432" y="237.283" type="curve" smooth="yes"/>
      <point x="377.794" y="254.545"/>
      <point x="384.009" y="271.417"/>
      <point x="390.648" y="286.838" type="curve"/>
      <point x="403.177" y="425.865" type="line"/>
      <point x="321.383" y="665.401" type="line" smooth="yes"/>
      <point x="300.142" y="727.61"/>
      <point x="236.551" y="757"/>
      <point x="169" y="757" type="curve" smooth="yes"/>
      <point x="104.102" y="757"/>
      <point x="70.0986" y="726.62"/>
      <point x="59.8975" y="676.989" type="curve" smooth="yes"/>
      <point x="59.4297" y="674.714"/>
      <point x="57.4131" y="673"/>
      <point x="55" y="673" type="curve" smooth="yes"/>
      <point x="52.2402" y="673"/>
      <point x="50" y="675.24"/>
      <point x="50" y="678" type="curve" smooth="yes"/>
      <point x="50" y="678.346"/>
      <point x="50.0352" y="678.684"/>
      <point x="50.1025" y="679.011" type="curve" smooth="yes"/>
      <point x="61.2354" y="733.177"/>
      <point x="100.287" y="767"/>
      <point x="169" y="767" type="curve" smooth="yes"/>
      <point x="239.002" y="767"/>
      <point x="307.728" y="736.347"/>
      <point x="330.85" y="668.63" type="curve" smooth="yes"/>
      <point x="412.985" y="428.091" type="line" smooth="yes"/>
      <point x="413.158" y="427.585"/>
      <point x="413.252" y="427.041"/>
      <point x="413.252" y="426.477" type="curve" smooth="yes"/>
      <point x="413.252" y="426.323"/>
      <point x="413.245" y="426.172"/>
      <point x="413.231" y="426.022" type="curve" smooth="yes"/>
      <point x="400.536" y="285.136" type="line" smooth="yes"/>
      <point x="400.487" y="284.598"/>
      <point x="400.354" y="284.084"/>
      <point x="400.147" y="283.607" type="curve" smooth="yes"/>
      <point x="393.545" y="268.35"/>
      <point x="387.281" y="251.363"/>
      <point x="380.818" y="233.829" type="curve" smooth="yes"/>
      <point x="353.038" y="158.452"/>
      <point x="320.869" y="69"/>
      <point x="235" y="69" type="curve" smooth="yes"/>
      <point x="207.403" y="69"/>
      <point x="175.821" y="73.4668"/>
      <point x="148.217" y="74.2031" type="curve"/>
      <point x="144.546" y="45.6201"/>
      <point x="136.936" y="18.9961"/>
      <point x="123.33" y="-4.5" type="curve" smooth="yes"/>
      <point x="122.465" y="-5.99414"/>
      <point x="120.849" y="-7"/>
      <point x="119" y="-7" type="curve" smooth="yes"/>
      <point x="118.423" y="-7"/>
      <point x="117.868" y="-6.90234"/>
      <point x="117.353" y="-6.72168" type="curve" smooth="yes"/>
      <point x="97.3623" y="0.262695"/>
      <point x="59.9463" y="0.941406"/>
      <point x="59.9463" y="28.4395" type="curve" smooth="yes"/>
      <point x="59.9463" y="29.1045"/>
      <point x="59.959" y="29.8027"/>
      <point x="60.0215" y="30.4707" type="curve" smooth="yes"/>
      <point x="64.1377" y="74.4727"/>
      <point x="100.091" y="84.124"/>
      <point x="139.287" y="84.3086" type="curve"/>
      <point x="140.503" y="96.5762"/>
      <point x="141.039" y="109.256"/>
      <point x="141.039" y="122.265" type="curve" smooth="yes"/>
      <point x="141.039" y="210.936"/>
      <point x="115.97" y="314.129"/>
      <point x="115.97" y="402.758" type="curve" smooth="yes"/>
      <point x="115.97" y="404.531"/>
      <point x="115.979" y="406.238"/>
      <point x="116" y="408" type="curve" smooth="yes"/>
      <point x="116" y="676" type="line" smooth="yes"/>
      <point x="116" y="678.76"/>
      <point x="118.24" y="681"/>
      <point x="121" y="681" type="curve" smooth="yes"/>
      <point x="123.76" y="681"/>
      <point x="126" y="678.76"/>
      <point x="126" y="676" type="curve" smooth="yes"/>
      <point x="126" y="408" type="line" smooth="yes"/>
      <point x="125.979" y="406.279"/>
      <point x="125.97" y="404.492"/>
      <point x="125.97" y="402.758" type="curve" smooth="yes"/>
      <point x="125.97" y="314.559"/>
      <point x="151.039" y="211.328"/>
      <point x="151.039" y="122.265" type="curve" smooth="yes"/>
      <point x="151.039" y="109.297"/>
      <point x="150.524" y="96.5703"/>
    </contour>
    <contour>
      <point x="69.9463" y="28.4395" type="curve" smooth="yes"/>
      <point x="69.9463" y="16.6094"/>
      <point x="83.9453" y="12.2188"/>
      <point x="103.608" y="7.42871" type="curve" smooth="yes"/>
      <point x="108.006" y="6.35742"/>
      <point x="112.432" y="5.28516"/>
      <point x="116.646" y="4.0166" type="curve"/>
      <point x="128.018" y="24.8994"/>
      <point x="134.713" y="48.6055"/>
      <point x="138.129" y="74.3008" type="curve"/>
      <point x="100.221" y="73.9717"/>
      <point x="73.3594" y="65.3262"/>
      <point x="69.9844" y="29.5967" type="curve" smooth="yes"/>
      <point x="69.959" y="29.1963"/>
      <point x="69.9463" y="28.8115"/>
    </contour>
  </outline>
</glyph>
<glyph name="E" format="2">
  <advance width="432"/>
  <unicode hex="0045"/>
  <outline>
    <contour>
      <point x="53.60546875" y="577.978515625" type="curve" smooth="yes"/>
      <point x="53.60546875" y="583.702148438"/>
      <point x="52.8212890625" y="589.095703125"/>
      <point x="52.8212890625" y="594.526367188" type="curve" smooth="yes"/>
      <point x="52.8212890625" y="638.09375"/>
      <point x="71.35546875" y="681.61328125"/>
      <point x="97.59375" y="716.694335938" type="curve"/>
      <point x="115.094726562" y="749.038085938"/>
      <point x="149.659179688" y="770.159179688"/>
      <point x="187.182617188" y="774.958984375" type="curve" smooth="yes"/>
      <point x="187.391601562" y="774.986328125"/>
      <point x="187.60546875" y="775.0"/>
      <point x="187.822265625" y="775.0" type="curve" smooth="yes"/>
      <point x="218.786132812" y="775.0"/>
      <point x="249.228515625" y="769.471679688"/>
      <point x="279.900390625" y="768.999023438" type="curve" smooth="yes"/>
      <point x="293.159179688" y="768.795898438"/>
      <point x="304.911132812" y="761.956054688"/>
      <point x="315.657226562" y="755.935546875" type="curve" smooth="yes"/>
      <point x="325.361328125" y="750.5"/>
      <point x="334.311523438" y="745.69921875"/>
      <point x="342.276367188" y="744.979492188" type="curve" smooth="yes"/>
      <point x="344.823242188" y="744.75"/>
      <point x="346.822265625" y="742.606445312"/>
      <point x="346.822265625" y="740.0" type="curve" smooth="yes"/>
      <point x="346.822265625" y="737.240234375"/>
      <point x="344.58203125" y="735.0"/>
      <point x="341.822265625" y="735.0" type="curve" smooth="yes"/>
      <point x="341.668945312" y="735.0"/>
      <point x="341.517578125" y="735.006835938"/>
      <point x="341.3671875" y="735.020507812" type="curve" smooth="yes"/>
      <point x="320.37109375" y="736.916015625"/>
      <point x="300.122070312" y="758.6875"/>
      <point x="279.744140625" y="759.000976562" type="curve" smooth="yes"/>
      <point x="249.018554688" y="759.473632812"/>
      <point x="218.611328125" y="764.958984375"/>
      <point x="188.146484375" y="765.0" type="curve" smooth="yes"/>
      <point x="153.37109375" y="760.45703125"/>
      <point x="121.845703125" y="740.766601562"/>
      <point x="106.231445312" y="711.642578125" type="curve" smooth="yes"/>
      <point x="106.112304688" y="711.418945312"/>
      <point x="105.975585938" y="711.205078125"/>
      <point x="105.82421875" y="711.00390625" type="curve" smooth="yes"/>
      <point x="80.451171875" y="677.184570312"/>
      <point x="62.8212890625" y="635.3515625"/>
      <point x="62.8212890625" y="594.526367188" type="curve" smooth="yes"/>
      <point x="62.8212890625" y="594.443359375"/>
      <point x="62.8212890625" y="594.360351562"/>
      <point x="62.8212890625" y="594.27734375" type="curve" smooth="yes"/>
      <point x="63.3896484375" y="588.927734375"/>
      <point x="63.60546875" y="583.479492188"/>
      <point x="63.60546875" y="577.978515625" type="curve" smooth="yes"/>
      <point x="63.60546875" y="559.073242188"/>
      <point x="61.03125" y="539.19921875"/>
      <point x="61.03125" y="520.450195312" type="curve" smooth="yes"/>
      <point x="61.03125" y="494.30078125"/>
      <point x="65.9052734375" y="471.765625"/>
      <point x="88.650390625" y="456.123046875" type="curve" smooth="yes"/>
      <point x="91.5283203125" y="454.143554688"/>
      <point x="94.00390625" y="451.352539062"/>
      <point x="96.69921875" y="448.455078125" type="curve" smooth="yes"/>
      <point x="102.400390625" y="442.32421875"/>
      <point x="108.103515625" y="437.291015625"/>
      <point x="111.529296875" y="437.01171875" type="curve" smooth="yes"/>
      <point x="112.932617188" y="437.208984375"/>
      <point x="114.3203125" y="437.296875"/>
      <point x="115.684570312" y="437.296875" type="curve" smooth="yes"/>
      <point x="126.34375" y="437.296875"/>
      <point x="135.198242188" y="432.358398438"/>
      <point x="144.573242188" y="430.944335938" type="curve" smooth="yes"/>
      <point x="161.171875" y="428.440429688"/>
      <point x="172.321289062" y="417.0"/>
      <point x="189.822265625" y="417.0" type="curve" smooth="yes"/>
      <point x="217.822265625" y="417.0" type="line" smooth="yes"/>
      <point x="220.58203125" y="417.0"/>
      <point x="222.822265625" y="414.759765625"/>
      <point x="222.822265625" y="412.0" type="curve" smooth="yes"/>
      <point x="222.822265625" y="409.661132812"/>
      <point x="221.213867188" y="407.696289062"/>
      <point x="219.04296875" y="407.150390625" type="curve" smooth="yes"/>
      <point x="184.6640625" y="398.5078125"/>
      <point x="135.41015625" y="367.577148438"/>
      <point x="109.921875" y="331.138671875" type="curve" smooth="yes"/>
      <point x="109.627929688" y="330.717773438"/>
      <point x="109.26953125" y="330.34375"/>
      <point x="108.86328125" y="330.03125" type="curve" smooth="yes"/>
      <point x="74.2353515625" y="303.448242188"/>
      <point x="60.109375" y="269.475585938"/>
      <point x="60.109375" y="228.500976562" type="curve" smooth="yes"/>
      <point x="60.109375" y="223.125976562"/>
      <point x="60.822265625" y="217.603515625"/>
      <point x="60.822265625" y="212.0" type="curve" smooth="yes"/>
      <point x="60.822265625" y="202.2421875"/>
      <point x="60.0" y="192.185546875"/>
      <point x="60.0" y="182.513671875" type="curve" smooth="yes"/>
      <point x="60.0" y="159.434570312"/>
      <point x="62.568359375" y="137.650390625"/>
      <point x="74.103515625" y="118.583007812" type="curve" smooth="yes"/>
      <point x="74.31640625" y="118.231445312"/>
      <point x="74.486328125" y="117.8515625"/>
      <point x="74.6083984375" y="117.450195312" type="curve" smooth="yes"/>
      <point x="94.88671875" y="50.548828125"/>
      <point x="166.428710938" y="12.2431640625"/>
      <point x="233.916015625" y="10.9990234375" type="curve" smooth="yes"/>
      <point x="234.379882812" y="10.990234375"/>
      <point x="234.829101562" y="10.9189453125"/>
      <point x="235.25390625" y="10.7919921875" type="curve" smooth="yes"/>
      <point x="243.8828125" y="8.2138671875"/>
      <point x="252.32421875" y="7.0263671875"/>
      <point x="260.53125" y="7.0263671875" type="curve" smooth="yes"/>
      <point x="294.711914062" y="7.0263671875"/>
      <point x="325.767578125" y="27.81640625"/>
      <point x="347.856445312" y="57.044921875" type="curve" smooth="yes"/>
      <point x="367.5625" y="82.662109375" type="line"/>
      <point x="373.346679688" y="94.2314453125" type="line" smooth="yes"/>
      <point x="374.16796875" y="95.8720703125"/>
      <point x="375.864257812" y="97.0"/>
      <point x="377.822265625" y="97.0" type="curve" smooth="yes"/>
      <point x="380.58203125" y="97.0"/>
      <point x="382.822265625" y="94.759765625"/>
      <point x="382.822265625" y="92.0" type="curve" smooth="yes"/>
      <point x="382.822265625" y="91.1982421875"/>
      <point x="382.6328125" y="90.4404296875"/>
      <point x="382.296875" y="89.7685546875" type="curve" smooth="yes"/>
      <point x="376.296875" y="77.7685546875" type="line" smooth="yes"/>
      <point x="376.153320312" y="77.48046875"/>
      <point x="375.982421875" y="77.208984375"/>
      <point x="375.787109375" y="76.955078125" type="curve" smooth="yes"/>
      <point x="355.787109375" y="50.955078125" type="line" smooth="yes"/>
      <point x="332.4765625" y="20.1103515625"/>
      <point x="298.922851562" y="-2.9736328125"/>
      <point x="260.53125" y="-2.9736328125" type="curve" smooth="yes"/>
      <point x="251.548828125" y="-2.9736328125"/>
      <point x="242.353515625" y="-1.7001953125"/>
      <point x="233.046875" y="1.0146484375" type="curve" smooth="yes"/>
      <point x="162.912109375" y="2.552734375"/>
      <point x="87.32421875" y="42.171875"/>
      <point x="65.2177734375" y="113.956054688" type="curve"/>
      <point x="52.515625" y="135.276367188"/>
      <point x="50.0" y="158.978515625"/>
      <point x="50.0" y="182.513671875" type="curve" smooth="yes"/>
      <point x="50.0" y="192.341796875"/>
      <point x="50.443359375" y="202.209960938"/>
      <point x="50.814453125" y="211.885742188" type="curve" smooth="yes"/>
      <point x="50.349609375" y="217.514648438"/>
      <point x="50.109375" y="223.053710938"/>
      <point x="50.109375" y="228.500976562" type="curve" smooth="yes"/>
      <point x="50.109375" y="271.743164062"/>
      <point x="65.4453125" y="309.0234375"/>
      <point x="102.16796875" y="337.495117188" type="curve"/>
      <point x="123.15625" y="367.1640625"/>
      <point x="157.66796875" y="392.6015625"/>
      <point x="189.23828125" y="407.002929688" type="curve"/>
      <point x="169.830078125" y="407.23046875"/>
      <point x="159.313476562" y="418.606445312"/>
      <point x="143.071289062" y="421.055664062" type="curve" smooth="yes"/>
      <point x="134.142578125" y="422.403320312"/>
      <point x="124.344726562" y="427.296875"/>
      <point x="115.684570312" y="427.296875" type="curve" smooth="yes"/>
      <point x="114.376953125" y="427.296875"/>
      <point x="113.112304688" y="427.0"/>
      <point x="111.822265625" y="427.0" type="curve" smooth="yes"/>
      <point x="98.119140625" y="427.0"/>
      <point x="91.166015625" y="442.2578125"/>
      <point x="82.994140625" y="447.876953125" type="curve" smooth="yes"/>
      <point x="56.39453125" y="466.169921875"/>
      <point x="51.03125" y="493.220703125"/>
      <point x="51.03125" y="520.450195312" type="curve" smooth="yes"/>
      <point x="51.03125" y="539.401367188"/>
      <point x="53.60546875" y="559.275390625"/>
    </contour>
  </outline>
</glyph>
<glyph name="F" format="2">
  <advance width="542"/>
  <unicode hex="0046"/>
  <outline>
    <contour>
      <point x="83.0" y="419.0" type="line" smooth="yes"/>
      <point x="80.240234375" y="419.0"/>
      <point x="78.0" y="421.240234375"/>
      <point x="78.0" y="424.0" type="curve" smooth="yes"/>
      <point x="78.0" y="426.759765625"/>
      <point x="80.240234375" y="429.0"/>
      <point x="83.0" y="429.0" type="curve" smooth="yes"/>
      <point x="91.0" y="429.0" type="line" smooth="yes"/>
      <point x="125.78125" y="429.0"/>
      <point x="161.49609375" y="415.377929688"/>
      <point x="193.611328125" y="408.977539062" type="curve"/>
      <point x="279.235351562" y="404.994140625" type="line" smooth="yes"/>
      <point x="281.885742188" y="404.87109375"/>
      <point x="284.0" y="402.680664062"/>
      <point x="284.0" y="400.0" type="curve" smooth="yes"/>
      <point x="284.0" y="397.240234375"/>
      <point x="281.759765625" y="395.0"/>
      <point x="279.0" y="395.0" type="curve" smooth="yes"/>
      <point x="278.920898438" y="395.0"/>
      <point x="278.842773438" y="395.001953125"/>
      <point x="278.764648438" y="395.005859375" type="curve" smooth="yes"/>
      <point x="192.764648438" y="399.005859375" type="line" smooth="yes"/>
      <point x="192.512695312" y="399.017578125"/>
      <point x="192.265625" y="399.047851562"/>
      <point x="192.024414062" y="399.095703125" type="curve" smooth="yes"/>
      <point x="160.638671875" y="405.310546875"/>
      <point x="123.749023438" y="419.0"/>
      <point x="91.0" y="419.0" type="curve" smooth="yes"/>
    </contour>
    <contour>
      <point x="160.780273438" y="285.7109375" type="curve" smooth="yes"/>
      <point x="160.780273438" y="367.123046875"/>
      <point x="170.22265625" y="447.7109375"/>
      <point x="170.22265625" y="528.955078125" type="curve" smooth="yes"/>
      <point x="170.22265625" y="535.8671875"/>
      <point x="170.154296875" y="542.782226562"/>
      <point x="170.004882812" y="549.700195312" type="curve" smooth="yes"/>
      <point x="166.399414062" y="586.971679688"/>
      <point x="169.083007812" y="628.313476562"/>
      <point x="165.603515625" y="665.784179688" type="curve"/>
      <point x="137.182617188" y="670.6171875"/>
      <point x="119.365234375" y="696.864257812"/>
      <point x="104.599609375" y="718.0" type="curve" smooth="yes"/>
      <point x="97.1845703125" y="728.614257812"/>
      <point x="90.3203125" y="738.30859375"/>
      <point x="83.6640625" y="744.276367188" type="curve" smooth="yes"/>
      <point x="82.642578125" y="745.192382812"/>
      <point x="81.9443359375" y="746.522460938"/>
      <point x="81.9970703125" y="748.0" type="curve" smooth="yes"/>
      <point x="84.0029296875" y="804.181640625" type="line" smooth="yes"/>
      <point x="84.0986328125" y="806.857421875"/>
      <point x="86.30078125" y="809.0"/>
      <point x="89.0" y="809.0" type="curve" smooth="yes"/>
      <point x="90.3427734375" y="809.0"/>
      <point x="91.5625" y="808.469726562"/>
      <point x="92.4609375" y="807.606445312" type="curve" smooth="yes"/>
      <point x="142.4609375" y="759.606445312" type="line" smooth="yes"/>
      <point x="142.590820312" y="759.482421875"/>
      <point x="142.712890625" y="759.3515625"/>
      <point x="142.828125" y="759.21484375" type="curve" smooth="yes"/>
      <point x="162.764648438" y="735.505859375"/>
      <point x="171.162109375" y="706.055664062"/>
      <point x="174.809570312" y="675.0" type="curve" smooth="yes"/>
      <point x="174.873046875" y="675.0"/>
      <point x="174.936523438" y="675.0"/>
      <point x="175.0" y="675.0" type="curve" smooth="yes"/>
      <point x="207.623046875" y="675.0"/>
      <point x="246.86328125" y="700.672851562"/>
      <point x="288.09375" y="728.23828125" type="curve" smooth="yes"/>
      <point x="325.958984375" y="753.552734375"/>
      <point x="365.333007812" y="780.134765625"/>
      <point x="404.133789062" y="786.924804688" type="curve" smooth="yes"/>
      <point x="409.385742188" y="787.84375"/>
      <point x="414.682617188" y="788.319335938"/>
      <point x="419.91015625" y="788.319335938" type="curve"/>
      <point x="418.678710938" y="789.344726562"/>
      <point x="418.118164062" y="790.069335938"/>
      <point x="418.118164062" y="790.513671875" type="curve" smooth="yes"/>
      <point x="418.118164062" y="790.879882812"/>
      <point x="418.497070312" y="791.056640625"/>
      <point x="419.194335938" y="791.056640625" type="curve" smooth="yes"/>
      <point x="427.00390625" y="791.056640625"/>
      <point x="474.684570312" y="768.880859375"/>
      <point x="475.946289062" y="741.66796875" type="curve"/>
      <point x="481.67578125" y="733.2265625"/>
      <point x="483.567382812" y="723.094726562"/>
      <point x="485.392578125" y="714.09765625" type="curve" smooth="yes"/>
      <point x="486.982421875" y="706.256835938"/>
      <point x="488.543945312" y="699.208984375"/>
      <point x="491.305664062" y="694.541015625" type="curve" smooth="yes"/>
      <point x="491.747070312" y="693.795898438"/>
      <point x="492.0" y="692.927734375"/>
      <point x="492.0" y="692.0" type="curve" smooth="yes"/>
      <point x="492.0" y="689.240234375"/>
      <point x="489.759765625" y="687.0"/>
      <point x="487.0" y="687.0" type="curve" smooth="yes"/>
      <point x="485.16796875" y="687.0"/>
      <point x="483.564453125" y="687.987304688"/>
      <point x="482.694335938" y="689.458984375" type="curve" smooth="yes"/>
      <point x="474.499023438" y="703.305664062"/>
      <point x="476.008789062" y="724.888671875"/>
      <point x="466.985351562" y="737.020507812" type="curve" smooth="yes"/>
      <point x="466.38671875" y="737.826171875"/>
      <point x="466.0234375" y="738.817382812"/>
      <point x="466.000976562" y="739.892578125" type="curve" smooth="yes"/>
      <point x="465.436523438" y="766.572265625"/>
      <point x="445.064453125" y="778.319335938"/>
      <point x="419.91015625" y="778.319335938" type="curve" smooth="yes"/>
      <point x="415.301757812" y="778.319335938"/>
      <point x="410.572265625" y="777.8984375"/>
      <point x="405.866210938" y="777.075195312" type="curve" smooth="yes"/>
      <point x="370.176757812" y="770.829101562"/>
      <point x="331.58984375" y="745.290039062"/>
      <point x="293.641601562" y="719.918945312" type="curve" smooth="yes"/>
      <point x="253.025390625" y="692.763671875"/>
      <point x="212.931640625" y="665.405273438"/>
      <point x="175.823242188" y="665.004882812" type="curve"/>
      <point x="179.064453125" y="627.505859375"/>
      <point x="176.422851562" y="586.978515625"/>
      <point x="179.9765625" y="550.489257812" type="curve" smooth="yes"/>
      <point x="180.661132812" y="543.453125"/>
      <point x="180.22265625" y="536.032226562"/>
      <point x="180.22265625" y="528.955078125" type="curve" smooth="yes"/>
      <point x="180.22265625" y="447.533203125"/>
      <point x="170.780273438" y="366.946289062"/>
      <point x="170.780273438" y="285.7109375" type="curve" smooth="yes"/>
      <point x="170.780273438" y="269.915039062"/>
      <point x="171.137695312" y="254.106445312"/>
      <point x="171.9921875" y="238.2734375" type="curve" smooth="yes"/>
      <point x="171.997070312" y="238.182617188"/>
      <point x="172.0" y="238.091796875"/>
      <point x="172.0" y="238.0" type="curve" smooth="yes"/>
      <point x="172.0" y="237.629882812"/>
      <point x="171.959960938" y="237.268554688"/>
      <point x="171.8828125" y="236.920898438" type="curve" smooth="yes"/>
      <point x="169.625976562" y="226.674804688"/>
      <point x="168.874023438" y="213.470703125"/>
      <point x="168.874023438" y="198.662109375" type="curve" smooth="yes"/>
      <point x="168.874023438" y="174.012695312"/>
      <point x="170.671875" y="147.045898438"/>
      <point x="170.671875" y="121.698242188" type="curve" smooth="yes"/>
      <point x="170.671875" y="60.0908203125"/>
      <point x="160.272460938" y="-3.298828125"/>
      <point x="88.7421875" y="1.0068359375" type="curve" smooth="yes"/>
      <point x="75.7607421875" y="1.66796875"/>
      <point x="63.767578125" y="1.177734375"/>
      <point x="52.5087890625" y="7.6640625" type="curve" smooth="yes"/>
      <point x="51.009765625" y="8.5283203125"/>
      <point x="50.0" y="10.1474609375"/>
      <point x="50.0" y="12.0" type="curve" smooth="yes"/>
      <point x="50.0" y="14.759765625"/>
      <point x="52.240234375" y="17.0"/>
      <point x="55.0" y="17.0" type="curve" smooth="yes"/>
      <point x="55.90625" y="17.0"/>
      <point x="56.7568359375" y="16.7578125"/>
      <point x="57.4912109375" y="16.3359375" type="curve" smooth="yes"/>
      <point x="65.501953125" y="11.7197265625"/>
      <point x="76.9482421875" y="11.6201171875"/>
      <point x="89.2578125" y="10.9931640625" type="curve" smooth="yes"/>
      <point x="91.365234375" y="10.8662109375"/>
      <point x="93.4521484375" y="10.8017578125"/>
      <point x="95.427734375" y="10.8017578125" type="curve" smooth="yes"/>
      <point x="151.40625" y="10.8017578125"/>
      <point x="160.671875" y="61.1669921875"/>
      <point x="160.671875" y="121.698242188" type="curve" smooth="yes"/>
      <point x="160.671875" y="146.956054688"/>
      <point x="158.874023438" y="173.89453125"/>
      <point x="158.874023438" y="198.662109375" type="curve" smooth="yes"/>
      <point x="158.874023438" y="213.508789062"/>
      <point x="159.557617188" y="227.049804688"/>
      <point x="161.970703125" y="238.405273438" type="curve" smooth="yes"/>
      <point x="161.130859375" y="254.219726562"/>
      <point x="160.780273438" y="269.985351562"/>
    </contour>
    <contour>
      <point x="135.342773438" y="752.58203125" type="curve"/>
      <point x="93.59765625" y="792.65625" type="line"/>
      <point x="92.078125" y="750.100585938" type="line"/>
      <point x="99.380859375" y="743.043945312"/>
      <point x="105.930664062" y="733.555664062"/>
      <point x="112.803710938" y="723.717773438" type="curve" smooth="yes"/>
      <point x="127.421875" y="702.791015625"/>
      <point x="142.729492188" y="681.561523438"/>
      <point x="164.458007812" y="676.2578125" type="curve"/>
      <point x="160.791015625" y="705.103515625"/>
      <point x="152.876953125" y="731.618164062"/>
    </contour>
  </outline>
</glyph>
<glyph name="G" format="2">
  <advance width="524"/>
  <unicode hex="0047"/>
  <outline>
    <contour>
      <point x="284.015" y="253" type="curve" smooth="yes"/>
      <point x="284.015" y="246.83"/>
      <point x="286.015" y="239.882"/>
      <point x="286.015" y="233" type="curve" smooth="yes"/>
      <point x="286.015" y="218.514"/>
      <point x="294.991" y="204.768"/>
      <point x="305.28" y="189.593" type="curve" smooth="yes"/>
      <point x="315.989" y="173.798"/>
      <point x="328.015" y="156.482"/>
      <point x="328.015" y="135" type="curve" smooth="yes"/>
      <point x="328.015" y="102.195"/>
      <point x="318.916" y="65.8828"/>
      <point x="294.618" y="41.5342" type="curve" smooth="yes"/>
      <point x="268.486" y="13.3584"/>
      <point x="229.278" y="-0.96582"/>
      <point x="193.16" y="-1.99805" type="curve" smooth="yes"/>
      <point x="193.111" y="-1.99902"/>
      <point x="193.063" y="-2"/>
      <point x="193.015" y="-2" type="curve" smooth="yes"/>
      <point x="192.351" y="-2"/>
      <point x="191.716" y="-1.87012"/>
      <point x="191.136" y="-1.63477" type="curve" smooth="yes"/>
      <point x="136.941" y="20.3818"/>
      <point x="105.706" y="84.4707"/>
      <point x="86.5986" y="159.461" type="curve" smooth="yes"/>
      <point x="62.6172" y="253.574"/>
      <point x="57.4785" y="367.044"/>
      <point x="53.9326" y="444.647" type="curve" smooth="yes"/>
      <point x="53.2773" y="458.98"/>
      <point x="52.6777" y="472.083"/>
      <point x="52.0293" y="483.593" type="curve" smooth="yes"/>
      <point x="50.6787" y="496.466"/>
      <point x="50" y="509.437"/>
      <point x="50" y="522.385" type="curve" smooth="yes"/>
      <point x="50" y="650.786"/>
      <point x="117.437" y="778.999"/>
      <point x="260.309" y="778.999" type="curve" smooth="yes"/>
      <point x="274.671" y="778.999"/>
      <point x="289.753" y="777.697"/>
      <point x="305.559" y="774.98" type="curve" smooth="yes"/>
      <point x="353.745" y="772.731"/>
      <point x="392.617" y="737.323"/>
      <point x="424.149" y="711.894" type="curve" smooth="yes"/>
      <point x="425.287" y="710.977"/>
      <point x="426.015" y="709.573"/>
      <point x="426.015" y="708" type="curve" smooth="yes"/>
      <point x="426.015" y="705.24"/>
      <point x="423.774" y="703"/>
      <point x="421.015" y="703" type="curve" smooth="yes"/>
      <point x="419.828" y="703"/>
      <point x="418.737" y="703.414"/>
      <point x="417.879" y="704.106" type="curve" smooth="yes"/>
      <point x="386.447" y="729.455"/>
      <point x="348.444" y="763.107"/>
      <point x="304.794" y="765.005" type="curve" smooth="yes"/>
      <point x="304.578" y="765.015"/>
      <point x="304.366" y="765.037"/>
      <point x="304.158" y="765.073" type="curve" smooth="yes"/>
      <point x="288.76" y="767.736"/>
      <point x="274.146" y="768.999"/>
      <point x="260.309" y="768.999" type="curve" smooth="yes"/>
      <point x="125.22" y="768.999"/>
      <point x="60" y="648.201"/>
      <point x="60" y="522.385" type="curve" smooth="yes"/>
      <point x="60" y="509.754"/>
      <point x="60.6641" y="497.092"/>
      <point x="61.9873" y="484.528" type="curve" smooth="yes"/>
      <point x="63.21" y="472.907"/>
      <point x="63.2617" y="459.543"/>
      <point x="63.9219" y="445.111" type="curve" smooth="yes"/>
      <point x="67.4658" y="367.562"/>
      <point x="72.6758" y="254.608"/>
      <point x="96.2891" y="161.935" type="curve" smooth="yes"/>
      <point x="115.132" y="87.9854"/>
      <point x="145.531" y="28.3135"/>
      <point x="193.929" y="8.03223" type="curve"/>
      <point x="227.485" y="9.25098"/>
      <point x="263.726" y="22.8857"/>
      <point x="287.346" y="48.3955" type="curve" smooth="yes"/>
      <point x="287.39" y="48.4424"/>
      <point x="287.434" y="48.4893"/>
      <point x="287.479" y="48.5352" type="curve" smooth="yes"/>
      <point x="309.13" y="70.1855"/>
      <point x="318.015" y="103.836"/>
      <point x="318.015" y="135" type="curve" smooth="yes"/>
      <point x="318.015" y="170.661"/>
      <point x="276.015" y="196.395"/>
      <point x="276.015" y="233" type="curve" smooth="yes"/>
      <point x="276.015" y="239.431"/>
      <point x="274.015" y="246.335"/>
      <point x="274.015" y="253" type="curve" smooth="yes"/>
      <point x="274.015" y="283.714"/>
      <point x="308.433" y="296"/>
      <point x="333.015" y="296" type="curve" smooth="yes"/>
      <point x="354.361" y="296"/>
      <point x="375.443" y="298.538"/>
      <point x="395.774" y="298.538" type="curve" smooth="yes"/>
      <point x="408.688" y="298.538"/>
      <point x="420.235" y="297.359"/>
      <point x="429.527" y="292.367" type="curve" smooth="yes"/>
      <point x="441.537" y="285.915"/>
      <point x="448.015" y="273.455"/>
      <point x="448.015" y="254" type="curve" smooth="yes"/>
      <point x="448.015" y="198.225"/>
      <point x="404.015" y="152.243"/>
      <point x="404.015" y="98" type="curve" smooth="yes"/>
      <point x="404.015" y="84.5459"/>
      <point x="418.228" y="74.7012"/>
      <point x="425.722" y="64.7842" type="curve"/>
      <point x="469.452" y="60.9814" type="line" smooth="yes"/>
      <point x="472.008" y="60.7588"/>
      <point x="474.015" y="58.6123"/>
      <point x="474.015" y="56" type="curve" smooth="yes"/>
      <point x="474.015" y="53.2402"/>
      <point x="471.774" y="51"/>
      <point x="469.015" y="51" type="curve" smooth="yes"/>
      <point x="468.867" y="51"/>
      <point x="468.721" y="51.0068"/>
      <point x="468.576" y="51.0186" type="curve" smooth="yes"/>
      <point x="422.576" y="55.0186" type="line" smooth="yes"/>
      <point x="421.054" y="55.1514"/>
      <point x="419.726" y="55.9678"/>
      <point x="418.9" y="57.1592" type="curve" smooth="yes"/>
      <point x="410.529" y="69.251"/>
      <point x="394.015" y="78.0918"/>
      <point x="394.015" y="98" type="curve" smooth="yes"/>
      <point x="394.015" y="153.775"/>
      <point x="438.015" y="199.757"/>
      <point x="438.015" y="254" type="curve" smooth="yes"/>
      <point x="438.015" y="271.363"/>
      <point x="432.87" y="279.219"/>
      <point x="424.806" y="283.552" type="curve" smooth="yes"/>
      <point x="418.038" y="287.188"/>
      <point x="408.116" y="288.538"/>
      <point x="395.774" y="288.538" type="curve" smooth="yes"/>
      <point x="375.673" y="288.538"/>
      <point x="354.505" y="286"/>
      <point x="333.015" y="286" type="curve" smooth="yes"/>
      <point x="309.596" y="286"/>
      <point x="284.015" y="274.286"/>
    </contour>
  </outline>
</glyph>
<glyph name="H" format="2">
  <advance width="782"/>
  <unicode hex="0048"/>
  <outline>
    <contour>
      <point x="328.4765625" y="746.307617188" type="curve"/>
      <point x="332.268554688" y="750.1640625"/>
      <point x="335.083984375" y="755.015625"/>
      <point x="336.634765625" y="760.877929688" type="curve"/>
      <point x="333.71875" y="757.267578125"/>
      <point x="330.961914062" y="752.354492188"/>
    </contour>
    <contour>
      <point x="322.650390625" y="309.801757812" type="curve"/>
      <point x="398.331054688" y="371.9765625"/>
      <point x="484.391601562" y="433.125976562"/>
      <point x="538.421875" y="509.736328125" type="curve"/>
      <point x="535.216796875" y="540.733398438"/>
      <point x="531.271484375" y="572.911132812"/>
      <point x="531.271484375" y="605.020507812" type="curve" smooth="yes"/>
      <point x="531.271484375" y="612.69921875"/>
      <point x="531.494140625" y="620.413085938"/>
      <point x="532.0" y="628.170898438" type="curve" smooth="yes"/>
      <point x="532.048828125" y="640.58984375"/>
      <point x="537.272460938" y="687.040039062"/>
      <point x="548.043945312" y="726.931640625" type="curve" smooth="yes"/>
      <point x="552.84765625" y="744.719726562"/>
      <point x="558.701171875" y="761.134765625"/>
      <point x="566.103515625" y="772.734375" type="curve" smooth="yes"/>
      <point x="571.895507812" y="781.811523438"/>
      <point x="579.30859375" y="789.0"/>
      <point x="589.0" y="789.0" type="curve" smooth="yes"/>
      <point x="596.452148438" y="789.0"/>
      <point x="597.955078125" y="781.078125"/>
      <point x="598.625" y="777.354492188" type="curve" smooth="yes"/>
      <point x="599.73828125" y="771.163085938"/>
      <point x="599.71875" y="763.565429688"/>
      <point x="599.739257812" y="757.810546875" type="curve" smooth="yes"/>
      <point x="599.751953125" y="754.321289062"/>
      <point x="599.853515625" y="751.272460938"/>
      <point x="599.923828125" y="750.872070312" type="curve" smooth="yes"/>
      <point x="603.9453125" y="728.041015625"/>
      <point x="605.841796875" y="706.396484375"/>
      <point x="605.841796875" y="685.809570312" type="curve" smooth="yes"/>
      <point x="605.841796875" y="615.043945312"/>
      <point x="583.458984375" y="557.249023438"/>
      <point x="548.75390625" y="507.016601562" type="curve" smooth="yes"/>
      <point x="549.16015625" y="503.01953125"/>
      <point x="549.5546875" y="499.012695312"/>
      <point x="549.9296875" y="494.995117188" type="curve" smooth="yes"/>
      <point x="564.000976562" y="449.98828125"/>
      <point x="564.680664062" y="390.931640625"/>
      <point x="565.501953125" y="330.418945312" type="curve" smooth="yes"/>
      <point x="567.090820312" y="213.288085938"/>
      <point x="569.630859375" y="94.5224609375"/>
      <point x="658.862304688" y="58.640625" type="curve" smooth="yes"/>
      <point x="668.07421875" y="54.9365234375"/>
      <point x="718.3203125" y="29.01171875"/>
      <point x="722.946289062" y="26.623046875" type="curve" smooth="yes"/>
      <point x="726.57421875" y="25.4130859375"/>
      <point x="732.0" y="24.6875"/>
      <point x="732.0" y="20.0" type="curve" smooth="yes"/>
      <point x="732.0" y="17.240234375"/>
      <point x="729.759765625" y="15.0"/>
      <point x="727.0" y="15.0" type="curve" smooth="yes"/>
      <point x="724.317382812" y="15.0"/>
      <point x="721.713867188" y="16.490234375"/>
      <point x="719.419921875" y="17.2548828125" type="curve" smooth="yes"/>
      <point x="718.926757812" y="17.419921875"/>
      <point x="664.051757812" y="45.7744140625"/>
      <point x="655.137695312" y="49.359375" type="curve" smooth="yes"/>
      <point x="557.853515625" y="88.478515625"/>
      <point x="557.064453125" y="215.186523438"/>
      <point x="555.502929688" y="330.28125" type="curve" smooth="yes"/>
      <point x="554.678710938" y="391.036132812"/>
      <point x="553.760742188" y="449.630859375"/>
      <point x="540.23046875" y="492.495117188" type="curve" smooth="yes"/>
      <point x="540.01953125" y="493.163085938"/>
      <point x="539.984375" y="493.9375"/>
      <point x="539.91015625" y="494.724609375" type="curve"/>
      <point x="482.884765625" y="418.494140625"/>
      <point x="397.974609375" y="359.299804688"/>
      <point x="323.247070312" y="297.286132812" type="curve"/>
      <point x="325.157226562" y="256.286132812"/>
      <point x="326.853515625" y="219.833007812"/>
      <point x="326.853515625" y="177.03125" type="curve" smooth="yes"/>
      <point x="326.853515625" y="108.688476562"/>
      <point x="319.060546875" y="-1.0"/>
      <point x="241.0" y="-1.0" type="curve" smooth="yes"/>
      <point x="240.953125" y="-1.0"/>
      <point x="240.907226562" y="-0.9990234375"/>
      <point x="240.860351562" y="-0.998046875" type="curve" smooth="yes"/>
      <point x="202.424804688" y="0.0546875"/>
      <point x="150.684570312" y="30.0888671875"/>
      <point x="150.684570312" y="74.458984375" type="curve" smooth="yes"/>
      <point x="150.684570312" y="78.58984375"/>
      <point x="151.061523438" y="83.021484375"/>
      <point x="152.159179688" y="87.2568359375" type="curve" smooth="yes"/>
      <point x="175.09765625" y="175.73828125"/>
      <point x="240.080078125" y="241.034179688"/>
      <point x="313.021484375" y="301.834960938" type="curve"/>
      <point x="309.440429688" y="377.252929688"/>
      <point x="304.28515625" y="454.650390625"/>
      <point x="304.28515625" y="531.569335938" type="curve" smooth="yes"/>
      <point x="304.28515625" y="555.607421875"/>
      <point x="304.784179688" y="579.694335938"/>
      <point x="305.986328125" y="603.844726562" type="curve" smooth="yes"/>
      <point x="304.779296875" y="614.739257812"/>
      <point x="304.091796875" y="628.416015625"/>
      <point x="304.091796875" y="643.322265625" type="curve" smooth="yes"/>
      <point x="304.091796875" y="670.342773438"/>
      <point x="306.327148438" y="701.331054688"/>
      <point x="312.091796875" y="726.751953125" type="curve"/>
      <point x="307.2578125" y="725.583007812"/>
      <point x="302.173828125" y="725.0"/>
      <point x="297.0" y="725.0" type="curve" smooth="yes"/>
      <point x="217.151367188" y="725.0"/>
      <point x="171.380859375" y="787.0"/>
      <point x="93.0" y="787.0" type="curve" smooth="yes"/>
      <point x="80.126953125" y="787.0"/>
      <point x="70.5400390625" y="781.654296875"/>
      <point x="60.0" y="778.267578125" type="curve"/>
      <point x="60.0" y="716.499023438" type="line"/>
      <point x="69.9033203125" y="666.984375" type="line" smooth="yes"/>
      <point x="69.966796875" y="666.666015625"/>
      <point x="70.0" y="666.336914062"/>
      <point x="70.0" y="666.0" type="curve" smooth="yes"/>
      <point x="70.0" y="663.240234375"/>
      <point x="67.759765625" y="661.0"/>
      <point x="65.0" y="661.0" type="curve" smooth="yes"/>
      <point x="62.5771484375" y="661.0"/>
      <point x="60.5546875" y="662.7265625"/>
      <point x="60.0966796875" y="665.015625" type="curve" smooth="yes"/>
      <point x="50.0966796875" y="715.015625" type="line" smooth="yes"/>
      <point x="50.033203125" y="715.333984375"/>
      <point x="50.0" y="715.663085938"/>
      <point x="50.0" y="716.0" type="curve" smooth="yes"/>
      <point x="50.0" y="782.0" type="line" smooth="yes"/>
      <point x="50.0" y="784.307617188"/>
      <point x="51.5673828125" y="786.252929688"/>
      <point x="53.6943359375" y="786.827148438" type="curve" smooth="yes"/>
      <point x="66.4951171875" y="790.287109375"/>
      <point x="76.201171875" y="797.0"/>
      <point x="93.0" y="797.0" type="curve" smooth="yes"/>
      <point x="134.176757812" y="797.0"/>
      <point x="166.426757812" y="780.891601562"/>
      <point x="197.663085938" y="765.383789062" type="curve" smooth="yes"/>
      <point x="228.868164062" y="749.891601562"/>
      <point x="259.0625" y="735.0"/>
      <point x="297.0" y="735.0" type="curve" smooth="yes"/>
      <point x="303.483398438" y="735.0"/>
      <point x="309.5625" y="735.95703125"/>
      <point x="314.951171875" y="737.885742188" type="curve"/>
      <point x="320.3125" y="756.415039062"/>
      <point x="328.159179688" y="771.831054688"/>
      <point x="341.263671875" y="776.689453125" type="curve" smooth="yes"/>
      <point x="341.8046875" y="776.890625"/>
      <point x="342.389648438" y="777.0"/>
      <point x="343.0" y="777.0" type="curve" smooth="yes"/>
      <point x="345.759765625" y="777.0"/>
      <point x="348.0" y="774.759765625"/>
      <point x="348.0" y="772.0" type="curve" smooth="yes"/>
      <point x="348.0" y="751.622070312"/>
      <point x="337.810546875" y="737.924804688"/>
      <point x="323.374023438" y="730.802734375" type="curve"/>
      <point x="316.76171875" y="705.650390625"/>
      <point x="314.091796875" y="672.098632812"/>
      <point x="314.091796875" y="643.322265625" type="curve" smooth="yes"/>
      <point x="314.091796875" y="628.553710938"/>
      <point x="314.790039062" y="615.0234375"/>
      <point x="315.96875" y="604.564453125" type="curve" smooth="yes"/>
      <point x="315.989257812" y="604.379882812"/>
      <point x="316.0" y="604.19140625"/>
      <point x="316.0" y="604.0" type="curve" smooth="yes"/>
      <point x="316.0" y="603.915039062"/>
      <point x="315.998046875" y="603.830078125"/>
      <point x="315.994140625" y="603.74609375" type="curve" smooth="yes"/>
      <point x="314.787109375" y="579.654296875"/>
      <point x="314.28515625" y="555.600585938"/>
      <point x="314.28515625" y="531.569335938" type="curve" smooth="yes"/>
      <point x="314.28515625" y="457.641601562"/>
      <point x="319.106445312" y="382.643554688"/>
    </contour>
    <contour>
      <point x="587.959960938" y="778.930664062" type="curve" smooth="yes"/>
      <point x="584.001953125" y="778.412109375"/>
      <point x="579.36328125" y="774.92578125"/>
      <point x="574.5390625" y="767.365234375" type="curve" smooth="yes"/>
      <point x="568.133789062" y="757.328125"/>
      <point x="562.368164062" y="741.608398438"/>
      <point x="557.700195312" y="724.322265625" type="curve" smooth="yes"/>
      <point x="547.211914062" y="685.483398438"/>
      <point x="542.0" y="638.390625"/>
      <point x="542.0" y="628.0" type="curve" smooth="yes"/>
      <point x="542.0" y="620.322265625"/>
      <point x="541.271484375" y="612.6640625"/>
      <point x="541.271484375" y="605.020507812" type="curve" smooth="yes"/>
      <point x="541.271484375" y="577.602539062"/>
      <point x="544.19921875" y="550.209960938"/>
      <point x="547.122070312" y="522.634765625" type="curve"/>
      <point x="577.084960938" y="569.159179688"/>
      <point x="595.841796875" y="622.0859375"/>
      <point x="595.841796875" y="685.809570312" type="curve" smooth="yes"/>
      <point x="595.841796875" y="705.76953125"/>
      <point x="594.00390625" y="726.829101562"/>
      <point x="590.076171875" y="749.127929688" type="curve" smooth="yes"/>
      <point x="589.760742188" y="750.916015625"/>
      <point x="589.741210938" y="752.978515625"/>
      <point x="589.741210938" y="755.525390625" type="curve" smooth="yes"/>
      <point x="589.741210938" y="755.891601562"/>
      <point x="589.741210938" y="756.266601562"/>
      <point x="589.741210938" y="756.653320312" type="curve" smooth="yes"/>
      <point x="589.741210938" y="763.50390625"/>
      <point x="589.883789062" y="774.041992188"/>
    </contour>
    <contour>
      <point x="313.606445312" y="289.220703125" type="curve"/>
      <point x="243.670898438" y="230.211914062"/>
      <point x="183.354492188" y="167.626953125"/>
      <point x="161.859375" y="84.8173828125" type="curve" smooth="yes"/>
      <point x="161.05859375" y="81.2626953125"/>
      <point x="160.684570312" y="77.8095703125"/>
      <point x="160.684570312" y="74.458984375" type="curve" smooth="yes"/>
      <point x="160.684570312" y="38.4365234375"/>
      <point x="205.629882812" y="10.005859375"/>
      <point x="241.0703125" y="9.0" type="curve" smooth="yes"/>
      <point x="306.758789062" y="9.068359375"/>
      <point x="316.853515625" y="105.4375"/>
      <point x="316.853515625" y="177.03125" type="curve" smooth="yes"/>
      <point x="316.853515625" y="217.15625"/>
      <point x="315.336914062" y="250.833007812"/>
    </contour>
  </outline>
</glyph>
<glyph name="I" format="2">
  <advance width="286"/>
  <unicode hex="0049"/>
  <outline>
    <contour>
      <point x="188.01" y="817.124" type="curve" smooth="yes"/>
      <point x="188.01" y="590.085"/>
      <point x="236.025" y="373.167"/>
      <point x="236.025" y="144" type="curve" smooth="yes"/>
      <point x="236.025" y="70.085"/>
      <point x="187.656" y="-9.72949"/>
      <point x="135.242" y="-9.72949" type="curve" smooth="yes"/>
      <point x="111.615" y="-9.72949"/>
      <point x="89.3604" y="7.02832"/>
      <point x="72.4766" y="43.9238" type="curve" smooth="yes"/>
      <point x="72.3438" y="44.2119"/>
      <point x="72.2383" y="44.5156"/>
      <point x="72.1631" y="44.8311" type="curve" smooth="yes"/>
      <point x="60.1631" y="94.8311" type="line" smooth="yes"/>
      <point x="60.0732" y="95.2061"/>
      <point x="60.0254" y="95.5977"/>
      <point x="60.0254" y="96" type="curve" smooth="yes"/>
      <point x="60.0254" y="98.7598"/>
      <point x="62.2656" y="101"/>
      <point x="65.0254" y="101" type="curve" smooth="yes"/>
      <point x="67.3818" y="101"/>
      <point x="69.3604" y="99.3652"/>
      <point x="69.8877" y="97.1689" type="curve" smooth="yes"/>
      <point x="81.7744" y="47.6406" type="line"/>
      <point x="97.8486" y="12.7598"/>
      <point x="117.097" y="0.270508"/>
      <point x="135.242" y="0.270508" type="curve" smooth="yes"/>
      <point x="177.94" y="0.270508"/>
      <point x="226.025" y="72.0791"/>
      <point x="226.025" y="144" type="curve" smooth="yes"/>
      <point x="226.025" y="372.875"/>
      <point x="178.01" y="589.705"/>
      <point x="178.01" y="817.124" type="curve" smooth="yes"/>
      <point x="178.01" y="817.453"/>
      <point x="178.011" y="817.782"/>
      <point x="178.011" y="818.111" type="curve"/>
      <point x="123.616" y="807.168"/>
      <point x="60" y="737.805"/>
      <point x="60" y="676.502" type="curve" smooth="yes"/>
      <point x="60" y="654.771"/>
      <point x="67.7881" y="634.158"/>
      <point x="86.9111" y="617" type="curve"/>
      <point x="183.025" y="617" type="line" smooth="yes"/>
      <point x="185.785" y="617"/>
      <point x="188.025" y="614.76"/>
      <point x="188.025" y="612" type="curve" smooth="yes"/>
      <point x="188.025" y="609.24"/>
      <point x="185.785" y="607"/>
      <point x="183.025" y="607" type="curve" smooth="yes"/>
      <point x="85.0254" y="607" type="line" smooth="yes"/>
      <point x="83.7773" y="607"/>
      <point x="82.6348" y="607.458"/>
      <point x="81.7588" y="608.216" type="curve" smooth="yes"/>
      <point x="59.4307" y="627.512"/>
      <point x="50" y="651.646"/>
      <point x="50" y="676.502" type="curve" smooth="yes"/>
      <point x="50" y="745.682"/>
      <point x="121.335" y="821.231"/>
      <point x="182.393" y="828.96" type="curve" smooth="yes"/>
      <point x="182.6" y="828.986"/>
      <point x="182.811" y="829"/>
      <point x="183.025" y="829" type="curve" smooth="yes"/>
      <point x="185.785" y="829"/>
      <point x="188.03" y="826.76"/>
      <point x="188.025" y="823.978" type="curve" smooth="yes"/>
      <point x="188.021" y="821.692"/>
      <point x="188.01" y="819.407"/>
    </contour>
  </outline>
</glyph>
<glyph name="J" format="2">
  <advance width="376"/>
  <unicode hex="004A"/>
  <outline>
    <contour>
      <point x="133.0" y="487.0" type="curve" smooth="yes"/>
      <point x="134.817382812" y="487.0"/>
      <point x="136.78515625" y="486.327148438"/>
      <point x="138.408203125" y="486.327148438" type="curve" smooth="yes"/>
      <point x="145.9609375" y="486.327148438"/>
      <point x="152.268554688" y="492.038085938"/>
      <point x="159.819335938" y="499.500976562" type="curve" smooth="yes"/>
      <point x="166.755859375" y="506.356445312"/>
      <point x="174.922851562" y="515.0"/>
      <point x="186.919921875" y="515.0" type="curve" smooth="yes"/>
      <point x="186.954101562" y="515.0"/>
      <point x="186.987304688" y="515.0"/>
      <point x="187.021484375" y="515.0" type="curve" smooth="yes"/>
      <point x="189.771484375" y="515.0"/>
      <point x="192.0" y="512.751953125"/>
      <point x="192.0" y="510.0" type="curve" smooth="yes"/>
      <point x="192.0" y="507.240234375"/>
      <point x="189.759765625" y="505.0"/>
      <point x="186.919921875" y="505.0" type="curve" smooth="yes"/>
      <point x="180.18359375" y="505.0"/>
      <point x="174.223632812" y="499.680664062"/>
      <point x="166.84765625" y="492.389648438" type="curve" smooth="yes"/>
      <point x="159.705078125" y="485.331054688"/>
      <point x="151.124023438" y="476.327148438"/>
      <point x="138.408203125" y="476.327148438" type="curve" smooth="yes"/>
      <point x="136.45703125" y="476.327148438"/>
      <point x="134.453125" y="476.547851562"/>
      <point x="132.407226562" y="477.002929688" type="curve" smooth="yes"/>
      <point x="80.216796875" y="477.591796875"/>
      <point x="50.0" y="555.288085938"/>
      <point x="50.0" y="594.0" type="curve" smooth="yes"/>
      <point x="50.0" y="629.309570312"/>
      <point x="79.1142578125" y="654.711914062"/>
      <point x="105.375" y="678.252929688" type="curve" smooth="yes"/>
      <point x="131.120117188" y="701.33203125"/>
      <point x="154.0" y="722.625"/>
      <point x="154.0" y="748.0" type="curve" smooth="yes"/>
      <point x="154.0" y="757.951171875"/>
      <point x="157.975585938" y="763.583007812"/>
      <point x="158.0" y="771.94140625" type="curve" smooth="yes"/>
      <point x="157.8515625" y="778.01171875"/>
      <point x="157.78125" y="782.555664062"/>
      <point x="157.78125" y="785.848632812" type="curve" smooth="yes"/>
      <point x="157.78125" y="788.6015625"/>
      <point x="157.930664062" y="790.32421875"/>
      <point x="157.930664062" y="791.78125" type="curve" smooth="yes"/>
      <point x="157.930664062" y="792.037109375"/>
      <point x="157.887695312" y="792.25"/>
      <point x="157.887695312" y="792.510742188" type="curve" smooth="yes"/>
      <point x="157.887695312" y="794.323242188"/>
      <point x="159.49609375" y="797.438476562"/>
      <point x="163.177734375" y="797.438476562" type="curve" smooth="yes"/>
      <point x="168.966796875" y="797.438476562"/>
      <point x="168.573242188" y="792.41796875"/>
      <point x="169.18359375" y="788.043945312" type="curve" smooth="yes"/>
      <point x="171.0546875" y="774.634765625"/>
      <point x="173.749023438" y="746.520507812"/>
      <point x="175.876953125" y="737.10546875" type="curve" smooth="yes"/>
      <point x="175.958007812" y="736.75"/>
      <point x="176.0" y="736.379882812"/>
      <point x="176.0" y="736.0" type="curve" smooth="yes"/>
      <point x="176.0" y="729.67578125"/>
      <point x="175.5234375" y="723.381835938"/>
      <point x="175.5234375" y="717.124023438" type="curve" smooth="yes"/>
      <point x="175.5234375" y="601.864257812"/>
      <point x="228.0" y="497.961914062"/>
      <point x="228.0" y="382.0" type="curve" smooth="yes"/>
      <point x="228.0" y="362.05078125"/>
      <point x="228.084960938" y="341.918945312"/>
      <point x="228.219726562" y="321.653320312" type="curve"/>
      <point x="247.280273438" y="345.89453125"/>
      <point x="283.767578125" y="392.000976562"/>
      <point x="292.48828125" y="404.278320312" type="curve"/>
      <point x="316.254882812" y="475.580078125" type="line" smooth="yes"/>
      <point x="316.916992188" y="477.56640625"/>
      <point x="318.79296875" y="479.0"/>
      <point x="321.0" y="479.0" type="curve" smooth="yes"/>
      <point x="323.759765625" y="479.0"/>
      <point x="326.0" y="476.759765625"/>
      <point x="326.0" y="474.0" type="curve" smooth="yes"/>
      <point x="326.0" y="473.448242188"/>
      <point x="325.91015625" y="472.916015625"/>
      <point x="325.745117188" y="472.419921875" type="curve" smooth="yes"/>
      <point x="301.745117188" y="400.419921875" type="line" smooth="yes"/>
      <point x="301.58984375" y="399.954101562"/>
      <point x="301.368164062" y="399.51953125"/>
      <point x="301.090820312" y="399.125976562" type="curve" smooth="yes"/>
      <point x="290.16015625" y="383.600585938"/>
      <point x="248.776367188" y="331.671875"/>
      <point x="228.334960938" y="305.61328125" type="curve"/>
      <point x="228.908203125" y="232.130859375"/>
      <point x="230.0" y="157.82421875"/>
      <point x="230.0" y="84.0" type="curve" smooth="yes"/>
      <point x="230.0" y="79.0771484375"/>
      <point x="228.0" y="74.40234375"/>
      <point x="228.0" y="70.0" type="curve" smooth="yes"/>
      <point x="228.0" y="69.7978515625"/>
      <point x="227.98828125" y="69.5986328125"/>
      <point x="227.96484375" y="69.4033203125" type="curve" smooth="yes"/>
      <point x="223.837890625" y="34.7578125"/>
      <point x="181.263671875" y="-3.0"/>
      <point x="145.0" y="-3.0" type="curve" smooth="yes"/>
      <point x="129.737304688" y="-3.0"/>
      <point x="112.952148438" y="8.3046875"/>
      <point x="98.7490234375" y="22.287109375" type="curve" smooth="yes"/>
      <point x="80.986328125" y="39.7724609375"/>
      <point x="66.0" y="62.75"/>
      <point x="66.0" y="80.0" type="curve" smooth="yes"/>
      <point x="66.0" y="98.2890625"/>
      <point x="88.8916015625" y="134.377929688"/>
      <point x="119.288085938" y="177.624023438" type="curve" smooth="yes"/>
      <point x="148.60546875" y="219.333984375"/>
      <point x="185.6328125" y="267.342773438"/>
      <point x="218.30859375" y="309.03125" type="curve"/>
      <point x="218.123046875" y="333.553710938"/>
      <point x="218.0" y="357.905273438"/>
      <point x="218.0" y="382.0" type="curve" smooth="yes"/>
      <point x="218.0" y="497.170898438"/>
      <point x="165.5234375" y="601.079101562"/>
      <point x="165.5234375" y="717.124023438" type="curve" smooth="yes"/>
      <point x="165.5234375" y="723.240234375"/>
      <point x="165.66796875" y="729.390625"/>
      <point x="165.97265625" y="735.579101562" type="curve" smooth="yes"/>
      <point x="165.310546875" y="738.680664062"/>
      <point x="164.6484375" y="742.901367188"/>
      <point x="163.999023438" y="747.658203125" type="curve"/>
      <point x="163.8046875" y="716.428710938"/>
      <point x="137.044921875" y="693.215820312"/>
      <point x="112.045898438" y="670.805664062" type="curve" smooth="yes"/>
      <point x="85.19140625" y="646.732421875"/>
      <point x="60.0" y="623.453125"/>
      <point x="60.0" y="594.0" type="curve" smooth="yes"/>
      <point x="60.0" y="561.055664062"/>
      <point x="87.0" y="487.0"/>
    </contour>
    <contour>
      <point x="218.438476562" y="292.970703125" type="curve"/>
      <point x="187.801757812" y="253.755859375"/>
      <point x="154.319335938" y="210.075195312"/>
      <point x="127.475585938" y="171.883789062" type="curve" smooth="yes"/>
      <point x="97.0947265625" y="128.659179688"/>
      <point x="76.0" y="92.080078125"/>
      <point x="76.0" y="80.0" type="curve" smooth="yes"/>
      <point x="76.0" y="67.9638671875"/>
      <point x="88.8642578125" y="46.0478515625"/>
      <point x="105.762695312" y="29.412109375" type="curve" smooth="yes"/>
      <point x="119.288085938" y="16.09765625"/>
      <point x="134.58984375" y="7.0"/>
      <point x="145.0" y="7.0" type="curve" smooth="yes"/>
      <point x="175.541015625" y="7.0"/>
      <point x="214.35546875" y="41.52734375"/>
      <point x="218.001953125" y="70.3271484375" type="curve" smooth="yes"/>
      <point x="218.06640625" y="75.2109375"/>
      <point x="220.0" y="79.927734375"/>
      <point x="220.0" y="84.0" type="curve" smooth="yes"/>
      <point x="220.0" y="153.555664062"/>
      <point x="219.028320312" y="223.66796875"/>
    </contour>
  </outline>
</glyph>
<glyph name="K" format="2">
  <advance width="852"/>
  <unicode hex="004B"/>
  <outline>
    <contour>
      <point x="55" y="737" type="line" smooth="yes"/>
      <point x="52.2402" y="737"/>
      <point x="50" y="739.24"/>
      <point x="50" y="742" type="curve" smooth="yes"/>
      <point x="50" y="744.76"/>
      <point x="52.2402" y="747"/>
      <point x="55" y="747" type="curve" smooth="yes"/>
      <point x="103" y="747" type="line" smooth="yes"/>
      <point x="163.566" y="747"/>
      <point x="226.658" y="780.418"/>
      <point x="226.658" y="780.418" type="curve" smooth="yes"/>
      <point x="227.356" y="780.789"/>
      <point x="228.154" y="781"/>
      <point x="229" y="781" type="curve" smooth="yes"/>
      <point x="231.54" y="781"/>
      <point x="233.641" y="779.102"/>
      <point x="233.959" y="776.646" type="curve" smooth="yes"/>
      <point x="243.191" y="705.267"/>
      <point x="248.25" y="615.91"/>
      <point x="248.25" y="523.125" type="curve" smooth="yes"/>
      <point x="248.25" y="406.409"/>
      <point x="240.258" y="284.326"/>
      <point x="222.356" y="185.853" type="curve"/>
      <point x="287.779" y="319.638"/>
      <point x="362.873" y="449.543"/>
      <point x="486.044" y="540.032" type="curve" smooth="yes"/>
      <point x="495.834" y="547.224"/>
      <point x="517.929" y="570.861"/>
      <point x="543.044" y="597.937" type="curve" smooth="yes"/>
      <point x="568.654" y="625.544"/>
      <point x="597.759" y="656.934"/>
      <point x="622.361" y="679.555" type="curve" smooth="yes"/>
      <point x="641.782" y="697.412"/>
      <point x="658.45" y="711"/>
      <point x="671" y="711" type="curve" smooth="yes"/>
      <point x="673.058" y="711"/>
      <point x="674.826" y="709.755"/>
      <point x="675.594" y="707.977" type="curve" smooth="yes"/>
      <point x="689.405" y="675.962"/>
      <point x="695.679" y="645.889"/>
      <point x="695.679" y="617.999" type="curve" smooth="yes"/>
      <point x="695.679" y="480.263"/>
      <point x="544.233" y="401.202"/>
      <point x="412.591" y="401.202" type="curve" smooth="yes"/>
      <point x="402.217" y="401.202"/>
      <point x="391.943" y="401.689"/>
      <point x="381.848" y="402.678" type="curve"/>
      <point x="376.581" y="392.033"/>
      <point x="374.028" y="379.635"/>
      <point x="374.028" y="365.833" type="curve" smooth="yes"/>
      <point x="374.028" y="246.406"/>
      <point x="565.723" y="35"/>
      <point x="747" y="35" type="curve" smooth="yes"/>
      <point x="765.774" y="35"/>
      <point x="771.906" y="49.1436"/>
      <point x="779.123" y="66.4492" type="curve" smooth="yes"/>
      <point x="782.872" y="75.4414"/>
      <point x="786.607" y="84.8945"/>
      <point x="793.522" y="91.5918" type="curve" smooth="yes"/>
      <point x="794.423" y="92.4629"/>
      <point x="795.649" y="93"/>
      <point x="797" y="93" type="curve" smooth="yes"/>
      <point x="799.76" y="93"/>
      <point x="802" y="90.7598"/>
      <point x="802" y="88" type="curve" smooth="yes"/>
      <point x="802" y="86.5908"/>
      <point x="801.416" y="85.3174"/>
      <point x="800.478" y="84.4082" type="curve" smooth="yes"/>
      <point x="795.743" y="79.8242"/>
      <point x="792.149" y="71.7021"/>
      <point x="788.356" y="62.6074" type="curve" smooth="yes"/>
      <point x="781.545" y="46.2715"/>
      <point x="772.909" y="25"/>
      <point x="747" y="25" type="curve" smooth="yes"/>
      <point x="559.852" y="25"/>
      <point x="364.028" y="239.479"/>
      <point x="364.028" y="365.833" type="curve" smooth="yes"/>
      <point x="364.028" y="382.257"/>
      <point x="367.348" y="397.396"/>
      <point x="374.632" y="410.434" type="curve" smooth="yes"/>
      <point x="375.487" y="411.964"/>
      <point x="377.124" y="413"/>
      <point x="379" y="413" type="curve" smooth="yes"/>
      <point x="379.186" y="413"/>
      <point x="379.369" y="412.99"/>
      <point x="379.55" y="412.97" type="curve" smooth="yes"/>
      <point x="390.354" y="411.787"/>
      <point x="401.405" y="411.202"/>
      <point x="412.591" y="411.202" type="curve" smooth="yes"/>
      <point x="541.904" y="411.202"/>
      <point x="685.679" y="488.854"/>
      <point x="685.679" y="617.999" type="curve" smooth="yes"/>
      <point x="685.679" y="643.321"/>
      <point x="680.212" y="670.83"/>
      <point x="667.943" y="700.393" type="curve"/>
      <point x="660.426" y="697.881"/>
      <point x="645.991" y="687.7"/>
      <point x="629.126" y="672.193" type="curve" smooth="yes"/>
      <point x="605.002" y="650.011"/>
      <point x="575.971" y="618.729"/>
      <point x="550.376" y="591.139" type="curve" smooth="yes"/>
      <point x="525.131" y="563.925"/>
      <point x="503.569" y="540.5"/>
      <point x="491.956" y="531.968" type="curve" smooth="yes"/>
      <point x="360.277" y="435.228"/>
      <point x="283.882" y="291.888"/>
      <point x="214.282" y="146.084" type="curve"/>
      <point x="197.313" y="71.0391"/>
      <point x="173.597" y="13.8027"/>
      <point x="139.718" y="-8.19629" type="curve" smooth="yes"/>
      <point x="138.936" y="-8.70508"/>
      <point x="138.002" y="-9"/>
      <point x="137" y="-9" type="curve" smooth="yes"/>
      <point x="134.24" y="-9"/>
      <point x="132" y="-6.75977"/>
      <point x="132" y="-4" type="curve" smooth="yes"/>
      <point x="132" y="-3.19922"/>
      <point x="132.188" y="-2.44238"/>
      <point x="132.523" y="-1.77148" type="curve" smooth="yes"/>
      <point x="157.144" y="47.5479"/>
      <point x="180.749" y="99.0088"/>
      <point x="204.766" y="149.38" type="curve"/>
      <point x="228.38" y="253.907"/>
      <point x="238.25" y="390.995"/>
      <point x="238.25" y="523.125" type="curve" smooth="yes"/>
      <point x="238.25" y="612.52"/>
      <point x="233.523" y="698.744"/>
      <point x="224.924" y="768.369" type="curve"/>
      <point x="207.091" y="759.791"/>
      <point x="154.834" y="737"/>
      <point x="103" y="737" type="curve" smooth="yes"/>
    </contour>
    <contour>
      <point x="154.028" y="19.251" type="curve"/>
      <point x="167.592" y="36.9189"/>
      <point x="179.646" y="62.7617"/>
      <point x="190.014" y="94.7891" type="curve"/>
      <point x="178.071" y="69.4404"/>
      <point x="166.163" y="44.1816"/>
    </contour>
  </outline>
</glyph>
<glyph name="L" format="2">
  <advance width="618"/>
  <unicode hex="004C"/>
  <outline>
    <contour>
      <point x="204.55" y="117.556" type="curve"/>
      <point x="216.056" y="173.651"/>
      <point x="218.038" y="228.329"/>
      <point x="218.038" y="253.215" type="curve" smooth="yes"/>
      <point x="218.038" y="318.741"/>
      <point x="200.3" y="382.82"/>
      <point x="194.025" y="445.497" type="curve" smooth="yes"/>
      <point x="194.017" y="445.582"/>
      <point x="194.01" y="445.669"/>
      <point x="194.006" y="445.755" type="curve" smooth="yes"/>
      <point x="192.866" y="469.347"/>
      <point x="188.668" y="497.731"/>
      <point x="184.206" y="527.8" type="curve" smooth="yes"/>
      <point x="179.446" y="559.879"/>
      <point x="174.385" y="593.879"/>
      <point x="172.511" y="626.353" type="curve"/>
      <point x="155.866" y="622.712"/>
      <point x="139.268" y="620.875"/>
      <point x="123.837" y="620.875" type="curve" smooth="yes"/>
      <point x="120.803" y="620.875"/>
      <point x="116.604" y="620.472"/>
      <point x="114.531" y="621.652" type="curve" smooth="yes"/>
      <point x="62.1309" y="651.492"/>
      <point x="55.377" y="730.025"/>
      <point x="50.0273" y="781.478" type="curve" smooth="yes"/>
      <point x="50.0273" y="781.649"/>
      <point x="50" y="781.823"/>
      <point x="50" y="782" type="curve" smooth="yes"/>
      <point x="50" y="784.76"/>
      <point x="52.2402" y="787"/>
      <point x="55" y="787" type="curve" smooth="yes"/>
      <point x="58.7363" y="787"/>
      <point x="59.8105" y="784.088"/>
      <point x="60.1826" y="780.505" type="curve" smooth="yes"/>
      <point x="65.5049" y="729.238"/>
      <point x="73.7754" y="657.411"/>
      <point x="118.424" y="630.955" type="curve" smooth="yes"/>
      <point x="120.211" y="630.902"/>
      <point x="122.016" y="630.875"/>
      <point x="123.837" y="630.875" type="curve" smooth="yes"/>
      <point x="139.338" y="630.875"/>
      <point x="155.759" y="632.781"/>
      <point x="172.032" y="636.481" type="curve"/>
      <point x="171.853" y="641.398"/>
      <point x="171.757" y="646.271"/>
      <point x="171.757" y="651.087" type="curve" smooth="yes"/>
      <point x="171.757" y="723.543"/>
      <point x="194.644" y="785.217"/>
      <point x="283.725" y="785.217" type="curve" smooth="yes"/>
      <point x="289.377" y="785.217"/>
      <point x="296.392" y="786.116"/>
      <point x="297.792" y="781.433" type="curve" smooth="yes"/>
      <point x="301.166" y="770.142"/>
      <point x="302.756" y="759.316"/>
      <point x="302.756" y="748.997" type="curve" smooth="yes"/>
      <point x="302.756" y="685.434"/>
      <point x="243.783" y="644.812"/>
      <point x="182.398" y="628.729" type="curve"/>
      <point x="184.158" y="596.376"/>
      <point x="189.25" y="561.948"/>
      <point x="194.098" y="529.278" type="curve" smooth="yes"/>
      <point x="198.554" y="499.251"/>
      <point x="202.802" y="470.714"/>
      <point x="203.987" y="446.375" type="curve" smooth="yes"/>
      <point x="210.312" y="383.349"/>
      <point x="228.038" y="319.919"/>
      <point x="228.038" y="253.215" type="curve" smooth="yes"/>
      <point x="228.038" y="251.454"/>
      <point x="228.025" y="249.691"/>
      <point x="227.999" y="247.926" type="curve" smooth="yes"/>
      <point x="227.691" y="226.785"/>
      <point x="225.156" y="164.592"/>
      <point x="213.089" y="109.6" type="curve"/>
      <point x="221.624" y="101.384"/>
      <point x="229.833" y="92.7588"/>
      <point x="237.959" y="84.2422" type="curve" smooth="yes"/>
      <point x="272.979" y="47.5381"/>
      <point x="306.495" y="12.7998"/>
      <point x="358.01" y="12.7998" type="curve" smooth="yes"/>
      <point x="360.207" y="12.7998"/>
      <point x="362.461" y="12.8643"/>
      <point x="364.732" y="12.9932" type="curve" smooth="yes"/>
      <point x="457.89" y="17.9131"/>
      <point x="558.087" y="34.665"/>
      <point x="558.087" y="151.877" type="curve" smooth="yes"/>
      <point x="558.087" y="153.198"/>
      <point x="558.074" y="154.533"/>
      <point x="558.049" y="155.882" type="curve" smooth="yes"/>
      <point x="531.465" y="182.465" type="line" smooth="yes"/>
      <point x="530.561" y="183.37"/>
      <point x="530" y="184.62"/>
      <point x="530" y="186" type="curve" smooth="yes"/>
      <point x="530" y="188.76"/>
      <point x="532.24" y="191"/>
      <point x="535" y="191" type="curve" smooth="yes"/>
      <point x="536.38" y="191"/>
      <point x="537.63" y="190.439"/>
      <point x="538.535" y="189.535" type="curve" smooth="yes"/>
      <point x="566.535" y="161.535" type="line" smooth="yes"/>
      <point x="568.496" y="159.573"/>
      <point x="568.087" y="155.571"/>
      <point x="568.087" y="151.877" type="curve" smooth="yes"/>
      <point x="568.087" y="25.4482"/>
      <point x="457.551" y="7.88086"/>
      <point x="365.268" y="3.00684" type="curve" smooth="yes"/>
      <point x="362.808" y="2.86719"/>
      <point x="360.402" y="2.7998"/>
      <point x="358.01" y="2.7998" type="curve" smooth="yes"/>
      <point x="290.45" y="2.7998"/>
      <point x="250.462" y="58.6621"/>
      <point x="210.418" y="98.1963" type="curve"/>
      <point x="199.389" y="54.0381"/>
      <point x="180.965" y="13"/>
      <point x="147" y="13" type="curve" smooth="yes"/>
      <point x="146.711" y="13"/>
      <point x="146.429" y="13.0244"/>
      <point x="146.153" y="13.0713" type="curve" smooth="yes"/>
      <point x="96.1221" y="21.6221"/>
      <point x="66.0791" y="81.7871"/>
      <point x="60.0977" y="124.94" type="curve" smooth="yes"/>
      <point x="58.5566" y="130.185"/>
      <point x="57.7773" y="134.8"/>
      <point x="57.7773" y="138.973" type="curve" smooth="yes"/>
      <point x="57.7773" y="155.938"/>
      <point x="71.3408" y="161.244"/>
      <point x="85.6455" y="161.244" type="curve" smooth="yes"/>
      <point x="92.3457" y="161.244"/>
      <point x="99.7012" y="160.32"/>
      <point x="107.373" y="159.01" type="curve" smooth="yes"/>
      <point x="108.271" y="159.029"/>
      <point x="109.164" y="159.038"/>
      <point x="110.054" y="159.038" type="curve" smooth="yes"/>
      <point x="149.276" y="159.038"/>
      <point x="178.685" y="140.809"/>
    </contour>
    <contour>
      <point x="181.757" y="651.087" type="curve" smooth="yes"/>
      <point x="181.757" y="647.093"/>
      <point x="181.825" y="643.05"/>
      <point x="181.955" y="638.967" type="curve"/>
      <point x="239.673" y="654.769"/>
      <point x="292.756" y="693.142"/>
      <point x="292.756" y="748.997" type="curve" smooth="yes"/>
      <point x="292.756" y="757.248"/>
      <point x="291.627" y="765.96"/>
      <point x="289.179" y="775.139" type="curve" smooth="yes"/>
      <point x="287.33" y="775.19"/>
      <point x="285.512" y="775.217"/>
      <point x="283.725" y="775.217" type="curve" smooth="yes"/>
      <point x="202.034" y="775.217"/>
      <point x="181.757" y="721.824"/>
    </contour>
    <contour>
      <point x="202.067" y="106.22" type="curve"/>
      <point x="176.003" y="130.507"/>
      <point x="147.864" y="149.038"/>
      <point x="110.054" y="149.038" type="curve" smooth="yes"/>
      <point x="109.044" y="149.038"/>
      <point x="108.023" y="149"/>
      <point x="107" y="149" type="curve" smooth="yes"/>
      <point x="106.708" y="149"/>
      <point x="106.423" y="149.025"/>
      <point x="106.145" y="149.073" type="curve" smooth="yes"/>
      <point x="98.5879" y="150.378"/>
      <point x="91.5244" y="151.244"/>
      <point x="85.6455" y="151.244" type="curve" smooth="yes"/>
      <point x="72.8467" y="151.244"/>
      <point x="67.7773" y="148.251"/>
      <point x="67.7773" y="138.973" type="curve" smooth="yes"/>
      <point x="67.7773" y="136.021"/>
      <point x="68.3721" y="132.176"/>
      <point x="69.791" y="127.434" type="curve" smooth="yes"/>
      <point x="69.8643" y="127.188"/>
      <point x="69.9189" y="126.936"/>
      <point x="69.9541" y="126.677" type="curve" smooth="yes"/>
      <point x="75.5508" y="85.415"/>
      <point x="104.664" y="30.6396"/>
      <point x="147.419" y="23.0029" type="curve"/>
      <point x="173.1" y="23.3896"/>
      <point x="191.314" y="60.2188"/>
    </contour>
  </outline>
</glyph>
<glyph name="M" format="2">
  <advance width="750"/>
  <unicode hex="004D"/>
  <outline>
    <contour>
      <point x="397.826" y="376.891" type="curve" smooth="yes"/>
      <point x="397.826" y="375.076"/>
      <point x="398" y="373.531"/>
      <point x="398" y="372" type="curve" smooth="yes"/>
      <point x="398" y="369.24"/>
      <point x="395.76" y="367"/>
      <point x="393" y="367" type="curve" smooth="yes"/>
      <point x="391.077" y="367"/>
      <point x="389.406" y="368.088"/>
      <point x="388.569" y="369.682" type="curve" smooth="yes"/>
      <point x="328.096" y="484.918"/>
      <point x="254.823" y="612.695"/>
      <point x="240.459" y="756.169" type="curve"/>
      <point x="232.924" y="686.019"/>
      <point x="232.029" y="613.56"/>
      <point x="231.148" y="541.175" type="curve" smooth="yes"/>
      <point x="228.747" y="343.823"/>
      <point x="226.638" y="146.094"/>
      <point x="86.627" y="-1.44043" type="curve" smooth="yes"/>
      <point x="85.7158" y="-2.40039"/>
      <point x="84.4268" y="-3"/>
      <point x="83" y="-3" type="curve" smooth="yes"/>
      <point x="81.8252" y="-3"/>
      <point x="80.7441" y="-2.59375"/>
      <point x="79.8906" y="-1.91504" type="curve" smooth="yes"/>
      <point x="60.8799" y="13.21"/>
      <point x="51.8447" y="53.0732"/>
      <point x="50.0195" y="73.5508" type="curve" smooth="yes"/>
      <point x="50.0195" y="73.6992"/>
      <point x="50" y="73.8486"/>
      <point x="50" y="74" type="curve" smooth="yes"/>
      <point x="50" y="76.7598"/>
      <point x="52.2402" y="79"/>
      <point x="55" y="79" type="curve" smooth="yes"/>
      <point x="57.6084" y="79"/>
      <point x="59.7529" y="76.998"/>
      <point x="59.9805" y="74.4492" type="curve" smooth="yes"/>
      <point x="61.5781" y="56.5176"/>
      <point x="70.248" y="23.1504"/>
      <point x="82.7949" y="9.08691" type="curve"/>
      <point x="216.132" y="152.765"/>
      <point x="218.763" y="345.145"/>
      <point x="221.149" y="541.298" type="curve" smooth="yes"/>
      <point x="222.262" y="632.779"/>
      <point x="223.361" y="724.886"/>
      <point x="238.068" y="812.829" type="curve" smooth="yes"/>
      <point x="238.464" y="815.195"/>
      <point x="240.522" y="817"/>
      <point x="243" y="817" type="curve" smooth="yes"/>
      <point x="248.612" y="817"/>
      <point x="247.958" y="811.256"/>
      <point x="247.958" y="805.668" type="curve" smooth="yes"/>
      <point x="247.958" y="652.362"/>
      <point x="323.471" y="514.361"/>
      <point x="388.671" y="390.945" type="curve"/>
      <point x="397.149" y="471.034"/>
      <point x="467.75" y="677.352"/>
      <point x="514.049" y="758.697" type="curve" smooth="yes"/>
      <point x="520.97" y="770.856"/>
      <point x="527.411" y="780.453"/>
      <point x="533.479" y="786.911" type="curve" smooth="yes"/>
      <point x="538.186" y="791.92"/>
      <point x="543.087" y="795.819"/>
      <point x="548.96" y="795.819" type="curve" smooth="yes"/>
      <point x="553.646" y="795.819"/>
      <point x="557.402" y="792.867"/>
      <point x="559.734" y="788.934" type="curve" smooth="yes"/>
      <point x="564.28" y="781.266"/>
      <point x="566" y="768.273"/>
      <point x="566" y="748" type="curve" smooth="yes"/>
      <point x="566" y="662.072"/>
      <point x="562.682" y="574.281"/>
      <point x="562.682" y="488.775" type="curve" smooth="yes"/>
      <point x="562.682" y="314.798"/>
      <point x="576.875" y="154.372"/>
      <point x="660.893" y="43.1416" type="curve"/>
      <point x="698.785" y="-0.734375" type="line" smooth="yes"/>
      <point x="699.542" y="-1.61133"/>
      <point x="700" y="-2.75195"/>
      <point x="700" y="-4" type="curve" smooth="yes"/>
      <point x="700" y="-6.75977"/>
      <point x="697.76" y="-9"/>
      <point x="695" y="-9" type="curve" smooth="yes"/>
      <point x="693.488" y="-9"/>
      <point x="692.132" y="-8.32715"/>
      <point x="691.215" y="-7.26562" type="curve" smooth="yes"/>
      <point x="653.215" y="36.7344" type="line" smooth="yes"/>
      <point x="653.144" y="36.8174"/>
      <point x="653.075" y="36.9014"/>
      <point x="653.01" y="36.9883" type="curve" smooth="yes"/>
      <point x="566.435" y="151.491"/>
      <point x="552.682" y="314.485"/>
      <point x="552.682" y="488.775" type="curve" smooth="yes"/>
      <point x="552.682" y="574.329"/>
      <point x="556" y="662.139"/>
      <point x="556" y="748" type="curve" smooth="yes"/>
      <point x="556" y="764.398"/>
      <point x="554.527" y="775.36"/>
      <point x="552.393" y="781.106" type="curve" smooth="yes"/>
      <point x="550.643" y="785.819"/>
      <point x="549.227" y="785.819"/>
      <point x="548.96" y="785.819" type="curve" smooth="yes"/>
      <point x="548.072" y="785.819"/>
      <point x="544.994" y="784.565"/>
      <point x="540.767" y="780.066" type="curve" smooth="yes"/>
      <point x="535.667" y="774.639"/>
      <point x="529.451" y="765.543"/>
      <point x="522.746" y="753.761" type="curve" smooth="yes"/>
      <point x="507.639" y="727.219"/>
      <point x="489.892" y="687.127"/>
      <point x="472.671" y="642.626" type="curve" smooth="yes"/>
      <point x="433.944" y="542.557"/>
      <point x="397.826" y="419.349"/>
    </contour>
  </outline>
</glyph>
<glyph name="N" format="2">
  <advance width="616"/>
  <unicode hex="004E"/>
  <outline>
    <contour>
      <point x="166" y="172" type="curve" smooth="yes"/>
      <point x="166" y="156.342"/>
      <point x="166.787" y="139.943"/>
      <point x="166.787" y="123.023" type="curve" smooth="yes"/>
      <point x="166.787" y="65.4053"/>
      <point x="159.466" y="-13"/>
      <point x="89" y="-13" type="curve" smooth="yes"/>
      <point x="88.6934" y="-13"/>
      <point x="88.3936" y="-12.9727"/>
      <point x="88.1025" y="-12.9199" type="curve" smooth="yes"/>
      <point x="64.0664" y="-8.55762"/>
      <point x="59.6416" y="17.3945"/>
      <point x="55.8086" y="36.6768" type="curve" smooth="yes"/>
      <point x="54.1865" y="44.834"/>
      <point x="52.6172" y="52.498"/>
      <point x="50.3564" y="58.1436" type="curve" smooth="yes"/>
      <point x="50.127" y="58.7178"/>
      <point x="50" y="59.3447"/>
      <point x="50" y="60" type="curve" smooth="yes"/>
      <point x="50" y="62.7598"/>
      <point x="52.2402" y="65"/>
      <point x="55" y="65" type="curve" smooth="yes"/>
      <point x="57.1035" y="65"/>
      <point x="58.9062" y="63.6982"/>
      <point x="59.6436" y="61.8564" type="curve" smooth="yes"/>
      <point x="68.666" y="39.3281"/>
      <point x="66.7861" y="1.56348"/>
      <point x="89.4697" y="-2.99902" type="curve"/>
      <point x="148.509" y="-2.65039"/>
      <point x="156.787" y="63.4238"/>
      <point x="156.787" y="123.023" type="curve" smooth="yes"/>
      <point x="156.787" y="139.865"/>
      <point x="156" y="156.118"/>
      <point x="156" y="171.853" type="curve" smooth="yes"/>
      <point x="151.178" y="255.156"/>
      <point x="142.4" y="347.134"/>
      <point x="142.4" y="429.243" type="curve" smooth="yes"/>
      <point x="142.4" y="554.045"/>
      <point x="162.31" y="666.789"/>
      <point x="245.313" y="757.376" type="curve" smooth="yes"/>
      <point x="255.189" y="768.154"/>
      <point x="262.63" y="774.186"/>
      <point x="270.138" y="774.186" type="curve" smooth="yes"/>
      <point x="282.481" y="774.186"/>
      <point x="283.523" y="759.08"/>
      <point x="283.523" y="747.942" type="curve" smooth="yes"/>
      <point x="283.523" y="726.277"/>
      <point x="276.886" y="691.378"/>
      <point x="276.886" y="670.416" type="curve" smooth="yes"/>
      <point x="276.886" y="666.012"/>
      <point x="277.4" y="663.099"/>
      <point x="277.863" y="661.166" type="curve" smooth="yes"/>
      <point x="287.314" y="621.647"/>
      <point x="290.286" y="580.32"/>
      <point x="290.286" y="538.341" type="curve" smooth="yes"/>
      <point x="290.286" y="465.94"/>
      <point x="281.289" y="390.761"/>
      <point x="281.289" y="318.802" type="curve" smooth="yes"/>
      <point x="281.289" y="267.547"/>
      <point x="285.947" y="218.438"/>
      <point x="301.718" y="173.659" type="curve" smooth="yes"/>
      <point x="301.763" y="173.531"/>
      <point x="301.803" y="173.4"/>
      <point x="301.838" y="173.268" type="curve" smooth="yes"/>
      <point x="304.6" y="162.719"/>
      <point x="315.206" y="137.291"/>
      <point x="326.515" y="110.365" type="curve" smooth="yes"/>
      <point x="336.052" y="87.6562"/>
      <point x="346.207" y="64.0615"/>
      <point x="352.801" y="45.7451" type="curve"/>
      <point x="381.603" y="308.092"/>
      <point x="465.45" y="526.579"/>
      <point x="538.246" y="749.551" type="curve" smooth="yes"/>
      <point x="538.417" y="750.076"/>
      <point x="538.673" y="750.563"/>
      <point x="538.998" y="750.996" type="curve" smooth="yes"/>
      <point x="556.998" y="774.996" type="line" smooth="yes"/>
      <point x="557.91" y="776.212"/>
      <point x="559.363" y="777"/>
      <point x="561" y="777" type="curve" smooth="yes"/>
      <point x="563.76" y="777"/>
      <point x="566" y="774.76"/>
      <point x="566" y="772" type="curve" smooth="yes"/>
      <point x="566" y="770.877"/>
      <point x="565.629" y="769.84"/>
      <point x="565.002" y="769.004" type="curve" smooth="yes"/>
      <point x="547.499" y="745.666" type="line"/>
      <point x="472.415" y="515.775"/>
      <point x="385.594" y="290.158"/>
      <point x="359.978" y="17.5273" type="curve" smooth="yes"/>
      <point x="359.739" y="14.9893"/>
      <point x="357.601" y="13"/>
      <point x="355" y="13" type="curve" smooth="yes"/>
      <point x="352.24" y="13"/>
      <point x="350" y="15.2402"/>
      <point x="350" y="18" type="curve" smooth="yes"/>
      <point x="350" y="35.3545"/>
      <point x="299.107" y="144.561"/>
      <point x="292.216" y="170.53" type="curve" smooth="yes"/>
      <point x="275.947" y="216.825"/>
      <point x="271.289" y="267.023"/>
      <point x="271.289" y="318.802" type="curve" smooth="yes"/>
      <point x="271.289" y="390.941"/>
      <point x="280.286" y="466.131"/>
      <point x="280.286" y="538.341" type="curve" smooth="yes"/>
      <point x="280.286" y="579.786"/>
      <point x="277.342" y="620.272"/>
      <point x="268.175" y="658.676" type="curve" smooth="yes"/>
      <point x="267.152" y="662.022"/>
      <point x="266.886" y="665.909"/>
      <point x="266.886" y="670.416" type="curve" smooth="yes"/>
      <point x="266.886" y="691.676"/>
      <point x="273.523" y="726.709"/>
      <point x="273.523" y="747.942" type="curve" smooth="yes"/>
      <point x="273.523" y="761.922"/>
      <point x="270.484" y="764.186"/>
      <point x="270.138" y="764.186" type="curve" smooth="yes"/>
      <point x="268.542" y="764.186"/>
      <point x="262.448" y="761.276"/>
      <point x="252.687" y="750.624" type="curve" smooth="yes"/>
      <point x="172.152" y="662.731"/>
      <point x="152.4" y="553.126"/>
      <point x="152.4" y="429.243" type="curve" smooth="yes"/>
      <point x="152.4" y="347.742"/>
      <point x="161.188" y="255.315"/>
      <point x="165.991" y="172.293" type="curve" smooth="yes"/>
      <point x="165.997" y="172.196"/>
      <point x="166" y="172.099"/>
    </contour>
  </outline>
</glyph>
